%TF.GenerationSoftware,KiCad,Pcbnew,9.0.6+dfsg-1*%
%TF.CreationDate,2026-05-31T21:43:33+09:00*%
%TF.ProjectId,esp32-s3-board,65737033-322d-4733-932d-626f6172642e,rev?*%
%TF.SameCoordinates,Original*%
%TF.FileFunction,Copper,L2,Bot*%
%TF.FilePolarity,Positive*%
%FSLAX46Y46*%
G04 Gerber Fmt 4.6, Leading zero omitted, Abs format (unit mm)*
G04 Created by KiCad (PCBNEW 9.0.6+dfsg-1) date 2026-05-31 21:43:33*
%MOMM*%
%LPD*%
G01*
G04 APERTURE LIST*
G04 Aperture macros list*
%AMRoundRect*
0 Rectangle with rounded corners*
0 $1 Rounding radius*
0 $2 $3 $4 $5 $6 $7 $8 $9 X,Y pos of 4 corners*
0 Add a 4 corners polygon primitive as box body*
4,1,4,$2,$3,$4,$5,$6,$7,$8,$9,$2,$3,0*
0 Add four circle primitives for the rounded corners*
1,1,$1+$1,$2,$3*
1,1,$1+$1,$4,$5*
1,1,$1+$1,$6,$7*
1,1,$1+$1,$8,$9*
0 Add four rect primitives between the rounded corners*
20,1,$1+$1,$2,$3,$4,$5,0*
20,1,$1+$1,$4,$5,$6,$7,0*
20,1,$1+$1,$6,$7,$8,$9,0*
20,1,$1+$1,$8,$9,$2,$3,0*%
%AMFreePoly0*
4,1,7,1.050000,-0.975000,-1.050000,-0.975000,-1.050000,0.625000,-0.250000,0.625000,-0.250000,0.975000,1.050000,0.975000,1.050000,-0.975000,1.050000,-0.975000,$1*%
%AMFreePoly1*
4,1,7,0.250000,0.625000,1.050000,0.625000,1.050000,-0.975000,-1.050000,-0.975000,-1.050000,0.975000,0.250000,0.975000,0.250000,0.625000,0.250000,0.625000,$1*%
G04 Aperture macros list end*
%TA.AperFunction,HeatsinkPad*%
%ADD10O,2.100000X1.000000*%
%TD*%
%TA.AperFunction,HeatsinkPad*%
%ADD11O,1.600000X1.000000*%
%TD*%
%TA.AperFunction,SMDPad,CuDef*%
%ADD12RoundRect,0.062500X-0.117500X-0.062500X0.117500X-0.062500X0.117500X0.062500X-0.117500X0.062500X0*%
%TD*%
%TA.AperFunction,SMDPad,CuDef*%
%ADD13RoundRect,0.237500X-0.237500X0.300000X-0.237500X-0.300000X0.237500X-0.300000X0.237500X0.300000X0*%
%TD*%
%TA.AperFunction,SMDPad,CuDef*%
%ADD14R,1.100000X0.850000*%
%TD*%
%TA.AperFunction,SMDPad,CuDef*%
%ADD15R,1.100000X0.750000*%
%TD*%
%TA.AperFunction,SMDPad,CuDef*%
%ADD16R,1.000000X1.200000*%
%TD*%
%TA.AperFunction,SMDPad,CuDef*%
%ADD17R,1.350000X1.550000*%
%TD*%
%TA.AperFunction,SMDPad,CuDef*%
%ADD18R,1.350000X1.900000*%
%TD*%
%TA.AperFunction,SMDPad,CuDef*%
%ADD19R,1.800000X1.170000*%
%TD*%
%TA.AperFunction,SMDPad,CuDef*%
%ADD20RoundRect,0.237500X0.237500X-0.250000X0.237500X0.250000X-0.237500X0.250000X-0.237500X-0.250000X0*%
%TD*%
%TA.AperFunction,SMDPad,CuDef*%
%ADD21RoundRect,0.237500X0.250000X0.237500X-0.250000X0.237500X-0.250000X-0.237500X0.250000X-0.237500X0*%
%TD*%
%TA.AperFunction,SMDPad,CuDef*%
%ADD22RoundRect,0.237500X0.300000X0.237500X-0.300000X0.237500X-0.300000X-0.237500X0.300000X-0.237500X0*%
%TD*%
%TA.AperFunction,SMDPad,CuDef*%
%ADD23RoundRect,0.062500X0.062500X-0.117500X0.062500X0.117500X-0.062500X0.117500X-0.062500X-0.117500X0*%
%TD*%
%TA.AperFunction,SMDPad,CuDef*%
%ADD24RoundRect,0.162500X0.650000X0.162500X-0.650000X0.162500X-0.650000X-0.162500X0.650000X-0.162500X0*%
%TD*%
%TA.AperFunction,SMDPad,CuDef*%
%ADD25RoundRect,0.237500X-0.300000X-0.237500X0.300000X-0.237500X0.300000X0.237500X-0.300000X0.237500X0*%
%TD*%
%TA.AperFunction,SMDPad,CuDef*%
%ADD26RoundRect,0.062500X0.117500X0.062500X-0.117500X0.062500X-0.117500X-0.062500X0.117500X-0.062500X0*%
%TD*%
%TA.AperFunction,ComponentPad*%
%ADD27R,1.700000X1.700000*%
%TD*%
%TA.AperFunction,ComponentPad*%
%ADD28C,1.700000*%
%TD*%
%TA.AperFunction,SMDPad,CuDef*%
%ADD29RoundRect,0.075000X0.075000X0.475000X-0.075000X0.475000X-0.075000X-0.475000X0.075000X-0.475000X0*%
%TD*%
%TA.AperFunction,SMDPad,CuDef*%
%ADD30FreePoly0,180.000000*%
%TD*%
%TA.AperFunction,SMDPad,CuDef*%
%ADD31FreePoly1,180.000000*%
%TD*%
%TA.AperFunction,SMDPad,CuDef*%
%ADD32RoundRect,0.237500X-0.237500X0.250000X-0.237500X-0.250000X0.237500X-0.250000X0.237500X0.250000X0*%
%TD*%
%TA.AperFunction,ViaPad*%
%ADD33C,0.600000*%
%TD*%
%TA.AperFunction,Conductor*%
%ADD34C,0.200000*%
%TD*%
G04 APERTURE END LIST*
D10*
%TO.P,J1,S1,SHIELD*%
%TO.N,GND*%
X174320000Y-69140000D03*
D11*
X178500000Y-69140000D03*
D10*
X174320000Y-60500000D03*
D11*
X178500000Y-60500000D03*
%TD*%
D12*
%TO.P,D6,1,A1*%
%TO.N,GND*%
X172000000Y-82000000D03*
%TO.P,D6,2,A2*%
%TO.N,IO40*%
X171160000Y-82000000D03*
%TD*%
D13*
%TO.P,C7,1*%
%TO.N,+3V3*%
X156000000Y-89137500D03*
%TO.P,C7,2*%
%TO.N,GND*%
X156000000Y-90862500D03*
%TD*%
D14*
%TO.P,J3,1,DAT2*%
%TO.N,unconnected-(J3-DAT2-Pad1)*%
X169450000Y-88605000D03*
%TO.P,J3,2,DAT3/CD*%
%TO.N,unconnected-(J3-DAT3{slash}CD-Pad2)*%
X169450000Y-87505000D03*
%TO.P,J3,3,CMD*%
%TO.N,IO38*%
X169450000Y-86405000D03*
%TO.P,J3,4,VDD*%
%TO.N,+3V3*%
X169450000Y-85305000D03*
%TO.P,J3,5,CLK*%
%TO.N,IO39*%
X169450000Y-84205000D03*
%TO.P,J3,6,VSS*%
%TO.N,GND*%
X169450000Y-83105000D03*
%TO.P,J3,7,DAT0*%
%TO.N,IO40*%
X169450000Y-82005000D03*
D15*
%TO.P,J3,8,DAT1*%
%TO.N,unconnected-(J3-DAT1-Pad8)*%
X169450000Y-80955000D03*
D16*
%TO.P,J3,9,SHIELD*%
%TO.N,GND*%
X163300000Y-91240000D03*
%TO.P,J3,10*%
%TO.N,N/C*%
X159600000Y-91240000D03*
D17*
%TO.P,J3,11*%
X169325000Y-91065000D03*
D18*
X158625000Y-87740000D03*
X158625000Y-81770000D03*
D19*
X169100000Y-79745000D03*
%TD*%
D20*
%TO.P,R5,1*%
%TO.N,D+*%
X170500000Y-61412500D03*
%TO.P,R5,2*%
%TO.N,Net-(U1-GPIO20{slash}USB_D+)*%
X170500000Y-59587500D03*
%TD*%
D13*
%TO.P,C22,1*%
%TO.N,+3V3*%
X133500000Y-69637500D03*
%TO.P,C22,2*%
%TO.N,GND*%
X133500000Y-71362500D03*
%TD*%
D21*
%TO.P,R4,1*%
%TO.N,D-*%
X169325000Y-65000000D03*
%TO.P,R4,2*%
%TO.N,Net-(U1-GPIO19{slash}USB_D-)*%
X167500000Y-65000000D03*
%TD*%
D22*
%TO.P,C21,1*%
%TO.N,+3V3*%
X148000000Y-75500000D03*
%TO.P,C21,2*%
%TO.N,GND*%
X146275000Y-75500000D03*
%TD*%
D23*
%TO.P,D2,1,A1*%
%TO.N,D+*%
X170500000Y-63080000D03*
%TO.P,D2,2,A2*%
%TO.N,GND*%
X170500000Y-63920000D03*
%TD*%
D24*
%TO.P,U3,1,~{CS}*%
%TO.N,SPICS0*%
X154150000Y-81690000D03*
%TO.P,U3,2,DO/IO_{1}*%
%TO.N,MEMID1*%
X154150000Y-82960000D03*
%TO.P,U3,3,~{WP}/IO_{2}*%
%TO.N,MEMID2*%
X154150000Y-84230000D03*
%TO.P,U3,4,GND*%
%TO.N,GND*%
X154150000Y-85500000D03*
%TO.P,U3,5,DI/IO_{0}*%
%TO.N,MEMID0*%
X146975000Y-85500000D03*
%TO.P,U3,6,CLK*%
%TO.N,MEMSCLK*%
X146975000Y-84230000D03*
%TO.P,U3,7,~{HOLD}/~{RESET}/IO_{3}*%
%TO.N,MEMID3*%
X146975000Y-82960000D03*
%TO.P,U3,8,VCC*%
%TO.N,+3V3*%
X146975000Y-81690000D03*
%TD*%
D25*
%TO.P,C23,1*%
%TO.N,+3V3*%
X173137500Y-79500000D03*
%TO.P,C23,2*%
%TO.N,GND*%
X174862500Y-79500000D03*
%TD*%
D22*
%TO.P,C12,1*%
%TO.N,AVDD_2V8*%
X148362500Y-90500000D03*
%TO.P,C12,2*%
%TO.N,GND*%
X146637500Y-90500000D03*
%TD*%
%TO.P,C6,1*%
%TO.N,+3V3*%
X164862500Y-71500000D03*
%TO.P,C6,2*%
%TO.N,GND*%
X163137500Y-71500000D03*
%TD*%
D26*
%TO.P,D4,1,A1*%
%TO.N,GND*%
X164080000Y-77500000D03*
%TO.P,D4,2,A2*%
%TO.N,IO38*%
X164920000Y-77500000D03*
%TD*%
D25*
%TO.P,C1,1*%
%TO.N,+5V*%
X176637500Y-66500000D03*
%TO.P,C1,2*%
%TO.N,GND*%
X178362500Y-66500000D03*
%TD*%
D22*
%TO.P,C3,1*%
%TO.N,Net-(U1-CHIP_PU)*%
X137362500Y-71000000D03*
%TO.P,C3,2*%
%TO.N,GND*%
X135637500Y-71000000D03*
%TD*%
D27*
%TO.P,J4,1,Pin_1*%
%TO.N,IO1*%
X130000000Y-57380000D03*
D28*
%TO.P,J4,2,Pin_2*%
%TO.N,IO2*%
X130000000Y-59920000D03*
%TO.P,J4,3,Pin_3*%
%TO.N,IO14*%
X130000000Y-62460000D03*
%TO.P,J4,4,Pin_4*%
%TO.N,IO21*%
X130000000Y-65000000D03*
%TO.P,J4,5,Pin_5*%
%TO.N,+5V*%
X130000000Y-67540000D03*
%TO.P,J4,6,Pin_6*%
%TO.N,+3V3*%
X130000000Y-70080000D03*
%TO.P,J4,7,Pin_7*%
%TO.N,DVDD_1V5*%
X130000000Y-72620000D03*
%TO.P,J4,8,Pin_8*%
%TO.N,GND*%
X130000000Y-75160000D03*
%TD*%
D29*
%TO.P,J2,1,Pin_1*%
%TO.N,unconnected-(J2-Pin_1-Pad1)*%
X151750000Y-93375000D03*
%TO.P,J2,2,Pin_2*%
%TO.N,GND*%
X151250000Y-93375000D03*
%TO.P,J2,3,Pin_3*%
%TO.N,IO4*%
X150750000Y-93375000D03*
%TO.P,J2,4,Pin_4*%
%TO.N,AVDD_2V8*%
X150250000Y-93375000D03*
%TO.P,J2,5,Pin_5*%
%TO.N,IO5*%
X149750000Y-93375000D03*
%TO.P,J2,6,Pin_6*%
%TO.N,Net-(J2-Pin_6)*%
X149250000Y-93375000D03*
%TO.P,J2,7,Pin_7*%
%TO.N,IO6*%
X148750000Y-93375000D03*
%TO.P,J2,8,Pin_8*%
%TO.N,Net-(J2-Pin_8)*%
X148250000Y-93375000D03*
%TO.P,J2,9,Pin_9*%
%TO.N,IO7*%
X147750000Y-93375000D03*
%TO.P,J2,10,Pin_10*%
%TO.N,DVDD_1V5*%
X147250000Y-93375000D03*
%TO.P,J2,11,Pin_11*%
%TO.N,AVDD_2V8*%
X146750000Y-93375000D03*
%TO.P,J2,12,Pin_12*%
%TO.N,IO16*%
X146250000Y-93375000D03*
%TO.P,J2,13,Pin_13*%
%TO.N,IO15*%
X145750000Y-93375000D03*
%TO.P,J2,14,Pin_14*%
%TO.N,IO17*%
X145250000Y-93375000D03*
%TO.P,J2,15,Pin_15*%
%TO.N,GND*%
X144750000Y-93375000D03*
%TO.P,J2,16,Pin_16*%
%TO.N,IO18*%
X144250000Y-93375000D03*
%TO.P,J2,17,Pin_17*%
%TO.N,IO13*%
X143750000Y-93375000D03*
%TO.P,J2,18,Pin_18*%
%TO.N,IO12*%
X143250000Y-93375000D03*
%TO.P,J2,19,Pin_19*%
%TO.N,IO11*%
X142750000Y-93375000D03*
%TO.P,J2,20,Pin_20*%
%TO.N,IO10*%
X142250000Y-93375000D03*
%TO.P,J2,21,Pin_21*%
%TO.N,IO9*%
X141750000Y-93375000D03*
%TO.P,J2,22,Pin_22*%
%TO.N,IO8*%
X141250000Y-93375000D03*
%TO.P,J2,23,Pin_23*%
%TO.N,unconnected-(J2-Pin_23-Pad23)*%
X140750000Y-93375000D03*
%TO.P,J2,24,Pin_24*%
%TO.N,unconnected-(J2-Pin_24-Pad24)*%
X140250000Y-93375000D03*
D30*
%TO.P,J2,MP*%
%TO.N,N/C*%
X154000000Y-94500000D03*
D31*
X138000000Y-94500000D03*
%TD*%
D23*
%TO.P,D3,1,A1*%
%TO.N,+5V*%
X170500000Y-70080000D03*
%TO.P,D3,2,A2*%
%TO.N,GND*%
X170500000Y-70920000D03*
%TD*%
D32*
%TO.P,R2,1*%
%TO.N,Net-(J1-CC1)*%
X172000000Y-68587500D03*
%TO.P,R2,2*%
%TO.N,GND*%
X172000000Y-70412500D03*
%TD*%
D12*
%TO.P,D5,1,A1*%
%TO.N,GND*%
X171920000Y-85000000D03*
%TO.P,D5,2,A2*%
%TO.N,IO39*%
X171080000Y-85000000D03*
%TD*%
D23*
%TO.P,D1,1,A1*%
%TO.N,D-*%
X170500000Y-66500000D03*
%TO.P,D1,2,A2*%
%TO.N,GND*%
X170500000Y-67340000D03*
%TD*%
D33*
%TO.N,+5V*%
X169000000Y-70450000D03*
X173405000Y-67270000D03*
%TO.N,GND*%
X165000000Y-83000000D03*
X151250000Y-91750000D03*
X145050000Y-72200000D03*
X144750000Y-95500000D03*
X147500000Y-70000000D03*
X152000000Y-99000000D03*
X142500000Y-73500000D03*
X173912500Y-58500000D03*
X124500000Y-85000000D03*
X177000000Y-75000000D03*
X159500000Y-58500000D03*
X152109880Y-84109880D03*
X142500000Y-96500000D03*
X152000000Y-70000000D03*
X147500000Y-73000000D03*
X147500000Y-71500000D03*
X143500000Y-74500000D03*
X167000000Y-91500000D03*
X157000000Y-94500000D03*
X159062500Y-95550000D03*
X145000000Y-67000000D03*
%TO.N,+3V3*%
X171500000Y-79175000D03*
X169450000Y-85305000D03*
X141850000Y-68150000D03*
X150000000Y-81500000D03*
X154000000Y-87000000D03*
X149350000Y-75650000D03*
X167112500Y-71387500D03*
X157000000Y-88500000D03*
%TO.N,Net-(U1-CHIP_PU)*%
X140000000Y-70000000D03*
X133000000Y-73500000D03*
%TO.N,DVDD_1V5*%
X137000000Y-81500000D03*
X160500000Y-92500000D03*
X147050000Y-97100000D03*
X146500000Y-95900000D03*
%TO.N,AVDD_2V8*%
X151256457Y-94895013D03*
%TO.N,D-*%
X175000000Y-65500000D03*
%TO.N,D+*%
X175000000Y-64000000D03*
%TO.N,IO38*%
X168500000Y-74500000D03*
%TO.N,IO39*%
X147000000Y-62412500D03*
X151000000Y-67500000D03*
X169450000Y-84205000D03*
%TO.N,IO40*%
X151000000Y-66500000D03*
X148000000Y-66500000D03*
X169450000Y-82005000D03*
%TO.N,Net-(J1-CC1)*%
X171750000Y-66750000D03*
%TO.N,IO6*%
X151000000Y-98000000D03*
X139500000Y-97000000D03*
X149065187Y-95065187D03*
%TO.N,IO13*%
X144500000Y-91500000D03*
%TO.N,IO15*%
X145500000Y-95000000D03*
%TO.N,Net-(J2-Pin_8)*%
X148464187Y-95900000D03*
%TO.N,IO16*%
X146500000Y-95000000D03*
%TO.N,IO12*%
X143500000Y-91500000D03*
%TO.N,IO7*%
X147500000Y-98000000D03*
X147500000Y-95900000D03*
X140500000Y-96500000D03*
%TO.N,Net-(J2-Pin_6)*%
X150022177Y-95900000D03*
%TO.N,IO4*%
X139796000Y-84000000D03*
%TO.N,IO17*%
X145850000Y-88281478D03*
%TO.N,IO11*%
X142500000Y-91500000D03*
%TO.N,IO9*%
X142000000Y-95000000D03*
%TO.N,IO18*%
X148000000Y-86500000D03*
%TO.N,IO8*%
X141000000Y-95000000D03*
%TO.N,IO10*%
X141500000Y-91500000D03*
%TO.N,IO5*%
X152500000Y-97000000D03*
X150690770Y-95460700D03*
X138500000Y-96500000D03*
%TO.N,IO21*%
X148400000Y-77900000D03*
X137000000Y-77500000D03*
%TO.N,IO14*%
X144250000Y-80000000D03*
X136500000Y-74500000D03*
%TO.N,Net-(U1-GPIO19{slash}USB_D-)*%
X146750000Y-77750000D03*
%TO.N,Net-(U1-GPIO20{slash}USB_D+)*%
X170500000Y-59587500D03*
X147887851Y-77285421D03*
X169000000Y-66300003D03*
%TO.N,Net-(U1-GPIO0)*%
X138495000Y-73005000D03*
X142500000Y-72000000D03*
X136000000Y-79000000D03*
X126600000Y-75500000D03*
%TO.N,MEMID3*%
X147500000Y-79400000D03*
X153500000Y-79000000D03*
X152975000Y-89365000D03*
X146975000Y-82960000D03*
%TO.N,MEMID2*%
X154150000Y-84230000D03*
X151500000Y-74500000D03*
X151750000Y-76250000D03*
%TO.N,SPICS0*%
X154150000Y-81690000D03*
%TO.N,MEMID0*%
X146975000Y-85500000D03*
X156600000Y-76000000D03*
%TO.N,MEMID1*%
X154150000Y-82960000D03*
%TO.N,MEMSCLK*%
X158000000Y-78000000D03*
X152975000Y-90635000D03*
%TD*%
D34*
%TO.N,+5V*%
X176637500Y-66500000D02*
X176637500Y-58137500D01*
X173405000Y-67270000D02*
X174175000Y-66500000D01*
X174175000Y-66500000D02*
X176637500Y-66500000D01*
X176637500Y-58137500D02*
X175000000Y-56500000D01*
X132000000Y-65540000D02*
X130000000Y-67540000D01*
X132000000Y-59000000D02*
X132000000Y-65540000D01*
X169370000Y-70080000D02*
X169000000Y-70450000D01*
X170500000Y-70080000D02*
X169370000Y-70080000D01*
X175000000Y-56500000D02*
X134500000Y-56500000D01*
X134500000Y-56500000D02*
X132000000Y-59000000D01*
%TO.N,GND*%
X139356000Y-94356000D02*
X139356000Y-93398248D01*
X135637500Y-69862500D02*
X136000000Y-69500000D01*
X154150000Y-85500000D02*
X156500000Y-85500000D01*
X151250000Y-93375000D02*
X151250000Y-91750000D01*
X142500000Y-96500000D02*
X141500000Y-96500000D01*
X144750000Y-93375000D02*
X144750000Y-95500000D01*
X135637500Y-71000000D02*
X135637500Y-69862500D01*
X139356000Y-93398248D02*
X137457752Y-91500000D01*
X141500000Y-96500000D02*
X139356000Y-94356000D01*
%TO.N,+3V3*%
X154000000Y-87000000D02*
X149500000Y-82500000D01*
X156362500Y-89137500D02*
X157000000Y-88500000D01*
X148000000Y-75500000D02*
X149200000Y-75500000D01*
X133500000Y-69637500D02*
X130442500Y-69637500D01*
X149500000Y-82500000D02*
X149500000Y-82000000D01*
X149500000Y-82500000D02*
X148690000Y-81690000D01*
X150000000Y-67901000D02*
X150500000Y-68401000D01*
X149200000Y-75500000D02*
X149350000Y-75650000D01*
X156500000Y-88000000D02*
X157000000Y-88500000D01*
X150500000Y-68401000D02*
X150500000Y-74500000D01*
X149500000Y-82000000D02*
X150000000Y-81500000D01*
X155500000Y-87000000D02*
X156500000Y-88000000D01*
X134987500Y-68150000D02*
X141850000Y-68150000D01*
X150500000Y-74500000D02*
X149350000Y-75650000D01*
X133500000Y-69637500D02*
X134987500Y-68150000D01*
X164862500Y-71500000D02*
X167000000Y-71500000D01*
X173137500Y-79500000D02*
X171825000Y-79500000D01*
X154000000Y-87000000D02*
X155500000Y-87000000D01*
X171825000Y-79500000D02*
X171500000Y-79175000D01*
X130442500Y-69637500D02*
X130000000Y-70080000D01*
X148690000Y-81690000D02*
X146975000Y-81690000D01*
X167000000Y-71500000D02*
X167112500Y-71387500D01*
X156000000Y-89137500D02*
X156362500Y-89137500D01*
X141850000Y-68150000D02*
X142099000Y-67901000D01*
X142099000Y-67901000D02*
X150000000Y-67901000D01*
%TO.N,Net-(U1-CHIP_PU)*%
X134862500Y-73500000D02*
X137362500Y-71000000D01*
X139000000Y-71000000D02*
X140000000Y-70000000D01*
X137362500Y-71000000D02*
X139000000Y-71000000D01*
X133000000Y-73500000D02*
X134862500Y-73500000D01*
%TO.N,DVDD_1V5*%
X130000000Y-72620000D02*
X129120000Y-73500000D01*
X129120000Y-73500000D02*
X125000000Y-73500000D01*
X125000000Y-73500000D02*
X123500000Y-75000000D01*
X123500000Y-75000000D02*
X123500000Y-76500000D01*
X123500000Y-76500000D02*
X126500000Y-79500000D01*
X135000000Y-79500000D02*
X137000000Y-81500000D01*
X147250000Y-95150000D02*
X146500000Y-95900000D01*
X147050000Y-97100000D02*
X147150000Y-97000000D01*
X152500000Y-96000000D02*
X157000000Y-96000000D01*
X132000000Y-79500000D02*
X135000000Y-79500000D01*
X151500000Y-97000000D02*
X152500000Y-96000000D01*
X157000000Y-96000000D02*
X160500000Y-92500000D01*
X126500000Y-79500000D02*
X132000000Y-79500000D01*
X147250000Y-93375000D02*
X147250000Y-95150000D01*
X147150000Y-97000000D02*
X151500000Y-97000000D01*
%TO.N,AVDD_2V8*%
X147541176Y-92000000D02*
X148500000Y-92000000D01*
X146750000Y-92791176D02*
X147541176Y-92000000D01*
X146750000Y-93375000D02*
X146750000Y-92791176D01*
X148500000Y-92000000D02*
X149500000Y-92000000D01*
X150250000Y-92750000D02*
X150250000Y-93375000D01*
X151186189Y-94895013D02*
X151256457Y-94895013D01*
X150250000Y-93375000D02*
X150250000Y-93958824D01*
X148362500Y-91862500D02*
X148362500Y-90500000D01*
X150250000Y-93958824D02*
X151186189Y-94895013D01*
X149500000Y-92000000D02*
X150250000Y-92750000D01*
X148500000Y-92000000D02*
X148362500Y-91862500D01*
%TO.N,D-*%
X169325000Y-65325000D02*
X170500000Y-66500000D01*
X171500000Y-65500000D02*
X175000000Y-65500000D01*
X170500000Y-66500000D02*
X171500000Y-65500000D01*
X169325000Y-65000000D02*
X169325000Y-65325000D01*
%TO.N,D+*%
X170500000Y-61412500D02*
X172412500Y-61412500D01*
X170500000Y-63080000D02*
X170500000Y-61412500D01*
X172412500Y-61412500D02*
X175000000Y-64000000D01*
%TO.N,IO38*%
X166000000Y-77000000D02*
X166000000Y-83705000D01*
X168500000Y-74500000D02*
X166000000Y-77000000D01*
X168700000Y-86405000D02*
X169450000Y-86405000D01*
X164920000Y-77500000D02*
X165500000Y-77500000D01*
X166000000Y-83705000D02*
X168700000Y-86405000D01*
X165500000Y-77500000D02*
X166000000Y-77000000D01*
%TO.N,IO39*%
X171080000Y-85000000D02*
X170285000Y-84205000D01*
X148150057Y-67500000D02*
X146500000Y-65849943D01*
X170285000Y-84205000D02*
X169450000Y-84205000D01*
X146500000Y-64000000D02*
X147000000Y-63500000D01*
X147000000Y-63500000D02*
X147000000Y-62412500D01*
X146500000Y-65849943D02*
X146500000Y-64000000D01*
X151000000Y-67500000D02*
X148150057Y-67500000D01*
%TO.N,IO40*%
X148000000Y-66500000D02*
X151000000Y-66500000D01*
X169455000Y-82000000D02*
X169450000Y-82005000D01*
X171160000Y-82000000D02*
X169455000Y-82000000D01*
%TO.N,Net-(J1-CC1)*%
X172000000Y-67000000D02*
X171750000Y-66750000D01*
X172000000Y-68587500D02*
X172000000Y-67000000D01*
%TO.N,IO6*%
X147150057Y-98500000D02*
X141000000Y-98500000D01*
X151000000Y-98000000D02*
X150500000Y-98500000D01*
X147849943Y-98500000D02*
X147748943Y-98601000D01*
X147748943Y-98601000D02*
X147251057Y-98601000D01*
X149065187Y-95065187D02*
X149000000Y-95000000D01*
X149000000Y-94567100D02*
X148750000Y-94317100D01*
X150500000Y-98500000D02*
X147849943Y-98500000D01*
X149000000Y-95000000D02*
X149000000Y-94567100D01*
X147251057Y-98601000D02*
X147150057Y-98500000D01*
X148750000Y-94317100D02*
X148750000Y-93375000D01*
X141000000Y-98500000D02*
X139500000Y-97000000D01*
%TO.N,IO13*%
X143750000Y-92250000D02*
X143750000Y-93375000D01*
X144500000Y-91500000D02*
X143750000Y-92250000D01*
%TO.N,IO15*%
X145500000Y-95000000D02*
X145500000Y-94500000D01*
X145750000Y-94250000D02*
X145750000Y-93375000D01*
X145500000Y-94500000D02*
X145750000Y-94250000D01*
%TO.N,Net-(J2-Pin_8)*%
X148464187Y-95900000D02*
X148464187Y-94964187D01*
X148250000Y-94750000D02*
X148250000Y-93375000D01*
X148464187Y-94964187D02*
X148250000Y-94750000D01*
%TO.N,IO16*%
X146250000Y-94750000D02*
X146250000Y-93375000D01*
X146500000Y-95000000D02*
X146250000Y-94750000D01*
%TO.N,IO12*%
X143250000Y-91750000D02*
X143250000Y-93375000D01*
X143500000Y-91500000D02*
X143250000Y-91750000D01*
%TO.N,IO7*%
X142000000Y-98000000D02*
X140500000Y-96500000D01*
X147750000Y-95250000D02*
X147750000Y-93375000D01*
X147500000Y-95900000D02*
X147500000Y-95500000D01*
X147500000Y-95500000D02*
X147750000Y-95250000D01*
X147500000Y-98000000D02*
X142000000Y-98000000D01*
%TO.N,Net-(J2-Pin_6)*%
X149250000Y-94250000D02*
X150022177Y-95022177D01*
X150022177Y-95022177D02*
X150022177Y-95900000D01*
X149250000Y-93375000D02*
X149250000Y-94250000D01*
%TO.N,IO4*%
X139796000Y-84000000D02*
X143000000Y-84000000D01*
X146000000Y-86000000D02*
X150500000Y-90500000D01*
X145000000Y-86000000D02*
X146000000Y-86000000D01*
X150500000Y-90500000D02*
X150500000Y-92000000D01*
X143000000Y-84000000D02*
X145000000Y-86000000D01*
X150750000Y-92250000D02*
X150750000Y-93375000D01*
X150500000Y-92000000D02*
X150750000Y-92250000D01*
%TO.N,IO17*%
X145850000Y-88281478D02*
X145250000Y-88881478D01*
X145250000Y-88881478D02*
X145250000Y-93375000D01*
%TO.N,IO11*%
X142750000Y-93375000D02*
X142750000Y-91750000D01*
X142750000Y-91750000D02*
X142500000Y-91500000D01*
%TO.N,IO9*%
X141750000Y-94750000D02*
X142000000Y-95000000D01*
X141750000Y-93375000D02*
X141750000Y-94750000D01*
%TO.N,IO18*%
X144000000Y-96000000D02*
X144500000Y-96500000D01*
X152500000Y-93000000D02*
X152201000Y-92701000D01*
X144000000Y-94208824D02*
X144000000Y-96000000D01*
X151000000Y-96500000D02*
X152500000Y-95000000D01*
X152201000Y-90701000D02*
X148000000Y-86500000D01*
X144500000Y-96500000D02*
X151000000Y-96500000D01*
X152500000Y-95000000D02*
X152500000Y-93000000D01*
X152201000Y-92701000D02*
X152201000Y-90701000D01*
X144250000Y-93375000D02*
X144201000Y-93424000D01*
X144201000Y-93424000D02*
X144201000Y-94007824D01*
X144201000Y-94007824D02*
X144000000Y-94208824D01*
%TO.N,IO8*%
X141250000Y-94750000D02*
X141000000Y-95000000D01*
X141250000Y-93375000D02*
X141250000Y-94750000D01*
%TO.N,IO10*%
X142250000Y-92250000D02*
X141500000Y-91500000D01*
X142250000Y-93375000D02*
X142250000Y-92250000D01*
%TO.N,IO5*%
X152500000Y-97000000D02*
X152500000Y-97349943D01*
X150690770Y-95460700D02*
X150690770Y-95179269D01*
X150655457Y-95143956D02*
X150655457Y-94931381D01*
X150655457Y-94931381D02*
X149849000Y-94124924D01*
X149799000Y-93799000D02*
X149750000Y-93750000D01*
X149849000Y-94124924D02*
X149849000Y-94057824D01*
X152500000Y-97349943D02*
X150450943Y-99399000D01*
X150690770Y-95179269D02*
X150655457Y-95143956D01*
X149849000Y-94057824D02*
X149799000Y-94007824D01*
X149750000Y-93750000D02*
X149750000Y-93375000D01*
X150450943Y-99399000D02*
X141049057Y-99399000D01*
X138500000Y-96849943D02*
X138500000Y-96500000D01*
X141049057Y-99399000D02*
X138500000Y-96849943D01*
X149799000Y-94007824D02*
X149799000Y-93799000D01*
%TO.N,IO21*%
X148400000Y-77900000D02*
X147600000Y-77900000D01*
X138000000Y-78500000D02*
X137000000Y-77500000D01*
X147600000Y-77900000D02*
X147102000Y-78398000D01*
X146982957Y-78500000D02*
X138000000Y-78500000D01*
X147102000Y-78398000D02*
X147084957Y-78398000D01*
X147084957Y-78398000D02*
X146982957Y-78500000D01*
%TO.N,IO14*%
X138650057Y-80000000D02*
X136000000Y-77349943D01*
X136000000Y-77349943D02*
X136000000Y-75000000D01*
X144250000Y-80000000D02*
X138650057Y-80000000D01*
X136000000Y-75000000D02*
X136500000Y-74500000D01*
%TO.N,Net-(U1-GPIO19{slash}USB_D-)*%
X148652521Y-76684421D02*
X149666100Y-77698000D01*
X155531900Y-74500000D02*
X157500000Y-74500000D01*
X149666100Y-77698000D02*
X152333900Y-77698000D01*
X157500000Y-74500000D02*
X167000000Y-65000000D01*
X147638908Y-76684421D02*
X148652521Y-76684421D01*
X146750000Y-77750000D02*
X146750000Y-77573329D01*
X152333900Y-77698000D02*
X155531900Y-74500000D01*
X146750000Y-77573329D02*
X147638908Y-76684421D01*
X167000000Y-65000000D02*
X167500000Y-65000000D01*
%TO.N,Net-(U1-GPIO20{slash}USB_D+)*%
X149500000Y-78099000D02*
X148686421Y-77285421D01*
X152500000Y-78099000D02*
X149500000Y-78099000D01*
X157666100Y-74901000D02*
X155698000Y-74901000D01*
X148686421Y-77285421D02*
X147887851Y-77285421D01*
X166302856Y-66264244D02*
X157666100Y-74901000D01*
X155698000Y-74901000D02*
X152500000Y-78099000D01*
X168964241Y-66264244D02*
X166302856Y-66264244D01*
X169000000Y-66300003D02*
X168964241Y-66264244D01*
%TO.N,Net-(U1-GPIO0)*%
X126600000Y-75500000D02*
X130100000Y-79000000D01*
X130100000Y-79000000D02*
X136000000Y-79000000D01*
X138495000Y-73005000D02*
X141495000Y-73005000D01*
X141495000Y-73005000D02*
X142500000Y-72000000D01*
%TO.N,MEMID3*%
X147787499Y-82960000D02*
X152975000Y-88147501D01*
X152975000Y-88147501D02*
X152975000Y-89365000D01*
X153500000Y-79000000D02*
X147900000Y-79000000D01*
X147900000Y-79000000D02*
X147500000Y-79400000D01*
X146975000Y-82960000D02*
X147787499Y-82960000D01*
%TO.N,MEMID2*%
X151500000Y-76000000D02*
X151500000Y-74500000D01*
X151750000Y-76250000D02*
X151500000Y-76000000D01*
%TO.N,MEMID0*%
X156600000Y-76000000D02*
X156500000Y-76000000D01*
X153251057Y-78399000D02*
X153150057Y-78500000D01*
X147533900Y-78799000D02*
X147251057Y-78799000D01*
X147750943Y-78599000D02*
X147733900Y-78599000D01*
X156500000Y-76000000D02*
X154000000Y-78500000D01*
X145460500Y-80589557D02*
X145460500Y-84797999D01*
X146162501Y-85500000D02*
X146975000Y-85500000D01*
X147251057Y-78799000D02*
X145460500Y-80589557D01*
X145460500Y-84797999D02*
X146162501Y-85500000D01*
X147849943Y-78500000D02*
X147750943Y-78599000D01*
X153150057Y-78500000D02*
X147849943Y-78500000D01*
X153849943Y-78500000D02*
X153748943Y-78399000D01*
X154000000Y-78500000D02*
X153849943Y-78500000D01*
X153748943Y-78399000D02*
X153251057Y-78399000D01*
X147733900Y-78599000D02*
X147533900Y-78799000D01*
%TO.N,MEMSCLK*%
X156000000Y-80000000D02*
X147192510Y-80000000D01*
X145861500Y-83928999D02*
X146162501Y-84230000D01*
X146162501Y-84230000D02*
X146975000Y-84230000D01*
X158000000Y-78000000D02*
X156000000Y-80000000D01*
X152975000Y-90635000D02*
X152374000Y-90034000D01*
X152374000Y-90034000D02*
X152374000Y-89374000D01*
X152374000Y-89374000D02*
X147230000Y-84230000D01*
X147230000Y-84230000D02*
X146975000Y-84230000D01*
X147192510Y-80000000D02*
X145861500Y-81331010D01*
X145861500Y-81331010D02*
X145861500Y-83928999D01*
%TD*%
%TA.AperFunction,Conductor*%
%TO.N,GND*%
G36*
X179442539Y-55520185D02*
G01*
X179488294Y-55572989D01*
X179499500Y-55624500D01*
X179499500Y-59532712D01*
X179479815Y-59599751D01*
X179427011Y-59645506D01*
X179357853Y-59655450D01*
X179306610Y-59635814D01*
X179273689Y-59613817D01*
X179273671Y-59613807D01*
X179091693Y-59538430D01*
X179091681Y-59538427D01*
X178898495Y-59500000D01*
X178750000Y-59500000D01*
X178750000Y-60200000D01*
X178250000Y-60200000D01*
X178250000Y-59500000D01*
X178101504Y-59500000D01*
X177908318Y-59538427D01*
X177908306Y-59538430D01*
X177726328Y-59613807D01*
X177726315Y-59613814D01*
X177562537Y-59723248D01*
X177562533Y-59723251D01*
X177449681Y-59836104D01*
X177388358Y-59869589D01*
X177318666Y-59864605D01*
X177262733Y-59822733D01*
X177238316Y-59757269D01*
X177238000Y-59748423D01*
X177238000Y-58226560D01*
X177238001Y-58226547D01*
X177238001Y-58058444D01*
X177197076Y-57905714D01*
X177197073Y-57905709D01*
X177118024Y-57768790D01*
X177118018Y-57768782D01*
X175487590Y-56138355D01*
X175487588Y-56138352D01*
X175368717Y-56019481D01*
X175368716Y-56019480D01*
X175281904Y-55969360D01*
X175281904Y-55969359D01*
X175281900Y-55969358D01*
X175231785Y-55940423D01*
X175079057Y-55899499D01*
X174920943Y-55899499D01*
X174913347Y-55899499D01*
X174913331Y-55899500D01*
X134586669Y-55899500D01*
X134586653Y-55899499D01*
X134579057Y-55899499D01*
X134420943Y-55899499D01*
X134313587Y-55928265D01*
X134268210Y-55940424D01*
X134268209Y-55940425D01*
X134218096Y-55969359D01*
X134218095Y-55969360D01*
X134174689Y-55994420D01*
X134131285Y-56019479D01*
X134131282Y-56019481D01*
X131519479Y-58631284D01*
X131502228Y-58661165D01*
X131494936Y-58673796D01*
X131440423Y-58768215D01*
X131399499Y-58920943D01*
X131399499Y-58920945D01*
X131399499Y-59089046D01*
X131399500Y-59089059D01*
X131399500Y-59175444D01*
X131379815Y-59242483D01*
X131327011Y-59288238D01*
X131257853Y-59298182D01*
X131194297Y-59269157D01*
X131165016Y-59231740D01*
X131155050Y-59212182D01*
X131030109Y-59040213D01*
X130916569Y-58926673D01*
X130883084Y-58865350D01*
X130888068Y-58795658D01*
X130929940Y-58739725D01*
X130960915Y-58722810D01*
X131092331Y-58673796D01*
X131207546Y-58587546D01*
X131293796Y-58472331D01*
X131344091Y-58337483D01*
X131350500Y-58277873D01*
X131350499Y-56482128D01*
X131344091Y-56422517D01*
X131293796Y-56287669D01*
X131293795Y-56287668D01*
X131293793Y-56287664D01*
X131207547Y-56172455D01*
X131207544Y-56172452D01*
X131092335Y-56086206D01*
X131092328Y-56086202D01*
X130957482Y-56035908D01*
X130957483Y-56035908D01*
X130897883Y-56029501D01*
X130897881Y-56029500D01*
X130897873Y-56029500D01*
X130897864Y-56029500D01*
X129102129Y-56029500D01*
X129102123Y-56029501D01*
X129042516Y-56035908D01*
X128907671Y-56086202D01*
X128907664Y-56086206D01*
X128792455Y-56172452D01*
X128792452Y-56172455D01*
X128706206Y-56287664D01*
X128706202Y-56287671D01*
X128655908Y-56422517D01*
X128649501Y-56482116D01*
X128649501Y-56482123D01*
X128649500Y-56482135D01*
X128649500Y-58277870D01*
X128649501Y-58277876D01*
X128655908Y-58337483D01*
X128706202Y-58472328D01*
X128706206Y-58472335D01*
X128792452Y-58587544D01*
X128792455Y-58587547D01*
X128907664Y-58673793D01*
X128907671Y-58673797D01*
X129039082Y-58722810D01*
X129095016Y-58764681D01*
X129119433Y-58830145D01*
X129104582Y-58898418D01*
X129083431Y-58926673D01*
X128969889Y-59040215D01*
X128844951Y-59212179D01*
X128748444Y-59401585D01*
X128682753Y-59603760D01*
X128663828Y-59723248D01*
X128649500Y-59813713D01*
X128649500Y-60026287D01*
X128658145Y-60080869D01*
X128680251Y-60220444D01*
X128682754Y-60236243D01*
X128702934Y-60298351D01*
X128748444Y-60438414D01*
X128844951Y-60627820D01*
X128969890Y-60799786D01*
X129120213Y-60950109D01*
X129292182Y-61075050D01*
X129300946Y-61079516D01*
X129351742Y-61127491D01*
X129368536Y-61195312D01*
X129345998Y-61261447D01*
X129300946Y-61300484D01*
X129292182Y-61304949D01*
X129120213Y-61429890D01*
X128969890Y-61580213D01*
X128844951Y-61752179D01*
X128748444Y-61941585D01*
X128682753Y-62143760D01*
X128656762Y-62307861D01*
X128649500Y-62353713D01*
X128649500Y-62566287D01*
X128682754Y-62776243D01*
X128731283Y-62925600D01*
X128748444Y-62978414D01*
X128844951Y-63167820D01*
X128969890Y-63339786D01*
X129120213Y-63490109D01*
X129292182Y-63615050D01*
X129300946Y-63619516D01*
X129351742Y-63667491D01*
X129368536Y-63735312D01*
X129345998Y-63801447D01*
X129300946Y-63840484D01*
X129292182Y-63844949D01*
X129120213Y-63969890D01*
X128969890Y-64120213D01*
X128844951Y-64292179D01*
X128748444Y-64481585D01*
X128682753Y-64683760D01*
X128649500Y-64893713D01*
X128649500Y-65106286D01*
X128678072Y-65286686D01*
X128682754Y-65316243D01*
X128733969Y-65473867D01*
X128748444Y-65518414D01*
X128844951Y-65707820D01*
X128969890Y-65879786D01*
X129120213Y-66030109D01*
X129292182Y-66155050D01*
X129300946Y-66159516D01*
X129351742Y-66207491D01*
X129368536Y-66275312D01*
X129345998Y-66341447D01*
X129300946Y-66380484D01*
X129292182Y-66384949D01*
X129120213Y-66509890D01*
X128969890Y-66660213D01*
X128844951Y-66832179D01*
X128748444Y-67021585D01*
X128682753Y-67223760D01*
X128649500Y-67433713D01*
X128649500Y-67646287D01*
X128653174Y-67669481D01*
X128670930Y-67781593D01*
X128682754Y-67856243D01*
X128734865Y-68016624D01*
X128748444Y-68058414D01*
X128844951Y-68247820D01*
X128969890Y-68419786D01*
X129120213Y-68570109D01*
X129292182Y-68695050D01*
X129300946Y-68699516D01*
X129351742Y-68747491D01*
X129368536Y-68815312D01*
X129345998Y-68881447D01*
X129300946Y-68920484D01*
X129292182Y-68924949D01*
X129120213Y-69049890D01*
X128969890Y-69200213D01*
X128844951Y-69372179D01*
X128748444Y-69561585D01*
X128682753Y-69763760D01*
X128657120Y-69925600D01*
X128649500Y-69973713D01*
X128649500Y-70186287D01*
X128656976Y-70233489D01*
X128665077Y-70284639D01*
X128682754Y-70396243D01*
X128745562Y-70589546D01*
X128748444Y-70598414D01*
X128844951Y-70787820D01*
X128969890Y-70959786D01*
X129120213Y-71110109D01*
X129292182Y-71235050D01*
X129300946Y-71239516D01*
X129351742Y-71287491D01*
X129368536Y-71355312D01*
X129345998Y-71421447D01*
X129300946Y-71460484D01*
X129292182Y-71464949D01*
X129120213Y-71589890D01*
X128969890Y-71740213D01*
X128844951Y-71912179D01*
X128748444Y-72101585D01*
X128682753Y-72303760D01*
X128649500Y-72513713D01*
X128649500Y-72726287D01*
X128654222Y-72756103D01*
X128645266Y-72825397D01*
X128600269Y-72878848D01*
X128533517Y-72899487D01*
X128531748Y-72899500D01*
X124920940Y-72899500D01*
X124880019Y-72910464D01*
X124880019Y-72910465D01*
X124842751Y-72920451D01*
X124768214Y-72940423D01*
X124768209Y-72940426D01*
X124631290Y-73019475D01*
X124631282Y-73019481D01*
X123019479Y-74631284D01*
X123002901Y-74660000D01*
X122980096Y-74699500D01*
X122940423Y-74768215D01*
X122899499Y-74920943D01*
X122899499Y-74920945D01*
X122899499Y-75089046D01*
X122899500Y-75089059D01*
X122899500Y-76413330D01*
X122899499Y-76413348D01*
X122899499Y-76579054D01*
X122899498Y-76579054D01*
X122904092Y-76596198D01*
X122940423Y-76731785D01*
X122940424Y-76731787D01*
X122940423Y-76731787D01*
X122953986Y-76755277D01*
X122953987Y-76755279D01*
X123019475Y-76868709D01*
X123019481Y-76868717D01*
X123138349Y-76987585D01*
X123138354Y-76987589D01*
X126131284Y-79980520D01*
X126131286Y-79980521D01*
X126131290Y-79980524D01*
X126141456Y-79986393D01*
X126268216Y-80059577D01*
X126420943Y-80100501D01*
X126420945Y-80100501D01*
X126586654Y-80100501D01*
X126586670Y-80100500D01*
X131920943Y-80100500D01*
X134699903Y-80100500D01*
X134766942Y-80120185D01*
X134787584Y-80136819D01*
X136165425Y-81514660D01*
X136198910Y-81575983D01*
X136199361Y-81578149D01*
X136230261Y-81733491D01*
X136230264Y-81733501D01*
X136290602Y-81879172D01*
X136290609Y-81879185D01*
X136378210Y-82010288D01*
X136378213Y-82010292D01*
X136489707Y-82121786D01*
X136489711Y-82121789D01*
X136620814Y-82209390D01*
X136620827Y-82209397D01*
X136753589Y-82264388D01*
X136766503Y-82269737D01*
X136921153Y-82300499D01*
X136921156Y-82300500D01*
X136921158Y-82300500D01*
X137078844Y-82300500D01*
X137078845Y-82300499D01*
X137233497Y-82269737D01*
X137379179Y-82209394D01*
X137510289Y-82121789D01*
X137621789Y-82010289D01*
X137709394Y-81879179D01*
X137769737Y-81733497D01*
X137800500Y-81578842D01*
X137800500Y-81421158D01*
X137800500Y-81421155D01*
X137800499Y-81421153D01*
X137794638Y-81391688D01*
X137769737Y-81266503D01*
X137764308Y-81253397D01*
X137709397Y-81120827D01*
X137709390Y-81120814D01*
X137621789Y-80989711D01*
X137621786Y-80989707D01*
X137510292Y-80878213D01*
X137510288Y-80878210D01*
X137379185Y-80790609D01*
X137379172Y-80790602D01*
X137233501Y-80730264D01*
X137233491Y-80730261D01*
X137078149Y-80699361D01*
X137016238Y-80666976D01*
X137014660Y-80665425D01*
X136283740Y-79934505D01*
X136250255Y-79873182D01*
X136255239Y-79803490D01*
X136297111Y-79747557D01*
X136323969Y-79732263D01*
X136379172Y-79709397D01*
X136379172Y-79709396D01*
X136379179Y-79709394D01*
X136510289Y-79621789D01*
X136621789Y-79510289D01*
X136709394Y-79379179D01*
X136769737Y-79233497D01*
X136769739Y-79233485D01*
X136771262Y-79228468D01*
X136809560Y-79170029D01*
X136873372Y-79141573D01*
X136942439Y-79152133D01*
X136977603Y-79176781D01*
X138281341Y-80480520D01*
X138281343Y-80480521D01*
X138281347Y-80480524D01*
X138370731Y-80532129D01*
X138418273Y-80559577D01*
X138571000Y-80600501D01*
X138571002Y-80600501D01*
X138736711Y-80600501D01*
X138736727Y-80600500D01*
X143670234Y-80600500D01*
X143737273Y-80620185D01*
X143739125Y-80621398D01*
X143870814Y-80709390D01*
X143870827Y-80709397D01*
X143949894Y-80742147D01*
X144016503Y-80769737D01*
X144171153Y-80800499D01*
X144171156Y-80800500D01*
X144171158Y-80800500D01*
X144328844Y-80800500D01*
X144328845Y-80800499D01*
X144483497Y-80769737D01*
X144596686Y-80722853D01*
X144629172Y-80709397D01*
X144629172Y-80709396D01*
X144629179Y-80709394D01*
X144667109Y-80684049D01*
X144733785Y-80663172D01*
X144801166Y-80681656D01*
X144847856Y-80733634D01*
X144860000Y-80787152D01*
X144860000Y-84711329D01*
X144859988Y-84713027D01*
X144859987Y-84713100D01*
X144858633Y-84717487D01*
X144859242Y-84725023D01*
X144859241Y-84725032D01*
X144856402Y-84724716D01*
X144849930Y-84745692D01*
X144840314Y-84778441D01*
X144839646Y-84779019D01*
X144839386Y-84779864D01*
X144813271Y-84801873D01*
X144787510Y-84824196D01*
X144786636Y-84824321D01*
X144785961Y-84824891D01*
X144752115Y-84829285D01*
X144718352Y-84834140D01*
X144717548Y-84833773D01*
X144716672Y-84833887D01*
X144685817Y-84819281D01*
X144654796Y-84805115D01*
X144653666Y-84804063D01*
X144653520Y-84803994D01*
X144653420Y-84803833D01*
X144648318Y-84799083D01*
X143487590Y-83638355D01*
X143487588Y-83638352D01*
X143368717Y-83519481D01*
X143368716Y-83519480D01*
X143274831Y-83465276D01*
X143231785Y-83440423D01*
X143079057Y-83399499D01*
X142920943Y-83399499D01*
X142913347Y-83399499D01*
X142913331Y-83399500D01*
X140375766Y-83399500D01*
X140308727Y-83379815D01*
X140306875Y-83378602D01*
X140175185Y-83290609D01*
X140175172Y-83290602D01*
X140029501Y-83230264D01*
X140029489Y-83230261D01*
X139874845Y-83199500D01*
X139874842Y-83199500D01*
X139717158Y-83199500D01*
X139717155Y-83199500D01*
X139562510Y-83230261D01*
X139562498Y-83230264D01*
X139416827Y-83290602D01*
X139416814Y-83290609D01*
X139285711Y-83378210D01*
X139285707Y-83378213D01*
X139174213Y-83489707D01*
X139174210Y-83489711D01*
X139086609Y-83620814D01*
X139086602Y-83620827D01*
X139026264Y-83766498D01*
X139026261Y-83766510D01*
X138995500Y-83921153D01*
X138995500Y-84078846D01*
X139026261Y-84233489D01*
X139026264Y-84233501D01*
X139086602Y-84379172D01*
X139086609Y-84379185D01*
X139174210Y-84510288D01*
X139174213Y-84510292D01*
X139285707Y-84621786D01*
X139285711Y-84621789D01*
X139416814Y-84709390D01*
X139416827Y-84709397D01*
X139526924Y-84755000D01*
X139562503Y-84769737D01*
X139710034Y-84799083D01*
X139717153Y-84800499D01*
X139717156Y-84800500D01*
X139717158Y-84800500D01*
X139874844Y-84800500D01*
X139874845Y-84800499D01*
X140029497Y-84769737D01*
X140166408Y-84713027D01*
X140175172Y-84709397D01*
X140175172Y-84709396D01*
X140175179Y-84709394D01*
X140175185Y-84709390D01*
X140306875Y-84621398D01*
X140373553Y-84600520D01*
X140375766Y-84600500D01*
X142699903Y-84600500D01*
X142766942Y-84620185D01*
X142787584Y-84636819D01*
X144515139Y-86364374D01*
X144515149Y-86364385D01*
X144519479Y-86368715D01*
X144519480Y-86368716D01*
X144631284Y-86480520D01*
X144698767Y-86519481D01*
X144768215Y-86559577D01*
X144920943Y-86600500D01*
X145079057Y-86600500D01*
X145699903Y-86600500D01*
X145766942Y-86620185D01*
X145787584Y-86636819D01*
X148463584Y-89312819D01*
X148497069Y-89374142D01*
X148492085Y-89443834D01*
X148450213Y-89499767D01*
X148384749Y-89524184D01*
X148375903Y-89524500D01*
X148013330Y-89524500D01*
X148013312Y-89524501D01*
X147912247Y-89534825D01*
X147748484Y-89589092D01*
X147748481Y-89589093D01*
X147601648Y-89679661D01*
X147587325Y-89693984D01*
X147526001Y-89727468D01*
X147456309Y-89722482D01*
X147411965Y-89693982D01*
X147398038Y-89680055D01*
X147398034Y-89680052D01*
X147251311Y-89589551D01*
X147251300Y-89589546D01*
X147087652Y-89535319D01*
X146986654Y-89525000D01*
X146887500Y-89525000D01*
X146887500Y-91474999D01*
X146917579Y-91474999D01*
X146984618Y-91494684D01*
X147030373Y-91547488D01*
X147040317Y-91616646D01*
X147011292Y-91680202D01*
X147005260Y-91686680D01*
X146403759Y-92288181D01*
X146342436Y-92321666D01*
X146316078Y-92324500D01*
X146137272Y-92324500D01*
X146018899Y-92340085D01*
X146018772Y-92340145D01*
X146018542Y-92340132D01*
X146016708Y-92340374D01*
X146016662Y-92340030D01*
X146002499Y-92339263D01*
X145983479Y-92340469D01*
X145975407Y-92339383D01*
X145975236Y-92339313D01*
X145958005Y-92337044D01*
X145957979Y-92337041D01*
X145926134Y-92322849D01*
X145894416Y-92308817D01*
X145894319Y-92308671D01*
X145894160Y-92308600D01*
X145875075Y-92279494D01*
X145855946Y-92250491D01*
X145855912Y-92250268D01*
X145855848Y-92250170D01*
X145855844Y-92249815D01*
X145850500Y-92214146D01*
X145850500Y-91524330D01*
X145870185Y-91457291D01*
X145922989Y-91411536D01*
X145992147Y-91401592D01*
X146016609Y-91408882D01*
X146016842Y-91408181D01*
X146187347Y-91464680D01*
X146288351Y-91474999D01*
X146387500Y-91474998D01*
X146387500Y-89524999D01*
X146288360Y-89525000D01*
X146288344Y-89525001D01*
X146187347Y-89535319D01*
X146016842Y-89591819D01*
X146016136Y-89589689D01*
X145957811Y-89598541D01*
X145894031Y-89570013D01*
X145855799Y-89511531D01*
X145850500Y-89475669D01*
X145850500Y-89199325D01*
X145870185Y-89132286D01*
X145922989Y-89086531D01*
X145950309Y-89077708D01*
X145966291Y-89074528D01*
X146083497Y-89051215D01*
X146229179Y-88990872D01*
X146360289Y-88903267D01*
X146471789Y-88791767D01*
X146559394Y-88660657D01*
X146563938Y-88649688D01*
X146615475Y-88525264D01*
X146619737Y-88514975D01*
X146650500Y-88360320D01*
X146650500Y-88202636D01*
X146650500Y-88202633D01*
X146650499Y-88202631D01*
X146629985Y-88099500D01*
X146619737Y-88047981D01*
X146619735Y-88047976D01*
X146559397Y-87902305D01*
X146559390Y-87902292D01*
X146471789Y-87771189D01*
X146471786Y-87771185D01*
X146360292Y-87659691D01*
X146360288Y-87659688D01*
X146229185Y-87572087D01*
X146229172Y-87572080D01*
X146083501Y-87511742D01*
X146083489Y-87511739D01*
X145928845Y-87480978D01*
X145928842Y-87480978D01*
X145771158Y-87480978D01*
X145771155Y-87480978D01*
X145616510Y-87511739D01*
X145616498Y-87511742D01*
X145470827Y-87572080D01*
X145470814Y-87572087D01*
X145339711Y-87659688D01*
X145339707Y-87659691D01*
X145228213Y-87771185D01*
X145228210Y-87771189D01*
X145140609Y-87902292D01*
X145140602Y-87902305D01*
X145080264Y-88047976D01*
X145080261Y-88047986D01*
X145049362Y-88203326D01*
X145040596Y-88220083D01*
X145036577Y-88238560D01*
X145017832Y-88263601D01*
X145016977Y-88265237D01*
X145015427Y-88266815D01*
X144955915Y-88326327D01*
X144881286Y-88400956D01*
X144881285Y-88400956D01*
X144881284Y-88400957D01*
X144769481Y-88512760D01*
X144769479Y-88512763D01*
X144719361Y-88599572D01*
X144719359Y-88599574D01*
X144690425Y-88649687D01*
X144690424Y-88649688D01*
X144680360Y-88687247D01*
X144649499Y-88802421D01*
X144649499Y-88802423D01*
X144649499Y-88970524D01*
X144649500Y-88970537D01*
X144649500Y-90575500D01*
X144629815Y-90642539D01*
X144577011Y-90688294D01*
X144525500Y-90699500D01*
X144421155Y-90699500D01*
X144266510Y-90730261D01*
X144266498Y-90730264D01*
X144120827Y-90790602D01*
X144120814Y-90790609D01*
X144068891Y-90825304D01*
X144002214Y-90846182D01*
X143934833Y-90827698D01*
X143931109Y-90825304D01*
X143879185Y-90790609D01*
X143879172Y-90790602D01*
X143733501Y-90730264D01*
X143733489Y-90730261D01*
X143578845Y-90699500D01*
X143578842Y-90699500D01*
X143421158Y-90699500D01*
X143421155Y-90699500D01*
X143266510Y-90730261D01*
X143266498Y-90730264D01*
X143120827Y-90790602D01*
X143120814Y-90790609D01*
X143068891Y-90825304D01*
X143002214Y-90846182D01*
X142934833Y-90827698D01*
X142931109Y-90825304D01*
X142879185Y-90790609D01*
X142879172Y-90790602D01*
X142733501Y-90730264D01*
X142733489Y-90730261D01*
X142578845Y-90699500D01*
X142578842Y-90699500D01*
X142421158Y-90699500D01*
X142421155Y-90699500D01*
X142266510Y-90730261D01*
X142266498Y-90730264D01*
X142120827Y-90790602D01*
X142120814Y-90790609D01*
X142068891Y-90825304D01*
X142002214Y-90846182D01*
X141934833Y-90827698D01*
X141931109Y-90825304D01*
X141879185Y-90790609D01*
X141879172Y-90790602D01*
X141733501Y-90730264D01*
X141733489Y-90730261D01*
X141578845Y-90699500D01*
X141578842Y-90699500D01*
X141421158Y-90699500D01*
X141421155Y-90699500D01*
X141266510Y-90730261D01*
X141266498Y-90730264D01*
X141120827Y-90790602D01*
X141120814Y-90790609D01*
X140989711Y-90878210D01*
X140989707Y-90878213D01*
X140878213Y-90989707D01*
X140878210Y-90989711D01*
X140790609Y-91120814D01*
X140790602Y-91120827D01*
X140730264Y-91266498D01*
X140730261Y-91266510D01*
X140699500Y-91421153D01*
X140699500Y-91578846D01*
X140730261Y-91733489D01*
X140730264Y-91733501D01*
X140790602Y-91879172D01*
X140790609Y-91879185D01*
X140878210Y-92010288D01*
X140878213Y-92010292D01*
X140984107Y-92116186D01*
X141017592Y-92177509D01*
X141012608Y-92247201D01*
X140970736Y-92303134D01*
X140905272Y-92327551D01*
X140880243Y-92326806D01*
X140862735Y-92324501D01*
X140862723Y-92324500D01*
X140862720Y-92324500D01*
X140637280Y-92324500D01*
X140637272Y-92324500D01*
X140550393Y-92335938D01*
X140524764Y-92339313D01*
X140524762Y-92339313D01*
X140516708Y-92340374D01*
X140516316Y-92337399D01*
X140483684Y-92337399D01*
X140483292Y-92340374D01*
X140475237Y-92339313D01*
X140475236Y-92339313D01*
X140446271Y-92335499D01*
X140362727Y-92324500D01*
X140362720Y-92324500D01*
X140137280Y-92324500D01*
X140137272Y-92324500D01*
X140024764Y-92339313D01*
X140024763Y-92339313D01*
X139884770Y-92397300D01*
X139884767Y-92397301D01*
X139884767Y-92397302D01*
X139813138Y-92452265D01*
X139764549Y-92489549D01*
X139672300Y-92609770D01*
X139614313Y-92749763D01*
X139614313Y-92749764D01*
X139599500Y-92862272D01*
X139599500Y-93067558D01*
X139579815Y-93134597D01*
X139527011Y-93180352D01*
X139457853Y-93190296D01*
X139394297Y-93161271D01*
X139348729Y-93121786D01*
X139323294Y-93099746D01*
X139323290Y-93099744D01*
X139192419Y-93039976D01*
X139192414Y-93039975D01*
X139050000Y-93019500D01*
X136950000Y-93019500D01*
X136949997Y-93019500D01*
X136878059Y-93024644D01*
X136740005Y-93065182D01*
X136618969Y-93142967D01*
X136618965Y-93142971D01*
X136524750Y-93251700D01*
X136524744Y-93251709D01*
X136464976Y-93382580D01*
X136464975Y-93382585D01*
X136444500Y-93524999D01*
X136444500Y-95125002D01*
X136449644Y-95196940D01*
X136490182Y-95334994D01*
X136567967Y-95456030D01*
X136567971Y-95456034D01*
X136632305Y-95511780D01*
X136676706Y-95550254D01*
X136717174Y-95568735D01*
X136807580Y-95610023D01*
X136807583Y-95610023D01*
X136807584Y-95610024D01*
X136950000Y-95630500D01*
X137187452Y-95630500D01*
X137254491Y-95650185D01*
X137291767Y-95687460D01*
X137367967Y-95806030D01*
X137367971Y-95806034D01*
X137453118Y-95879815D01*
X137476706Y-95900254D01*
X137505378Y-95913348D01*
X137607580Y-95960023D01*
X137607583Y-95960023D01*
X137607584Y-95960024D01*
X137685178Y-95971180D01*
X137748734Y-96000205D01*
X137786509Y-96058982D01*
X137786509Y-96128852D01*
X137782094Y-96141370D01*
X137730263Y-96266503D01*
X137730262Y-96266506D01*
X137730262Y-96266507D01*
X137730261Y-96266510D01*
X137699500Y-96421153D01*
X137699500Y-96578846D01*
X137730261Y-96733489D01*
X137730264Y-96733501D01*
X137790602Y-96879172D01*
X137790609Y-96879185D01*
X137878210Y-97010288D01*
X137878213Y-97010292D01*
X137916456Y-97048534D01*
X137936232Y-97074336D01*
X137940365Y-97081514D01*
X137940423Y-97081728D01*
X137965696Y-97125501D01*
X138019479Y-97218657D01*
X138019481Y-97218660D01*
X138138349Y-97337528D01*
X138138355Y-97337533D01*
X140088641Y-99287819D01*
X140122126Y-99349142D01*
X140117142Y-99418834D01*
X140075270Y-99474767D01*
X140009806Y-99499184D01*
X140000960Y-99499500D01*
X115624500Y-99499500D01*
X115557461Y-99479815D01*
X115511706Y-99427011D01*
X115500500Y-99375500D01*
X115500500Y-55624500D01*
X115520185Y-55557461D01*
X115572989Y-55511706D01*
X115624500Y-55500500D01*
X179375500Y-55500500D01*
X179442539Y-55520185D01*
G37*
%TD.AperFunction*%
%TA.AperFunction,Conductor*%
G36*
X178750000Y-61500000D02*
G01*
X178898492Y-61500000D01*
X178898495Y-61499999D01*
X179091681Y-61461572D01*
X179091693Y-61461569D01*
X179273671Y-61386192D01*
X179273685Y-61386184D01*
X179306608Y-61364186D01*
X179373285Y-61343307D01*
X179440665Y-61361791D01*
X179487356Y-61413769D01*
X179499500Y-61467287D01*
X179499500Y-65777422D01*
X179479815Y-65844461D01*
X179427011Y-65890216D01*
X179357853Y-65900160D01*
X179294297Y-65871135D01*
X179269962Y-65842520D01*
X179244945Y-65801962D01*
X179123038Y-65680055D01*
X179123034Y-65680052D01*
X178976311Y-65589551D01*
X178976300Y-65589546D01*
X178812652Y-65535319D01*
X178711654Y-65525000D01*
X178612500Y-65525000D01*
X178612500Y-67474999D01*
X178711640Y-67474999D01*
X178711654Y-67474998D01*
X178812652Y-67464680D01*
X178976300Y-67410453D01*
X178976311Y-67410448D01*
X179123034Y-67319947D01*
X179123038Y-67319944D01*
X179244943Y-67198039D01*
X179269961Y-67157480D01*
X179321909Y-67110755D01*
X179390872Y-67099534D01*
X179454954Y-67127377D01*
X179493810Y-67185446D01*
X179499500Y-67222577D01*
X179499500Y-68172712D01*
X179479815Y-68239751D01*
X179427011Y-68285506D01*
X179357853Y-68295450D01*
X179306610Y-68275814D01*
X179273689Y-68253817D01*
X179273671Y-68253807D01*
X179091693Y-68178430D01*
X179091681Y-68178427D01*
X178898495Y-68140000D01*
X178750000Y-68140000D01*
X178750000Y-68840000D01*
X178250000Y-68840000D01*
X178250000Y-68140000D01*
X178101504Y-68140000D01*
X177908318Y-68178427D01*
X177908306Y-68178430D01*
X177726328Y-68253807D01*
X177726315Y-68253814D01*
X177562537Y-68363248D01*
X177562533Y-68363251D01*
X177423251Y-68502533D01*
X177423248Y-68502537D01*
X177313814Y-68666315D01*
X177313807Y-68666328D01*
X177238430Y-68848307D01*
X177238430Y-68848309D01*
X177230138Y-68890000D01*
X178033012Y-68890000D01*
X178015795Y-68899940D01*
X177959940Y-68955795D01*
X177920444Y-69024204D01*
X177900000Y-69100504D01*
X177900000Y-69179496D01*
X177920444Y-69255796D01*
X177959940Y-69324205D01*
X178015795Y-69380060D01*
X178033012Y-69390000D01*
X177230138Y-69390000D01*
X177238430Y-69431690D01*
X177238430Y-69431692D01*
X177313807Y-69613671D01*
X177313814Y-69613684D01*
X177423248Y-69777462D01*
X177423251Y-69777466D01*
X177562533Y-69916748D01*
X177562537Y-69916751D01*
X177726315Y-70026185D01*
X177726328Y-70026192D01*
X177908306Y-70101569D01*
X177908318Y-70101572D01*
X178101504Y-70139999D01*
X178101508Y-70140000D01*
X178250000Y-70140000D01*
X178250000Y-69440000D01*
X178750000Y-69440000D01*
X178750000Y-70140000D01*
X178898492Y-70140000D01*
X178898495Y-70139999D01*
X179091681Y-70101572D01*
X179091693Y-70101569D01*
X179273671Y-70026192D01*
X179273685Y-70026184D01*
X179306608Y-70004186D01*
X179373285Y-69983307D01*
X179440665Y-70001791D01*
X179487356Y-70053769D01*
X179499500Y-70107287D01*
X179499500Y-99375500D01*
X179479815Y-99442539D01*
X179427011Y-99488294D01*
X179375500Y-99499500D01*
X151499040Y-99499500D01*
X151432001Y-99479815D01*
X151386246Y-99427011D01*
X151376302Y-99357853D01*
X151405327Y-99294297D01*
X151411359Y-99287819D01*
X151573360Y-99125817D01*
X152858506Y-97840670D01*
X152858511Y-97840667D01*
X152868714Y-97830463D01*
X152868716Y-97830463D01*
X152980520Y-97718659D01*
X153034304Y-97625501D01*
X153059577Y-97581728D01*
X153059635Y-97581510D01*
X153063768Y-97574334D01*
X153070806Y-97567608D01*
X153083544Y-97548533D01*
X153121789Y-97510289D01*
X153209394Y-97379179D01*
X153269737Y-97233497D01*
X153300500Y-97078842D01*
X153300500Y-96921158D01*
X153300500Y-96921155D01*
X153300499Y-96921153D01*
X153269738Y-96766510D01*
X153269737Y-96766503D01*
X153269732Y-96766492D01*
X153267969Y-96760676D01*
X153270720Y-96759841D01*
X153264497Y-96702641D01*
X153295691Y-96640122D01*
X153355734Y-96604392D01*
X153386555Y-96600500D01*
X156913331Y-96600500D01*
X156913347Y-96600501D01*
X156920943Y-96600501D01*
X157079054Y-96600501D01*
X157079057Y-96600501D01*
X157231785Y-96559577D01*
X157301233Y-96519481D01*
X157368716Y-96480520D01*
X157480520Y-96368716D01*
X157480520Y-96368714D01*
X157490724Y-96358511D01*
X157490727Y-96358506D01*
X160514662Y-93334572D01*
X160575983Y-93301089D01*
X160578150Y-93300638D01*
X160636085Y-93289113D01*
X160733497Y-93269737D01*
X160879179Y-93209394D01*
X161010289Y-93121789D01*
X161121789Y-93010289D01*
X161209394Y-92879179D01*
X161269737Y-92733497D01*
X161300500Y-92578842D01*
X161300500Y-92421158D01*
X161300500Y-92421155D01*
X161300499Y-92421153D01*
X161286260Y-92349570D01*
X161269737Y-92266503D01*
X161241175Y-92197547D01*
X161209397Y-92120827D01*
X161209390Y-92120814D01*
X161121789Y-91989711D01*
X161121786Y-91989707D01*
X161019923Y-91887844D01*
X162300000Y-91887844D01*
X162306401Y-91947372D01*
X162306403Y-91947379D01*
X162356645Y-92082086D01*
X162356649Y-92082093D01*
X162442809Y-92197187D01*
X162442812Y-92197190D01*
X162557906Y-92283350D01*
X162557913Y-92283354D01*
X162692620Y-92333596D01*
X162692627Y-92333598D01*
X162752155Y-92339999D01*
X162752172Y-92340000D01*
X163050000Y-92340000D01*
X163550000Y-92340000D01*
X163847828Y-92340000D01*
X163847844Y-92339999D01*
X163907372Y-92333598D01*
X163907379Y-92333596D01*
X164042086Y-92283354D01*
X164042093Y-92283350D01*
X164157187Y-92197190D01*
X164157190Y-92197187D01*
X164243350Y-92082093D01*
X164243354Y-92082086D01*
X164293596Y-91947379D01*
X164293598Y-91947372D01*
X164299999Y-91887844D01*
X164300000Y-91887827D01*
X164300000Y-91490000D01*
X163550000Y-91490000D01*
X163550000Y-92340000D01*
X163050000Y-92340000D01*
X163050000Y-91490000D01*
X162300000Y-91490000D01*
X162300000Y-91887844D01*
X161019923Y-91887844D01*
X161010292Y-91878213D01*
X161010288Y-91878210D01*
X160879185Y-91790609D01*
X160879172Y-91790602D01*
X160733498Y-91730263D01*
X160733493Y-91730262D01*
X160700305Y-91723660D01*
X160672171Y-91708943D01*
X160643296Y-91695756D01*
X160641438Y-91692866D01*
X160638395Y-91691274D01*
X160622686Y-91663686D01*
X160605522Y-91636978D01*
X160604861Y-91632382D01*
X160603822Y-91630557D01*
X160600499Y-91602043D01*
X160600499Y-90592155D01*
X162300000Y-90592155D01*
X162300000Y-90990000D01*
X163050000Y-90990000D01*
X163550000Y-90990000D01*
X164300000Y-90990000D01*
X164300000Y-90592172D01*
X164299999Y-90592155D01*
X164293598Y-90532627D01*
X164293596Y-90532620D01*
X164243354Y-90397913D01*
X164243353Y-90397911D01*
X164179876Y-90313117D01*
X164179875Y-90313116D01*
X164157187Y-90282809D01*
X164102854Y-90242135D01*
X168149500Y-90242135D01*
X168149500Y-91887870D01*
X168149501Y-91887876D01*
X168155908Y-91947483D01*
X168206202Y-92082328D01*
X168206206Y-92082335D01*
X168292452Y-92197544D01*
X168292455Y-92197547D01*
X168407664Y-92283793D01*
X168407671Y-92283797D01*
X168542517Y-92334091D01*
X168542516Y-92334091D01*
X168549444Y-92334835D01*
X168602127Y-92340500D01*
X170047872Y-92340499D01*
X170107483Y-92334091D01*
X170242331Y-92283796D01*
X170357546Y-92197546D01*
X170443796Y-92082331D01*
X170494091Y-91947483D01*
X170500500Y-91887873D01*
X170500499Y-90242128D01*
X170494091Y-90182517D01*
X170491473Y-90175499D01*
X170443797Y-90047671D01*
X170443793Y-90047664D01*
X170357547Y-89932455D01*
X170357544Y-89932452D01*
X170242335Y-89846206D01*
X170242328Y-89846202D01*
X170107482Y-89795908D01*
X170107483Y-89795908D01*
X170047883Y-89789501D01*
X170047881Y-89789500D01*
X170047873Y-89789500D01*
X170047864Y-89789500D01*
X168602129Y-89789500D01*
X168602123Y-89789501D01*
X168542516Y-89795908D01*
X168407671Y-89846202D01*
X168407664Y-89846206D01*
X168292455Y-89932452D01*
X168292452Y-89932455D01*
X168206206Y-90047664D01*
X168206202Y-90047671D01*
X168155908Y-90182517D01*
X168149501Y-90242116D01*
X168149501Y-90242123D01*
X168149500Y-90242135D01*
X164102854Y-90242135D01*
X164042093Y-90196649D01*
X164042086Y-90196645D01*
X163907379Y-90146403D01*
X163907372Y-90146401D01*
X163847844Y-90140000D01*
X163550000Y-90140000D01*
X163550000Y-90990000D01*
X163050000Y-90990000D01*
X163050000Y-90140000D01*
X162752155Y-90140000D01*
X162692627Y-90146401D01*
X162692620Y-90146403D01*
X162557913Y-90196645D01*
X162557906Y-90196649D01*
X162442812Y-90282809D01*
X162442809Y-90282812D01*
X162356649Y-90397906D01*
X162356645Y-90397913D01*
X162306403Y-90532620D01*
X162306401Y-90532627D01*
X162300000Y-90592155D01*
X160600499Y-90592155D01*
X160600499Y-90592129D01*
X160600498Y-90592123D01*
X160600497Y-90592116D01*
X160594091Y-90532517D01*
X160586940Y-90513345D01*
X160543797Y-90397671D01*
X160543793Y-90397664D01*
X160457547Y-90282455D01*
X160457544Y-90282452D01*
X160342335Y-90196206D01*
X160342328Y-90196202D01*
X160207482Y-90145908D01*
X160207483Y-90145908D01*
X160147883Y-90139501D01*
X160147881Y-90139500D01*
X160147873Y-90139500D01*
X160147864Y-90139500D01*
X159052129Y-90139500D01*
X159052123Y-90139501D01*
X158992516Y-90145908D01*
X158857671Y-90196202D01*
X158857664Y-90196206D01*
X158742455Y-90282452D01*
X158742452Y-90282455D01*
X158656206Y-90397664D01*
X158656202Y-90397671D01*
X158605908Y-90532517D01*
X158600905Y-90579057D01*
X158599501Y-90592123D01*
X158599500Y-90592135D01*
X158599500Y-91887870D01*
X158599501Y-91887876D01*
X158605908Y-91947483D01*
X158656202Y-92082328D01*
X158656206Y-92082335D01*
X158742452Y-92197544D01*
X158742455Y-92197547D01*
X158857664Y-92283793D01*
X158857671Y-92283797D01*
X158902455Y-92300500D01*
X158992517Y-92334091D01*
X159052127Y-92340500D01*
X159510904Y-92340499D01*
X159577942Y-92360183D01*
X159623697Y-92412987D01*
X159633641Y-92482146D01*
X159604616Y-92545702D01*
X159598584Y-92552180D01*
X156787584Y-95363181D01*
X156726261Y-95396666D01*
X156699903Y-95399500D01*
X155659137Y-95399500D01*
X155592098Y-95379815D01*
X155546343Y-95327011D01*
X155536399Y-95257854D01*
X155539902Y-95233489D01*
X155555500Y-95125000D01*
X155555500Y-93525000D01*
X155550355Y-93453060D01*
X155509819Y-93315008D01*
X155432031Y-93193968D01*
X155427793Y-93190296D01*
X155323299Y-93099750D01*
X155323295Y-93099747D01*
X155323294Y-93099746D01*
X155323290Y-93099744D01*
X155192419Y-93039976D01*
X155192414Y-93039975D01*
X155050000Y-93019500D01*
X153222057Y-93019500D01*
X153155018Y-92999815D01*
X153109263Y-92947011D01*
X153102282Y-92927594D01*
X153100501Y-92920947D01*
X153100501Y-92920943D01*
X153059577Y-92768215D01*
X153027190Y-92712119D01*
X152980520Y-92631284D01*
X152868716Y-92519480D01*
X152868715Y-92519479D01*
X152864385Y-92515149D01*
X152864374Y-92515139D01*
X152837819Y-92488584D01*
X152804334Y-92427261D01*
X152801500Y-92400903D01*
X152801500Y-91559500D01*
X152821185Y-91492461D01*
X152873989Y-91446706D01*
X152925500Y-91435500D01*
X153053844Y-91435500D01*
X153053845Y-91435499D01*
X153208497Y-91404737D01*
X153354179Y-91344394D01*
X153485289Y-91256789D01*
X153530424Y-91211654D01*
X155025001Y-91211654D01*
X155035319Y-91312652D01*
X155089546Y-91476300D01*
X155089551Y-91476311D01*
X155180052Y-91623034D01*
X155180055Y-91623038D01*
X155301961Y-91744944D01*
X155301965Y-91744947D01*
X155448688Y-91835448D01*
X155448699Y-91835453D01*
X155612347Y-91889680D01*
X155713352Y-91899999D01*
X155750000Y-91899999D01*
X156250000Y-91899999D01*
X156286640Y-91899999D01*
X156286654Y-91899998D01*
X156387652Y-91889680D01*
X156551300Y-91835453D01*
X156551311Y-91835448D01*
X156698034Y-91744947D01*
X156698038Y-91744944D01*
X156819944Y-91623038D01*
X156819947Y-91623034D01*
X156910448Y-91476311D01*
X156910453Y-91476300D01*
X156964680Y-91312652D01*
X156974999Y-91211654D01*
X156975000Y-91211641D01*
X156975000Y-91112500D01*
X156250000Y-91112500D01*
X156250000Y-91899999D01*
X155750000Y-91899999D01*
X155750000Y-91112500D01*
X155025001Y-91112500D01*
X155025001Y-91211654D01*
X153530424Y-91211654D01*
X153596789Y-91145289D01*
X153684394Y-91014179D01*
X153700731Y-90974739D01*
X153736762Y-90887751D01*
X153744737Y-90868497D01*
X153775500Y-90713842D01*
X153775500Y-90556158D01*
X153775500Y-90556155D01*
X153775499Y-90556153D01*
X153744738Y-90401510D01*
X153744737Y-90401503D01*
X153708127Y-90313117D01*
X153684397Y-90255827D01*
X153684390Y-90255814D01*
X153596789Y-90124711D01*
X153596786Y-90124707D01*
X153559760Y-90087681D01*
X153526275Y-90026358D01*
X153531259Y-89956666D01*
X153559760Y-89912319D01*
X153596786Y-89875292D01*
X153596789Y-89875289D01*
X153684394Y-89744179D01*
X153744737Y-89598497D01*
X153775500Y-89443842D01*
X153775500Y-89286158D01*
X153775500Y-89286155D01*
X153775499Y-89286153D01*
X153760231Y-89209397D01*
X153744737Y-89131503D01*
X153740713Y-89121789D01*
X153684397Y-88985827D01*
X153684390Y-88985814D01*
X153596398Y-88854125D01*
X153575520Y-88787447D01*
X153575500Y-88785234D01*
X153575500Y-88068444D01*
X153575499Y-88068441D01*
X153570019Y-88047988D01*
X153562381Y-88019481D01*
X153534577Y-87915716D01*
X153533557Y-87913949D01*
X153533149Y-87912268D01*
X153531465Y-87908202D01*
X153532098Y-87907939D01*
X153517081Y-87846050D01*
X153539930Y-87780022D01*
X153594850Y-87736829D01*
X153664403Y-87730184D01*
X153688390Y-87737381D01*
X153766503Y-87769737D01*
X153871418Y-87790606D01*
X153921153Y-87800499D01*
X153921156Y-87800500D01*
X153921158Y-87800500D01*
X154078844Y-87800500D01*
X154078845Y-87800499D01*
X154233497Y-87769737D01*
X154379179Y-87709394D01*
X154391451Y-87701194D01*
X154510875Y-87621398D01*
X154577553Y-87600520D01*
X154579766Y-87600500D01*
X155199903Y-87600500D01*
X155266942Y-87620185D01*
X155287584Y-87636819D01*
X155581517Y-87930752D01*
X155615002Y-87992075D01*
X155610018Y-88061767D01*
X155568146Y-88117700D01*
X155532842Y-88136138D01*
X155448484Y-88164092D01*
X155448481Y-88164093D01*
X155301648Y-88254661D01*
X155179661Y-88376648D01*
X155089093Y-88523481D01*
X155089092Y-88523484D01*
X155034826Y-88687247D01*
X155034826Y-88687248D01*
X155034825Y-88687248D01*
X155024500Y-88788315D01*
X155024500Y-89486669D01*
X155024501Y-89486687D01*
X155034825Y-89587752D01*
X155065281Y-89679660D01*
X155089092Y-89751516D01*
X155179659Y-89898349D01*
X155179661Y-89898351D01*
X155193982Y-89912672D01*
X155227467Y-89973995D01*
X155222483Y-90043687D01*
X155193985Y-90088032D01*
X155180052Y-90101965D01*
X155089551Y-90248688D01*
X155089546Y-90248699D01*
X155035319Y-90412347D01*
X155025000Y-90513345D01*
X155025000Y-90612500D01*
X156974999Y-90612500D01*
X156974999Y-90513360D01*
X156974998Y-90513345D01*
X156964680Y-90412347D01*
X156910453Y-90248699D01*
X156910448Y-90248688D01*
X156819947Y-90101965D01*
X156819944Y-90101961D01*
X156806017Y-90088034D01*
X156772532Y-90026711D01*
X156777516Y-89957019D01*
X156806017Y-89912672D01*
X156820340Y-89898350D01*
X156910908Y-89751516D01*
X156965174Y-89587753D01*
X156975500Y-89486677D01*
X156975499Y-89425098D01*
X156984143Y-89395657D01*
X156990667Y-89365671D01*
X156994420Y-89360657D01*
X156995183Y-89358060D01*
X157011818Y-89337417D01*
X157014661Y-89334574D01*
X157075984Y-89301089D01*
X157078151Y-89300638D01*
X157153052Y-89285738D01*
X157233497Y-89269737D01*
X157379179Y-89209394D01*
X157510289Y-89121789D01*
X157511942Y-89120135D01*
X157513021Y-89119546D01*
X157514993Y-89117928D01*
X157515299Y-89118301D01*
X157573259Y-89086648D01*
X157642951Y-89091627D01*
X157673938Y-89108545D01*
X157704615Y-89131510D01*
X157707668Y-89133795D01*
X157707671Y-89133797D01*
X157842517Y-89184091D01*
X157842516Y-89184091D01*
X157849444Y-89184835D01*
X157902127Y-89190500D01*
X159347872Y-89190499D01*
X159407483Y-89184091D01*
X159542331Y-89133796D01*
X159657546Y-89047546D01*
X159743796Y-88932331D01*
X159794091Y-88797483D01*
X159800500Y-88737873D01*
X159800499Y-86742128D01*
X159794091Y-86682517D01*
X159774982Y-86631284D01*
X159743797Y-86547671D01*
X159743793Y-86547664D01*
X159657547Y-86432455D01*
X159657544Y-86432452D01*
X159542335Y-86346206D01*
X159542328Y-86346202D01*
X159407482Y-86295908D01*
X159407483Y-86295908D01*
X159347883Y-86289501D01*
X159347881Y-86289500D01*
X159347873Y-86289500D01*
X159347864Y-86289500D01*
X157902129Y-86289500D01*
X157902123Y-86289501D01*
X157842516Y-86295908D01*
X157707671Y-86346202D01*
X157707664Y-86346206D01*
X157592455Y-86432452D01*
X157592452Y-86432455D01*
X157506206Y-86547664D01*
X157506202Y-86547671D01*
X157455908Y-86682517D01*
X157449501Y-86742116D01*
X157449501Y-86742123D01*
X157449500Y-86742135D01*
X157449500Y-87634155D01*
X157429815Y-87701194D01*
X157377011Y-87746949D01*
X157307853Y-87756893D01*
X157295111Y-87754374D01*
X157286375Y-87752165D01*
X157233497Y-87730263D01*
X157078842Y-87699500D01*
X157078030Y-87699500D01*
X157071954Y-87697964D01*
X157044486Y-87681751D01*
X157016241Y-87666977D01*
X157014660Y-87665425D01*
X157008926Y-87659691D01*
X156980521Y-87631285D01*
X156980520Y-87631284D01*
X155987589Y-86638354D01*
X155987588Y-86638352D01*
X155868716Y-86519480D01*
X155868714Y-86519479D01*
X155781904Y-86469360D01*
X155781904Y-86469359D01*
X155781900Y-86469358D01*
X155731785Y-86440423D01*
X155579057Y-86399499D01*
X155420943Y-86399499D01*
X155413347Y-86399499D01*
X155413331Y-86399500D01*
X155299279Y-86399500D01*
X155232240Y-86379815D01*
X155186485Y-86327011D01*
X155176541Y-86257853D01*
X155205566Y-86194297D01*
X155211598Y-86187819D01*
X155325335Y-86074081D01*
X155325336Y-86074080D01*
X155408572Y-85936392D01*
X155456432Y-85782802D01*
X155456435Y-85782792D01*
X155459414Y-85750000D01*
X154274000Y-85750000D01*
X154206961Y-85730315D01*
X154161206Y-85677511D01*
X154150000Y-85626000D01*
X154150000Y-85374000D01*
X154169685Y-85306961D01*
X154222489Y-85261206D01*
X154274000Y-85250000D01*
X155459415Y-85250000D01*
X155459414Y-85249999D01*
X155456435Y-85217207D01*
X155456432Y-85217193D01*
X155408572Y-85063606D01*
X155408571Y-85063604D01*
X155327582Y-84929634D01*
X155309745Y-84862079D01*
X155327580Y-84801336D01*
X155409031Y-84666602D01*
X155456930Y-84512887D01*
X155463000Y-84446091D01*
X155462999Y-84013910D01*
X155462999Y-84013909D01*
X155462999Y-84013901D01*
X155456931Y-83947117D01*
X155456928Y-83947106D01*
X155409032Y-83793401D01*
X155409031Y-83793400D01*
X155409031Y-83793398D01*
X155327873Y-83659147D01*
X155310038Y-83591596D01*
X155327873Y-83530852D01*
X155409031Y-83396602D01*
X155456930Y-83242887D01*
X155463000Y-83176091D01*
X155462999Y-82743910D01*
X155462999Y-82743909D01*
X155462999Y-82743901D01*
X155456931Y-82677117D01*
X155456928Y-82677106D01*
X155409032Y-82523401D01*
X155409031Y-82523400D01*
X155409031Y-82523398D01*
X155327873Y-82389147D01*
X155310038Y-82321596D01*
X155327873Y-82260852D01*
X155409031Y-82126602D01*
X155456930Y-81972887D01*
X155463000Y-81906091D01*
X155462999Y-81473910D01*
X155462999Y-81473909D01*
X155462999Y-81473901D01*
X155456931Y-81407117D01*
X155456928Y-81407106D01*
X155409032Y-81253401D01*
X155409031Y-81253400D01*
X155409031Y-81253398D01*
X155325736Y-81115612D01*
X155325734Y-81115610D01*
X155325733Y-81115608D01*
X155211891Y-81001766D01*
X155133702Y-80954499D01*
X155074102Y-80918469D01*
X154920387Y-80870570D01*
X154920385Y-80870569D01*
X154920383Y-80870569D01*
X154873617Y-80866319D01*
X154853591Y-80864500D01*
X154853588Y-80864500D01*
X153446401Y-80864500D01*
X153379617Y-80870568D01*
X153379606Y-80870571D01*
X153225901Y-80918467D01*
X153088108Y-81001766D01*
X152974266Y-81115608D01*
X152890969Y-81253397D01*
X152843069Y-81407116D01*
X152839522Y-81446156D01*
X152837127Y-81472517D01*
X152837000Y-81473911D01*
X152837000Y-81906098D01*
X152843068Y-81972882D01*
X152843071Y-81972893D01*
X152890967Y-82126599D01*
X152972125Y-82260850D01*
X152989961Y-82328405D01*
X152972125Y-82389150D01*
X152890969Y-82523397D01*
X152843069Y-82677116D01*
X152837000Y-82743911D01*
X152837000Y-83176098D01*
X152843068Y-83242882D01*
X152843071Y-83242893D01*
X152890967Y-83396599D01*
X152972125Y-83530850D01*
X152989961Y-83598405D01*
X152972125Y-83659150D01*
X152890969Y-83793397D01*
X152843069Y-83947116D01*
X152837000Y-84013911D01*
X152837000Y-84446098D01*
X152843068Y-84512882D01*
X152843071Y-84512893D01*
X152890967Y-84666598D01*
X152890968Y-84666600D01*
X152890969Y-84666602D01*
X152936068Y-84741204D01*
X152953904Y-84808759D01*
X152932386Y-84875232D01*
X152878346Y-84919520D01*
X152808941Y-84927561D01*
X152746206Y-84896802D01*
X152742270Y-84893035D01*
X150283740Y-82434505D01*
X150250255Y-82373182D01*
X150255239Y-82303490D01*
X150297111Y-82247557D01*
X150323969Y-82232263D01*
X150379172Y-82209397D01*
X150379172Y-82209396D01*
X150379179Y-82209394D01*
X150510289Y-82121789D01*
X150621789Y-82010289D01*
X150709394Y-81879179D01*
X150769737Y-81733497D01*
X150800500Y-81578842D01*
X150800500Y-81421158D01*
X150800500Y-81421155D01*
X150800499Y-81421153D01*
X150794638Y-81391688D01*
X150769737Y-81266503D01*
X150764308Y-81253397D01*
X150709397Y-81120827D01*
X150709390Y-81120814D01*
X150621789Y-80989711D01*
X150621786Y-80989707D01*
X150510292Y-80878213D01*
X150510288Y-80878210D01*
X150434548Y-80827602D01*
X150389743Y-80773990D01*
X150389510Y-80772135D01*
X157449500Y-80772135D01*
X157449500Y-82767870D01*
X157449501Y-82767876D01*
X157455908Y-82827483D01*
X157506202Y-82962328D01*
X157506206Y-82962335D01*
X157592452Y-83077544D01*
X157592455Y-83077547D01*
X157707664Y-83163793D01*
X157707671Y-83163797D01*
X157842517Y-83214091D01*
X157842516Y-83214091D01*
X157849444Y-83214835D01*
X157902127Y-83220500D01*
X159347872Y-83220499D01*
X159407483Y-83214091D01*
X159542331Y-83163796D01*
X159657546Y-83077546D01*
X159743796Y-82962331D01*
X159794091Y-82827483D01*
X159800500Y-82767873D01*
X159800499Y-80772128D01*
X159794091Y-80712517D01*
X159792927Y-80709397D01*
X159743797Y-80577671D01*
X159743793Y-80577664D01*
X159657547Y-80462455D01*
X159657544Y-80462452D01*
X159542335Y-80376206D01*
X159542328Y-80376202D01*
X159407482Y-80325908D01*
X159407483Y-80325908D01*
X159347883Y-80319501D01*
X159347881Y-80319500D01*
X159347873Y-80319500D01*
X159347864Y-80319500D01*
X157902129Y-80319500D01*
X157902123Y-80319501D01*
X157842516Y-80325908D01*
X157707671Y-80376202D01*
X157707664Y-80376206D01*
X157592455Y-80462452D01*
X157592452Y-80462455D01*
X157506206Y-80577664D01*
X157506202Y-80577671D01*
X157455908Y-80712517D01*
X157449501Y-80772116D01*
X157449501Y-80772123D01*
X157449500Y-80772135D01*
X150389510Y-80772135D01*
X150381036Y-80704665D01*
X150411190Y-80641637D01*
X150470634Y-80604918D01*
X150503439Y-80600500D01*
X155913331Y-80600500D01*
X155913347Y-80600501D01*
X155920943Y-80600501D01*
X156079054Y-80600501D01*
X156079057Y-80600501D01*
X156231785Y-80559577D01*
X156281904Y-80530639D01*
X156368716Y-80480520D01*
X156480520Y-80368716D01*
X156480520Y-80368714D01*
X156490728Y-80358507D01*
X156490729Y-80358504D01*
X158014662Y-78834572D01*
X158075983Y-78801089D01*
X158078150Y-78800638D01*
X158136085Y-78789113D01*
X158233497Y-78769737D01*
X158379179Y-78709394D01*
X158510289Y-78621789D01*
X158621789Y-78510289D01*
X158709394Y-78379179D01*
X158769737Y-78233497D01*
X158800500Y-78078842D01*
X158800500Y-77921158D01*
X158800500Y-77921155D01*
X158800499Y-77921153D01*
X158792276Y-77879815D01*
X158769737Y-77766503D01*
X158746060Y-77709342D01*
X158718521Y-77642855D01*
X158718520Y-77642853D01*
X158711125Y-77625000D01*
X163403374Y-77625000D01*
X163414478Y-77709340D01*
X163414478Y-77709342D01*
X163471156Y-77846175D01*
X163561320Y-77963679D01*
X163678824Y-78053843D01*
X163815658Y-78110521D01*
X163925622Y-78124999D01*
X163925637Y-78125000D01*
X163955000Y-78125000D01*
X163955000Y-77625000D01*
X163403374Y-77625000D01*
X158711125Y-77625000D01*
X158709394Y-77620821D01*
X158621789Y-77489711D01*
X158620580Y-77488502D01*
X158620579Y-77488500D01*
X158510292Y-77378213D01*
X158510288Y-77378210D01*
X158505484Y-77375000D01*
X163403373Y-77375000D01*
X163955000Y-77375000D01*
X163955000Y-76875000D01*
X164205000Y-76875000D01*
X164205000Y-78125000D01*
X164234363Y-78125000D01*
X164234377Y-78124999D01*
X164344340Y-78110522D01*
X164451893Y-78065971D01*
X164521363Y-78058502D01*
X164546789Y-78065967D01*
X164655528Y-78111009D01*
X164765599Y-78125500D01*
X165074400Y-78125499D01*
X165074403Y-78125499D01*
X165184463Y-78111011D01*
X165184466Y-78111009D01*
X165184472Y-78111009D01*
X165187058Y-78109938D01*
X165195233Y-78108311D01*
X165199573Y-78105523D01*
X165234508Y-78100500D01*
X165275500Y-78100500D01*
X165342539Y-78120185D01*
X165388294Y-78172989D01*
X165399500Y-78224500D01*
X165399500Y-83618330D01*
X165399499Y-83618348D01*
X165399499Y-83784054D01*
X165399498Y-83784054D01*
X165399499Y-83784057D01*
X165436234Y-83921153D01*
X165440423Y-83936784D01*
X165440424Y-83936788D01*
X165446383Y-83947109D01*
X165446386Y-83947113D01*
X165519477Y-84073712D01*
X165519481Y-84073717D01*
X165638349Y-84192585D01*
X165638354Y-84192589D01*
X168331284Y-86885520D01*
X168340433Y-86890802D01*
X168388649Y-86941369D01*
X168401873Y-87009976D01*
X168401724Y-87011443D01*
X168399500Y-87032130D01*
X168399500Y-87977870D01*
X168399501Y-87977879D01*
X168406367Y-88041751D01*
X168406367Y-88068257D01*
X168405909Y-88072516D01*
X168405909Y-88072517D01*
X168399500Y-88132127D01*
X168399500Y-88132128D01*
X168399500Y-88132132D01*
X168399500Y-89077870D01*
X168399501Y-89077876D01*
X168405908Y-89137483D01*
X168456202Y-89272328D01*
X168456206Y-89272335D01*
X168542452Y-89387544D01*
X168542455Y-89387547D01*
X168657664Y-89473793D01*
X168657671Y-89473797D01*
X168792517Y-89524091D01*
X168792516Y-89524091D01*
X168796321Y-89524500D01*
X168852127Y-89530500D01*
X170047872Y-89530499D01*
X170107483Y-89524091D01*
X170242331Y-89473796D01*
X170357546Y-89387546D01*
X170443796Y-89272331D01*
X170494091Y-89137483D01*
X170500500Y-89077873D01*
X170500499Y-88132128D01*
X170494091Y-88072517D01*
X170494089Y-88072513D01*
X170493632Y-88068255D01*
X170493633Y-88041745D01*
X170496026Y-88019481D01*
X170500500Y-87977873D01*
X170500499Y-87032128D01*
X170494091Y-86972517D01*
X170494089Y-86972513D01*
X170493632Y-86968255D01*
X170493633Y-86941745D01*
X170495109Y-86928016D01*
X170500500Y-86877873D01*
X170500499Y-85932128D01*
X170494091Y-85872517D01*
X170494089Y-85872513D01*
X170493632Y-85868255D01*
X170493022Y-85850030D01*
X170493457Y-85839182D01*
X170494091Y-85837483D01*
X170500500Y-85777873D01*
X170500499Y-85663603D01*
X170500599Y-85661128D01*
X170511011Y-85630294D01*
X170520183Y-85599059D01*
X170522130Y-85597371D01*
X170522954Y-85594932D01*
X170548381Y-85574625D01*
X170572987Y-85553304D01*
X170575537Y-85552937D01*
X170577550Y-85551330D01*
X170609923Y-85547992D01*
X170642145Y-85543360D01*
X170645620Y-85544313D01*
X170647051Y-85544166D01*
X170649380Y-85545344D01*
X170671952Y-85551537D01*
X170678570Y-85554278D01*
X170678571Y-85554279D01*
X170815528Y-85611009D01*
X170925599Y-85625500D01*
X171234400Y-85625499D01*
X171234403Y-85625499D01*
X171344463Y-85611011D01*
X171344466Y-85611009D01*
X171344472Y-85611009D01*
X171453200Y-85565971D01*
X171522668Y-85558503D01*
X171548105Y-85565972D01*
X171655658Y-85610521D01*
X171765622Y-85624999D01*
X171765637Y-85625000D01*
X171795000Y-85625000D01*
X172045000Y-85625000D01*
X172074363Y-85625000D01*
X172074377Y-85624999D01*
X172184341Y-85610521D01*
X172184342Y-85610521D01*
X172321175Y-85553843D01*
X172438679Y-85463679D01*
X172528843Y-85346175D01*
X172585521Y-85209342D01*
X172585521Y-85209340D01*
X172596626Y-85125000D01*
X172045000Y-85125000D01*
X172045000Y-85625000D01*
X171795000Y-85625000D01*
X171795000Y-84875000D01*
X172045000Y-84875000D01*
X172596626Y-84875000D01*
X172585521Y-84790659D01*
X172585521Y-84790657D01*
X172528843Y-84653824D01*
X172438679Y-84536320D01*
X172321175Y-84446156D01*
X172184341Y-84389478D01*
X172074377Y-84375000D01*
X172045000Y-84375000D01*
X172045000Y-84875000D01*
X171795000Y-84875000D01*
X171795000Y-84375000D01*
X171765622Y-84375000D01*
X171655658Y-84389478D01*
X171655654Y-84389479D01*
X171548104Y-84434027D01*
X171518268Y-84437234D01*
X171488802Y-84442898D01*
X171481806Y-84441154D01*
X171478634Y-84441496D01*
X171454507Y-84434560D01*
X171453796Y-84434275D01*
X171344472Y-84388991D01*
X171339079Y-84388280D01*
X171326661Y-84383302D01*
X171310316Y-84370434D01*
X171285125Y-84355889D01*
X170772590Y-83843355D01*
X170772588Y-83843352D01*
X170653717Y-83724481D01*
X170653709Y-83724475D01*
X170562001Y-83671528D01*
X170513785Y-83620962D01*
X170500000Y-83564141D01*
X170500000Y-83355000D01*
X170308403Y-83355000D01*
X170248975Y-83339832D01*
X170242328Y-83336202D01*
X170107482Y-83285908D01*
X170107483Y-83285908D01*
X170047883Y-83279501D01*
X170047881Y-83279500D01*
X170047873Y-83279500D01*
X170047865Y-83279500D01*
X168852129Y-83279500D01*
X168852123Y-83279501D01*
X168792516Y-83285908D01*
X168657671Y-83336202D01*
X168651025Y-83339832D01*
X168591597Y-83355000D01*
X168400000Y-83355000D01*
X168400000Y-83577844D01*
X168406619Y-83639398D01*
X168406620Y-83665909D01*
X168405909Y-83672514D01*
X168405909Y-83672517D01*
X168399500Y-83732127D01*
X168399500Y-83732134D01*
X168399500Y-83732135D01*
X168399500Y-84677870D01*
X168399501Y-84677879D01*
X168406367Y-84741751D01*
X168406989Y-84759676D01*
X168406571Y-84770740D01*
X168405909Y-84772517D01*
X168399500Y-84832127D01*
X168399500Y-84958241D01*
X168399412Y-84960575D01*
X168389022Y-84991582D01*
X168379815Y-85022941D01*
X168377985Y-85024526D01*
X168377215Y-85026825D01*
X168351702Y-85047300D01*
X168327011Y-85068696D01*
X168324614Y-85069040D01*
X168322724Y-85070558D01*
X168290197Y-85073989D01*
X168257853Y-85078640D01*
X168255649Y-85077633D01*
X168253240Y-85077888D01*
X168224034Y-85063195D01*
X168194297Y-85049615D01*
X168191074Y-85046614D01*
X168190823Y-85046488D01*
X168190681Y-85046248D01*
X168187819Y-85043583D01*
X166636819Y-83492583D01*
X166603334Y-83431260D01*
X166600500Y-83404902D01*
X166600500Y-79112135D01*
X167699500Y-79112135D01*
X167699500Y-80377870D01*
X167699501Y-80377876D01*
X167705908Y-80437483D01*
X167756202Y-80572328D01*
X167756206Y-80572335D01*
X167842452Y-80687544D01*
X167842455Y-80687547D01*
X167957664Y-80773793D01*
X167957671Y-80773797D01*
X167993478Y-80787152D01*
X168092517Y-80824091D01*
X168152127Y-80830500D01*
X168275500Y-80830499D01*
X168342539Y-80850183D01*
X168388294Y-80902987D01*
X168399500Y-80954499D01*
X168399500Y-81377870D01*
X168399501Y-81377879D01*
X168406367Y-81441751D01*
X168406367Y-81468257D01*
X168405909Y-81472516D01*
X168405909Y-81472517D01*
X168399500Y-81532127D01*
X168399500Y-81532131D01*
X168399500Y-81532132D01*
X168399500Y-82477870D01*
X168399501Y-82477876D01*
X168406619Y-82544092D01*
X168406619Y-82570599D01*
X168400000Y-82632169D01*
X168400000Y-82855000D01*
X168591597Y-82855000D01*
X168651025Y-82870168D01*
X168657671Y-82873797D01*
X168702618Y-82890561D01*
X168792517Y-82924091D01*
X168852127Y-82930500D01*
X170047872Y-82930499D01*
X170107483Y-82924091D01*
X170242331Y-82873796D01*
X170242334Y-82873793D01*
X170248975Y-82870168D01*
X170308403Y-82855000D01*
X170500000Y-82855000D01*
X170500000Y-82724500D01*
X170502550Y-82715814D01*
X170501262Y-82706853D01*
X170512240Y-82682812D01*
X170519685Y-82657461D01*
X170526525Y-82651533D01*
X170530287Y-82643297D01*
X170552521Y-82629007D01*
X170572489Y-82611706D01*
X170583003Y-82609418D01*
X170589065Y-82605523D01*
X170624000Y-82600500D01*
X170845492Y-82600500D01*
X170892942Y-82609938D01*
X170895528Y-82611009D01*
X171005599Y-82625500D01*
X171314400Y-82625499D01*
X171314403Y-82625499D01*
X171424463Y-82611011D01*
X171424466Y-82611009D01*
X171424472Y-82611009D01*
X171533200Y-82565971D01*
X171602668Y-82558503D01*
X171628105Y-82565972D01*
X171735658Y-82610521D01*
X171845622Y-82624999D01*
X171845637Y-82625000D01*
X171875000Y-82625000D01*
X172125000Y-82625000D01*
X172154363Y-82625000D01*
X172154377Y-82624999D01*
X172264341Y-82610521D01*
X172264342Y-82610521D01*
X172401175Y-82553843D01*
X172518679Y-82463679D01*
X172608843Y-82346175D01*
X172665521Y-82209342D01*
X172665521Y-82209340D01*
X172676626Y-82125000D01*
X172125000Y-82125000D01*
X172125000Y-82625000D01*
X171875000Y-82625000D01*
X171875000Y-81875000D01*
X172125000Y-81875000D01*
X172676626Y-81875000D01*
X172665521Y-81790659D01*
X172665521Y-81790657D01*
X172608843Y-81653824D01*
X172518679Y-81536320D01*
X172401175Y-81446156D01*
X172264341Y-81389478D01*
X172154377Y-81375000D01*
X172125000Y-81375000D01*
X172125000Y-81875000D01*
X171875000Y-81875000D01*
X171875000Y-81375000D01*
X171845622Y-81375000D01*
X171735658Y-81389478D01*
X171735654Y-81389479D01*
X171628104Y-81434027D01*
X171558634Y-81441496D01*
X171533200Y-81434027D01*
X171424475Y-81388992D01*
X171424470Y-81388990D01*
X171314401Y-81374500D01*
X171005596Y-81374500D01*
X170895536Y-81388988D01*
X170895525Y-81388992D01*
X170892942Y-81390062D01*
X170884766Y-81391688D01*
X170880427Y-81394477D01*
X170845492Y-81399500D01*
X170624500Y-81399500D01*
X170557461Y-81379815D01*
X170511706Y-81327011D01*
X170500500Y-81275500D01*
X170500499Y-80532129D01*
X170500499Y-80532128D01*
X170494091Y-80472517D01*
X170494089Y-80472513D01*
X170493632Y-80468255D01*
X170493633Y-80441745D01*
X170496997Y-80410453D01*
X170500500Y-80377873D01*
X170500499Y-79477187D01*
X170520183Y-79410149D01*
X170572987Y-79364394D01*
X170642146Y-79354450D01*
X170705702Y-79383475D01*
X170739060Y-79429736D01*
X170790602Y-79554172D01*
X170790609Y-79554185D01*
X170878210Y-79685288D01*
X170878213Y-79685292D01*
X170989707Y-79796786D01*
X170989711Y-79796789D01*
X171120814Y-79884390D01*
X171120827Y-79884397D01*
X171266498Y-79944735D01*
X171266503Y-79944737D01*
X171328535Y-79957076D01*
X171421145Y-79975498D01*
X171421150Y-79975498D01*
X171421158Y-79975500D01*
X171421165Y-79975500D01*
X171426365Y-79976012D01*
X171429551Y-79976863D01*
X171431318Y-79976601D01*
X171440914Y-79979898D01*
X171465227Y-79986393D01*
X171470858Y-79988934D01*
X171593216Y-80059577D01*
X171667574Y-80079501D01*
X171745942Y-80100500D01*
X171745943Y-80100500D01*
X172125099Y-80100500D01*
X172192138Y-80120185D01*
X172230638Y-80159404D01*
X172254467Y-80198038D01*
X172254660Y-80198350D01*
X172376650Y-80320340D01*
X172523484Y-80410908D01*
X172687247Y-80465174D01*
X172788323Y-80475500D01*
X173486676Y-80475499D01*
X173486684Y-80475498D01*
X173486687Y-80475498D01*
X173557591Y-80468255D01*
X173587753Y-80465174D01*
X173751516Y-80410908D01*
X173898350Y-80320340D01*
X173912671Y-80306018D01*
X173973989Y-80272533D01*
X174043681Y-80277514D01*
X174088034Y-80306017D01*
X174101961Y-80319944D01*
X174101965Y-80319947D01*
X174248688Y-80410448D01*
X174248699Y-80410453D01*
X174412347Y-80464680D01*
X174513351Y-80474999D01*
X175112500Y-80474999D01*
X175211640Y-80474999D01*
X175211654Y-80474998D01*
X175312652Y-80464680D01*
X175476300Y-80410453D01*
X175476311Y-80410448D01*
X175623034Y-80319947D01*
X175623038Y-80319944D01*
X175744944Y-80198038D01*
X175744947Y-80198034D01*
X175835448Y-80051311D01*
X175835453Y-80051300D01*
X175889680Y-79887652D01*
X175899999Y-79786654D01*
X175900000Y-79786641D01*
X175900000Y-79750000D01*
X175112500Y-79750000D01*
X175112500Y-80474999D01*
X174513351Y-80474999D01*
X174612500Y-80474998D01*
X174612500Y-79250000D01*
X175112500Y-79250000D01*
X175899999Y-79250000D01*
X175899999Y-79213360D01*
X175899998Y-79213345D01*
X175889680Y-79112347D01*
X175835453Y-78948699D01*
X175835448Y-78948688D01*
X175744947Y-78801965D01*
X175744944Y-78801961D01*
X175623038Y-78680055D01*
X175623034Y-78680052D01*
X175476311Y-78589551D01*
X175476300Y-78589546D01*
X175312652Y-78535319D01*
X175211654Y-78525000D01*
X175112500Y-78525000D01*
X175112500Y-79250000D01*
X174612500Y-79250000D01*
X174612500Y-78524999D01*
X174513360Y-78525000D01*
X174513344Y-78525001D01*
X174412347Y-78535319D01*
X174248699Y-78589546D01*
X174248688Y-78589551D01*
X174101965Y-78680052D01*
X174088032Y-78693985D01*
X174026708Y-78727468D01*
X173957016Y-78722482D01*
X173912672Y-78693982D01*
X173898351Y-78679661D01*
X173898350Y-78679660D01*
X173804521Y-78621786D01*
X173751518Y-78589093D01*
X173751513Y-78589091D01*
X173750069Y-78588612D01*
X173587753Y-78534826D01*
X173587751Y-78534825D01*
X173486678Y-78524500D01*
X172788330Y-78524500D01*
X172788312Y-78524501D01*
X172687247Y-78534825D01*
X172523484Y-78589092D01*
X172523481Y-78589093D01*
X172376648Y-78679661D01*
X172336698Y-78719611D01*
X172275375Y-78753096D01*
X172205683Y-78748110D01*
X172149750Y-78706238D01*
X172145926Y-78700834D01*
X172121789Y-78664711D01*
X172121787Y-78664708D01*
X172010292Y-78553213D01*
X172010288Y-78553210D01*
X171879185Y-78465609D01*
X171879172Y-78465602D01*
X171733501Y-78405264D01*
X171733489Y-78405261D01*
X171578845Y-78374500D01*
X171578842Y-78374500D01*
X171421158Y-78374500D01*
X171421155Y-78374500D01*
X171266510Y-78405261D01*
X171266498Y-78405264D01*
X171120827Y-78465602D01*
X171120814Y-78465609D01*
X170989711Y-78553210D01*
X170989707Y-78553213D01*
X170878213Y-78664707D01*
X170878210Y-78664711D01*
X170790609Y-78795814D01*
X170790602Y-78795827D01*
X170730264Y-78941498D01*
X170730261Y-78941508D01*
X170718910Y-78998574D01*
X170686525Y-79060485D01*
X170625809Y-79095059D01*
X170556039Y-79091318D01*
X170499367Y-79050452D01*
X170481111Y-79017715D01*
X170443797Y-78917671D01*
X170443793Y-78917664D01*
X170357547Y-78802455D01*
X170357544Y-78802452D01*
X170242335Y-78716206D01*
X170242328Y-78716202D01*
X170107482Y-78665908D01*
X170107483Y-78665908D01*
X170047883Y-78659501D01*
X170047881Y-78659500D01*
X170047873Y-78659500D01*
X170047864Y-78659500D01*
X168152129Y-78659500D01*
X168152123Y-78659501D01*
X168092516Y-78665908D01*
X167957671Y-78716202D01*
X167957664Y-78716206D01*
X167842455Y-78802452D01*
X167842452Y-78802455D01*
X167756206Y-78917664D01*
X167756202Y-78917671D01*
X167705908Y-79052517D01*
X167699501Y-79112116D01*
X167699500Y-79112135D01*
X166600500Y-79112135D01*
X166600500Y-77300097D01*
X166620185Y-77233058D01*
X166636819Y-77212416D01*
X167573966Y-76275269D01*
X168514662Y-75334572D01*
X168575983Y-75301089D01*
X168578150Y-75300638D01*
X168636085Y-75289113D01*
X168733497Y-75269737D01*
X168846166Y-75223067D01*
X168879172Y-75209397D01*
X168879172Y-75209396D01*
X168879179Y-75209394D01*
X169010289Y-75121789D01*
X169121789Y-75010289D01*
X169209394Y-74879179D01*
X169269737Y-74733497D01*
X169300500Y-74578842D01*
X169300500Y-74421158D01*
X169300500Y-74421155D01*
X169300499Y-74421153D01*
X169269738Y-74266510D01*
X169269738Y-74266508D01*
X169269737Y-74266503D01*
X169263425Y-74251264D01*
X169209397Y-74120827D01*
X169209390Y-74120814D01*
X169121789Y-73989711D01*
X169121786Y-73989707D01*
X169010292Y-73878213D01*
X169010288Y-73878210D01*
X168879185Y-73790609D01*
X168879172Y-73790602D01*
X168733501Y-73730264D01*
X168733489Y-73730261D01*
X168578845Y-73699500D01*
X168578842Y-73699500D01*
X168421158Y-73699500D01*
X168421155Y-73699500D01*
X168266510Y-73730261D01*
X168266498Y-73730264D01*
X168120827Y-73790602D01*
X168120814Y-73790609D01*
X167989711Y-73878210D01*
X167989707Y-73878213D01*
X167878213Y-73989707D01*
X167878210Y-73989711D01*
X167790609Y-74120814D01*
X167790602Y-74120827D01*
X167730264Y-74266498D01*
X167730261Y-74266508D01*
X167699361Y-74421850D01*
X167666976Y-74483761D01*
X167665425Y-74485339D01*
X165296020Y-76854744D01*
X165234697Y-76888229D01*
X165192154Y-76890002D01*
X165074401Y-76874500D01*
X164765596Y-76874500D01*
X164655536Y-76888988D01*
X164655527Y-76888991D01*
X164546800Y-76934028D01*
X164477330Y-76941497D01*
X164451894Y-76934028D01*
X164344341Y-76889478D01*
X164234377Y-76875000D01*
X164205000Y-76875000D01*
X163955000Y-76875000D01*
X163925622Y-76875000D01*
X163815658Y-76889478D01*
X163815657Y-76889478D01*
X163678824Y-76946156D01*
X163561320Y-77036320D01*
X163471156Y-77153824D01*
X163414478Y-77290657D01*
X163414478Y-77290659D01*
X163403373Y-77375000D01*
X158505484Y-77375000D01*
X158379185Y-77290609D01*
X158379172Y-77290602D01*
X158233501Y-77230264D01*
X158233489Y-77230261D01*
X158078845Y-77199500D01*
X158078842Y-77199500D01*
X157921158Y-77199500D01*
X157921155Y-77199500D01*
X157766510Y-77230261D01*
X157766498Y-77230264D01*
X157620827Y-77290602D01*
X157620814Y-77290609D01*
X157489711Y-77378210D01*
X157489707Y-77378213D01*
X157378213Y-77489707D01*
X157378210Y-77489711D01*
X157290609Y-77620814D01*
X157290602Y-77620827D01*
X157230264Y-77766498D01*
X157230261Y-77766508D01*
X157199361Y-77921850D01*
X157166976Y-77983761D01*
X157165425Y-77985339D01*
X155787584Y-79363181D01*
X155726261Y-79396666D01*
X155699903Y-79399500D01*
X154386555Y-79399500D01*
X154319516Y-79379815D01*
X154273761Y-79327011D01*
X154263817Y-79257853D01*
X154265032Y-79250840D01*
X154267412Y-79239108D01*
X154269737Y-79233497D01*
X154300500Y-79078842D01*
X154300500Y-79076056D01*
X154302291Y-79067231D01*
X154315759Y-79041722D01*
X154326557Y-79014968D01*
X154332680Y-79009677D01*
X154334915Y-79005445D01*
X154342596Y-79001109D01*
X154361818Y-78984502D01*
X154368716Y-78980520D01*
X154480520Y-78868716D01*
X154480520Y-78868714D01*
X154490724Y-78858511D01*
X154490727Y-78858506D01*
X156512416Y-76836819D01*
X156573739Y-76803334D01*
X156600097Y-76800500D01*
X156678844Y-76800500D01*
X156678845Y-76800499D01*
X156833497Y-76769737D01*
X156979179Y-76709394D01*
X157110289Y-76621789D01*
X157221789Y-76510289D01*
X157309394Y-76379179D01*
X157369737Y-76233497D01*
X157400500Y-76078842D01*
X157400500Y-75921158D01*
X157400500Y-75921155D01*
X157400499Y-75921153D01*
X157393835Y-75887652D01*
X157369737Y-75766503D01*
X157362901Y-75750000D01*
X157330988Y-75672952D01*
X157327480Y-75640327D01*
X157322811Y-75607853D01*
X157323764Y-75605765D01*
X157323519Y-75603482D01*
X157338207Y-75574139D01*
X157351836Y-75544297D01*
X157353767Y-75543055D01*
X157354795Y-75541003D01*
X157383008Y-75524264D01*
X157410614Y-75506523D01*
X157413644Y-75506087D01*
X157414884Y-75505352D01*
X157445549Y-75501500D01*
X157579431Y-75501500D01*
X157579447Y-75501501D01*
X157587043Y-75501501D01*
X157745154Y-75501501D01*
X157745157Y-75501501D01*
X157897885Y-75460577D01*
X157966160Y-75421158D01*
X158034816Y-75381520D01*
X158146620Y-75269716D01*
X158146620Y-75269714D01*
X158156824Y-75259511D01*
X158156827Y-75259506D01*
X161629680Y-71786654D01*
X162100001Y-71786654D01*
X162110319Y-71887652D01*
X162164546Y-72051300D01*
X162164551Y-72051311D01*
X162255052Y-72198034D01*
X162255055Y-72198038D01*
X162376961Y-72319944D01*
X162376965Y-72319947D01*
X162523688Y-72410448D01*
X162523699Y-72410453D01*
X162687347Y-72464680D01*
X162788351Y-72474999D01*
X162887500Y-72474998D01*
X162887500Y-71750000D01*
X162100001Y-71750000D01*
X162100001Y-71786654D01*
X161629680Y-71786654D01*
X162130016Y-71286318D01*
X162191338Y-71252834D01*
X162217696Y-71250000D01*
X162887500Y-71250000D01*
X162887500Y-70580196D01*
X162896144Y-70550755D01*
X162901747Y-70525000D01*
X163387500Y-70525000D01*
X163387500Y-72474999D01*
X163486640Y-72474999D01*
X163486654Y-72474998D01*
X163587652Y-72464680D01*
X163751300Y-72410453D01*
X163751311Y-72410448D01*
X163898035Y-72319947D01*
X163911960Y-72306021D01*
X163973282Y-72272533D01*
X164042973Y-72277514D01*
X164087327Y-72306017D01*
X164101650Y-72320340D01*
X164248484Y-72410908D01*
X164412247Y-72465174D01*
X164513323Y-72475500D01*
X165211676Y-72475499D01*
X165211684Y-72475498D01*
X165211687Y-72475498D01*
X165267030Y-72469844D01*
X165312753Y-72465174D01*
X165476516Y-72410908D01*
X165623350Y-72320340D01*
X165745340Y-72198350D01*
X165769362Y-72159404D01*
X165821310Y-72112679D01*
X165874901Y-72100500D01*
X166717362Y-72100500D01*
X166764814Y-72109939D01*
X166878998Y-72157235D01*
X166879003Y-72157237D01*
X167006923Y-72182682D01*
X167033653Y-72187999D01*
X167033656Y-72188000D01*
X167033658Y-72188000D01*
X167191344Y-72188000D01*
X167191345Y-72187999D01*
X167345997Y-72157237D01*
X167491679Y-72096894D01*
X167622789Y-72009289D01*
X167734289Y-71897789D01*
X167821894Y-71766679D01*
X167832857Y-71740213D01*
X167844686Y-71711654D01*
X167882237Y-71620997D01*
X167913000Y-71466342D01*
X167913000Y-71308658D01*
X167913000Y-71308655D01*
X167912999Y-71308653D01*
X167901896Y-71252834D01*
X167882237Y-71154003D01*
X167823975Y-71013345D01*
X167821897Y-71008327D01*
X167821890Y-71008314D01*
X167734289Y-70877211D01*
X167734286Y-70877207D01*
X167622792Y-70765713D01*
X167622788Y-70765710D01*
X167491685Y-70678109D01*
X167491672Y-70678102D01*
X167346001Y-70617764D01*
X167345989Y-70617761D01*
X167191345Y-70587000D01*
X167191342Y-70587000D01*
X167033658Y-70587000D01*
X167033655Y-70587000D01*
X166879010Y-70617761D01*
X166878998Y-70617764D01*
X166733327Y-70678102D01*
X166733314Y-70678109D01*
X166602211Y-70765710D01*
X166602207Y-70765713D01*
X166504740Y-70863181D01*
X166443417Y-70896666D01*
X166417059Y-70899500D01*
X165874901Y-70899500D01*
X165807862Y-70879815D01*
X165769362Y-70840596D01*
X165745340Y-70801650D01*
X165623351Y-70679661D01*
X165623350Y-70679660D01*
X165511885Y-70610908D01*
X165476518Y-70589093D01*
X165476513Y-70589091D01*
X165470203Y-70587000D01*
X165312753Y-70534826D01*
X165312751Y-70534825D01*
X165211678Y-70524500D01*
X164513330Y-70524500D01*
X164513312Y-70524501D01*
X164412247Y-70534825D01*
X164248484Y-70589092D01*
X164248481Y-70589093D01*
X164101648Y-70679661D01*
X164087325Y-70693984D01*
X164026001Y-70727468D01*
X163956309Y-70722482D01*
X163911965Y-70693982D01*
X163898038Y-70680055D01*
X163898034Y-70680052D01*
X163751311Y-70589551D01*
X163751300Y-70589546D01*
X163587652Y-70535319D01*
X163486654Y-70525000D01*
X163387500Y-70525000D01*
X162901747Y-70525000D01*
X162902668Y-70520769D01*
X162906422Y-70515753D01*
X162907185Y-70513157D01*
X162923816Y-70492517D01*
X165921958Y-67494377D01*
X169875000Y-67494377D01*
X169889478Y-67604341D01*
X169889478Y-67604342D01*
X169946156Y-67741175D01*
X170036320Y-67858679D01*
X170153824Y-67948843D01*
X170290657Y-68005521D01*
X170290665Y-68005523D01*
X170374998Y-68016625D01*
X170375000Y-68016624D01*
X170375000Y-67465000D01*
X169875000Y-67465000D01*
X169875000Y-67494377D01*
X165921958Y-67494377D01*
X166515272Y-66901063D01*
X166576595Y-66867578D01*
X166602953Y-66864744D01*
X168381300Y-66864744D01*
X168448339Y-66884429D01*
X168468981Y-66901063D01*
X168489707Y-66921789D01*
X168489711Y-66921792D01*
X168620814Y-67009393D01*
X168620827Y-67009400D01*
X168722506Y-67051516D01*
X168766503Y-67069740D01*
X168916287Y-67099534D01*
X168921153Y-67100502D01*
X168921156Y-67100503D01*
X168921158Y-67100503D01*
X169078844Y-67100503D01*
X169078845Y-67100502D01*
X169233497Y-67069740D01*
X169379179Y-67009397D01*
X169510289Y-66921792D01*
X169621789Y-66810292D01*
X169669568Y-66738784D01*
X169677365Y-66732268D01*
X169681915Y-66723180D01*
X169703723Y-66710240D01*
X169723179Y-66693981D01*
X169733262Y-66692714D01*
X169742004Y-66687528D01*
X169767345Y-66688433D01*
X169792504Y-66685273D01*
X169801672Y-66689659D01*
X169811829Y-66690022D01*
X169832657Y-66704483D01*
X169855532Y-66715427D01*
X169862401Y-66725134D01*
X169869222Y-66729870D01*
X169887231Y-66760223D01*
X169934027Y-66873199D01*
X169941496Y-66942669D01*
X169934027Y-66968104D01*
X169889479Y-67075654D01*
X169889478Y-67075658D01*
X169875000Y-67185622D01*
X169875000Y-67215000D01*
X170376000Y-67215000D01*
X170384685Y-67217550D01*
X170393647Y-67216262D01*
X170417687Y-67227240D01*
X170443039Y-67234685D01*
X170448966Y-67241525D01*
X170457203Y-67245287D01*
X170471492Y-67267521D01*
X170488794Y-67287489D01*
X170491081Y-67298003D01*
X170494977Y-67304065D01*
X170500000Y-67339000D01*
X170500000Y-67340000D01*
X170501000Y-67340000D01*
X170568039Y-67359685D01*
X170613794Y-67412489D01*
X170625000Y-67464000D01*
X170625000Y-68016624D01*
X170625001Y-68016625D01*
X170709334Y-68005523D01*
X170709342Y-68005521D01*
X170846176Y-67948843D01*
X170884972Y-67919073D01*
X170950141Y-67893877D01*
X171018586Y-67907914D01*
X171068577Y-67956727D01*
X171084242Y-68024818D01*
X171078167Y-68056450D01*
X171034826Y-68187244D01*
X171034825Y-68187248D01*
X171024500Y-68288315D01*
X171024500Y-68886669D01*
X171024501Y-68886687D01*
X171034825Y-68987752D01*
X171051145Y-69037000D01*
X171089092Y-69151516D01*
X171174885Y-69290609D01*
X171179661Y-69298351D01*
X171293982Y-69412672D01*
X171298320Y-69420617D01*
X171305568Y-69426043D01*
X171314802Y-69450802D01*
X171327467Y-69473995D01*
X171326821Y-69483024D01*
X171329985Y-69491507D01*
X171324368Y-69517327D01*
X171322483Y-69543687D01*
X171316664Y-69552740D01*
X171315133Y-69559780D01*
X171293982Y-69588034D01*
X171219024Y-69662992D01*
X171157701Y-69696477D01*
X171088009Y-69691493D01*
X171032967Y-69650797D01*
X171009960Y-69620814D01*
X170975189Y-69575499D01*
X170964037Y-69560965D01*
X170941520Y-69543687D01*
X170846429Y-69470721D01*
X170846425Y-69470719D01*
X170709472Y-69413991D01*
X170709470Y-69413990D01*
X170599401Y-69399500D01*
X170400596Y-69399500D01*
X170290536Y-69413988D01*
X170290527Y-69413991D01*
X170155164Y-69470061D01*
X170107711Y-69479500D01*
X169456669Y-69479500D01*
X169456653Y-69479499D01*
X169449057Y-69479499D01*
X169290943Y-69479499D01*
X169183587Y-69508265D01*
X169138210Y-69520424D01*
X169138209Y-69520425D01*
X169091602Y-69547334D01*
X169091588Y-69547342D01*
X169088095Y-69549360D01*
X169001284Y-69599480D01*
X168976691Y-69624072D01*
X168966520Y-69630865D01*
X168944375Y-69637792D01*
X168924011Y-69648912D01*
X168921848Y-69649362D01*
X168766508Y-69680261D01*
X168766498Y-69680264D01*
X168620827Y-69740602D01*
X168620814Y-69740609D01*
X168489711Y-69828210D01*
X168489707Y-69828213D01*
X168378213Y-69939707D01*
X168378210Y-69939711D01*
X168290609Y-70070814D01*
X168290602Y-70070827D01*
X168230264Y-70216498D01*
X168230261Y-70216510D01*
X168199500Y-70371153D01*
X168199500Y-70528846D01*
X168230261Y-70683489D01*
X168230264Y-70683501D01*
X168290602Y-70829172D01*
X168290609Y-70829185D01*
X168378210Y-70960288D01*
X168378213Y-70960292D01*
X168489707Y-71071786D01*
X168489711Y-71071789D01*
X168620814Y-71159390D01*
X168620827Y-71159397D01*
X168751018Y-71213323D01*
X168766503Y-71219737D01*
X168918644Y-71250000D01*
X168921153Y-71250499D01*
X168921156Y-71250500D01*
X168921158Y-71250500D01*
X169078844Y-71250500D01*
X169078845Y-71250499D01*
X169233497Y-71219737D01*
X169379179Y-71159394D01*
X169506416Y-71074377D01*
X169875000Y-71074377D01*
X169889478Y-71184341D01*
X169889478Y-71184342D01*
X169946156Y-71321175D01*
X170036320Y-71438679D01*
X170153824Y-71528843D01*
X170290657Y-71585521D01*
X170290665Y-71585523D01*
X170374998Y-71596625D01*
X170375000Y-71596624D01*
X170375000Y-71045000D01*
X169875000Y-71045000D01*
X169875000Y-71074377D01*
X169506416Y-71074377D01*
X169510289Y-71071789D01*
X169621789Y-70960289D01*
X169705474Y-70835044D01*
X169759084Y-70790241D01*
X169828409Y-70781534D01*
X169856556Y-70795000D01*
X170376000Y-70795000D01*
X170384685Y-70797550D01*
X170393647Y-70796262D01*
X170417687Y-70807240D01*
X170443039Y-70814685D01*
X170448966Y-70821525D01*
X170457203Y-70825287D01*
X170471492Y-70847521D01*
X170488794Y-70867489D01*
X170491081Y-70878003D01*
X170494977Y-70884065D01*
X170500000Y-70919000D01*
X170500000Y-70920000D01*
X170501000Y-70920000D01*
X170568039Y-70939685D01*
X170613794Y-70992489D01*
X170625000Y-71044000D01*
X170625000Y-71596624D01*
X170625001Y-71596625D01*
X170709334Y-71585523D01*
X170709342Y-71585521D01*
X170846175Y-71528843D01*
X170963679Y-71438679D01*
X171053844Y-71321174D01*
X171077825Y-71263279D01*
X171121665Y-71208875D01*
X171187959Y-71186810D01*
X171255659Y-71204089D01*
X171280067Y-71223050D01*
X171301961Y-71244944D01*
X171301965Y-71244947D01*
X171448688Y-71335448D01*
X171448699Y-71335453D01*
X171612347Y-71389680D01*
X171713352Y-71399999D01*
X171750000Y-71399999D01*
X172250000Y-71399999D01*
X172286640Y-71399999D01*
X172286654Y-71399998D01*
X172387652Y-71389680D01*
X172551300Y-71335453D01*
X172551311Y-71335448D01*
X172698034Y-71244947D01*
X172698038Y-71244944D01*
X172819944Y-71123038D01*
X172819947Y-71123034D01*
X172910448Y-70976311D01*
X172910453Y-70976300D01*
X172964680Y-70812652D01*
X172974999Y-70711654D01*
X172975000Y-70711641D01*
X172975000Y-70662500D01*
X172250000Y-70662500D01*
X172250000Y-71399999D01*
X171750000Y-71399999D01*
X171750000Y-70536500D01*
X171769685Y-70469461D01*
X171822489Y-70423706D01*
X171874000Y-70412500D01*
X172000000Y-70412500D01*
X172000000Y-70286500D01*
X172019685Y-70219461D01*
X172072489Y-70173706D01*
X172124000Y-70162500D01*
X172974999Y-70162500D01*
X172974999Y-70113360D01*
X172974998Y-70113345D01*
X172968672Y-70051421D01*
X172981441Y-69982728D01*
X173029322Y-69931844D01*
X173097112Y-69914923D01*
X173160921Y-69935717D01*
X173296315Y-70026185D01*
X173296328Y-70026192D01*
X173478306Y-70101569D01*
X173478318Y-70101572D01*
X173671504Y-70139999D01*
X173671508Y-70140000D01*
X174070000Y-70140000D01*
X174070000Y-69440000D01*
X174570000Y-69440000D01*
X174570000Y-70140000D01*
X174968492Y-70140000D01*
X174968495Y-70139999D01*
X175161681Y-70101572D01*
X175161693Y-70101569D01*
X175343671Y-70026192D01*
X175343684Y-70026185D01*
X175507462Y-69916751D01*
X175507466Y-69916748D01*
X175646748Y-69777466D01*
X175646751Y-69777462D01*
X175756185Y-69613684D01*
X175756192Y-69613671D01*
X175831569Y-69431692D01*
X175831569Y-69431690D01*
X175839862Y-69390000D01*
X175036988Y-69390000D01*
X175054205Y-69380060D01*
X175110060Y-69324205D01*
X175149556Y-69255796D01*
X175170000Y-69179496D01*
X175170000Y-69100504D01*
X175149556Y-69024204D01*
X175110060Y-68955795D01*
X175054205Y-68899940D01*
X175036988Y-68890000D01*
X175839862Y-68890000D01*
X175831569Y-68848309D01*
X175831569Y-68848307D01*
X175756192Y-68666328D01*
X175756185Y-68666315D01*
X175646751Y-68502537D01*
X175646748Y-68502533D01*
X175507466Y-68363251D01*
X175507462Y-68363248D01*
X175338613Y-68250426D01*
X175339568Y-68248996D01*
X175295568Y-68205777D01*
X175280105Y-68137640D01*
X175303934Y-68071960D01*
X175305702Y-68069913D01*
X175305568Y-68069811D01*
X175310507Y-68063372D01*
X175310515Y-68063365D01*
X175386281Y-67932135D01*
X175425500Y-67785766D01*
X175425500Y-67634234D01*
X175386281Y-67487865D01*
X175379141Y-67475499D01*
X175369843Y-67459394D01*
X175310515Y-67356635D01*
X175266061Y-67312181D01*
X175232576Y-67250858D01*
X175237560Y-67181166D01*
X175279432Y-67125233D01*
X175344896Y-67100816D01*
X175353742Y-67100500D01*
X175625099Y-67100500D01*
X175692138Y-67120185D01*
X175730638Y-67159404D01*
X175739467Y-67173719D01*
X175754660Y-67198350D01*
X175876650Y-67320340D01*
X176023484Y-67410908D01*
X176187247Y-67465174D01*
X176288323Y-67475500D01*
X176986676Y-67475499D01*
X176986684Y-67475498D01*
X176986687Y-67475498D01*
X177042030Y-67469844D01*
X177087753Y-67465174D01*
X177251516Y-67410908D01*
X177398350Y-67320340D01*
X177412671Y-67306018D01*
X177473989Y-67272533D01*
X177543681Y-67277514D01*
X177588034Y-67306017D01*
X177601961Y-67319944D01*
X177601965Y-67319947D01*
X177748688Y-67410448D01*
X177748699Y-67410453D01*
X177912347Y-67464680D01*
X178013351Y-67474999D01*
X178112500Y-67474998D01*
X178112500Y-65524999D01*
X178013360Y-65525000D01*
X178013344Y-65525001D01*
X177912347Y-65535319D01*
X177748699Y-65589546D01*
X177748688Y-65589551D01*
X177601965Y-65680052D01*
X177588032Y-65693985D01*
X177526708Y-65727468D01*
X177457016Y-65722482D01*
X177430287Y-65708608D01*
X177420802Y-65702112D01*
X177398350Y-65679660D01*
X177294388Y-65615535D01*
X177291934Y-65613855D01*
X177271638Y-65588997D01*
X177250178Y-65565138D01*
X177249414Y-65561777D01*
X177247745Y-65559733D01*
X177246532Y-65549095D01*
X177238000Y-65511548D01*
X177238000Y-61251577D01*
X177257685Y-61184538D01*
X177310489Y-61138783D01*
X177379647Y-61128839D01*
X177443203Y-61157864D01*
X177449681Y-61163896D01*
X177562533Y-61276748D01*
X177562537Y-61276751D01*
X177726315Y-61386185D01*
X177726328Y-61386192D01*
X177908306Y-61461569D01*
X177908318Y-61461572D01*
X178101504Y-61499999D01*
X178101508Y-61500000D01*
X178250000Y-61500000D01*
X178250000Y-60800000D01*
X178750000Y-60800000D01*
X178750000Y-61500000D01*
G37*
%TD.AperFunction*%
%TA.AperFunction,Conductor*%
G36*
X143007841Y-94412689D02*
G01*
X143016302Y-94412689D01*
X143016705Y-94409626D01*
X143024763Y-94410686D01*
X143024764Y-94410687D01*
X143137280Y-94425500D01*
X143137287Y-94425500D01*
X143275500Y-94425500D01*
X143342539Y-94445185D01*
X143388294Y-94497989D01*
X143399500Y-94549500D01*
X143399500Y-95913330D01*
X143399499Y-95913348D01*
X143399499Y-96079054D01*
X143399498Y-96079054D01*
X143399499Y-96079057D01*
X143440423Y-96231785D01*
X143467786Y-96279179D01*
X143467786Y-96279180D01*
X143519475Y-96368709D01*
X143519478Y-96368713D01*
X143519480Y-96368716D01*
X143631284Y-96480520D01*
X143631285Y-96480521D01*
X144131284Y-96980520D01*
X144131286Y-96980521D01*
X144131290Y-96980524D01*
X144249089Y-97048534D01*
X144268216Y-97059577D01*
X144420943Y-97100501D01*
X144420945Y-97100501D01*
X144586654Y-97100501D01*
X144586670Y-97100500D01*
X146132152Y-97100500D01*
X146162607Y-97109442D01*
X146193511Y-97116745D01*
X146195897Y-97119217D01*
X146199191Y-97120185D01*
X146219972Y-97144167D01*
X146242027Y-97167024D01*
X146243571Y-97171403D01*
X146244946Y-97172989D01*
X146253769Y-97200308D01*
X146263914Y-97251308D01*
X146257687Y-97320899D01*
X146214825Y-97376077D01*
X146148935Y-97399322D01*
X146142297Y-97399500D01*
X142300097Y-97399500D01*
X142233058Y-97379815D01*
X142212416Y-97363181D01*
X141334574Y-96485339D01*
X141301089Y-96424016D01*
X141300638Y-96421849D01*
X141282595Y-96331147D01*
X141269737Y-96266503D01*
X141269735Y-96266498D01*
X141209397Y-96120827D01*
X141209390Y-96120814D01*
X141121789Y-95989711D01*
X141121786Y-95989707D01*
X141120885Y-95988806D01*
X141120563Y-95988217D01*
X141117924Y-95985001D01*
X141118533Y-95984500D01*
X141087400Y-95927483D01*
X141092384Y-95857791D01*
X141134256Y-95801858D01*
X141184372Y-95779508D01*
X141233497Y-95769737D01*
X141379179Y-95709394D01*
X141431110Y-95674694D01*
X141497785Y-95653816D01*
X141565165Y-95672300D01*
X141568863Y-95674676D01*
X141620821Y-95709394D01*
X141620823Y-95709395D01*
X141620825Y-95709396D01*
X141721905Y-95751264D01*
X141766503Y-95769737D01*
X141882468Y-95792804D01*
X141921153Y-95800499D01*
X141921156Y-95800500D01*
X141921158Y-95800500D01*
X142078844Y-95800500D01*
X142078845Y-95800499D01*
X142233497Y-95769737D01*
X142379179Y-95709394D01*
X142510289Y-95621789D01*
X142621789Y-95510289D01*
X142709394Y-95379179D01*
X142769737Y-95233497D01*
X142800500Y-95078842D01*
X142800500Y-94921158D01*
X142800500Y-94921155D01*
X142800499Y-94921153D01*
X142769738Y-94766510D01*
X142769737Y-94766503D01*
X142769735Y-94766498D01*
X142709397Y-94620827D01*
X142709390Y-94620814D01*
X142707771Y-94618391D01*
X142707312Y-94616927D01*
X142706521Y-94615446D01*
X142706801Y-94615295D01*
X142706421Y-94614080D01*
X142703167Y-94610945D01*
X142696075Y-94581038D01*
X142686893Y-94551713D01*
X142688088Y-94547356D01*
X142687046Y-94542961D01*
X142697247Y-94513971D01*
X142705378Y-94484333D01*
X142708738Y-94481314D01*
X142710238Y-94477053D01*
X142734489Y-94458183D01*
X142757356Y-94437643D01*
X142762815Y-94436142D01*
X142765382Y-94434146D01*
X142780631Y-94431247D01*
X142799723Y-94426002D01*
X142805283Y-94425500D01*
X142862720Y-94425500D01*
X142975236Y-94410687D01*
X142976874Y-94410008D01*
X142988850Y-94408927D01*
X143007841Y-94412689D01*
G37*
%TD.AperFunction*%
%TA.AperFunction,Conductor*%
G36*
X139757897Y-94255769D02*
G01*
X139758102Y-94255503D01*
X139759261Y-94256392D01*
X139760703Y-94257051D01*
X139763436Y-94259596D01*
X139764547Y-94260448D01*
X139764549Y-94260451D01*
X139884767Y-94352698D01*
X140024764Y-94410687D01*
X140131586Y-94424750D01*
X140137264Y-94425498D01*
X140137280Y-94425500D01*
X140137287Y-94425500D01*
X140189127Y-94425500D01*
X140256166Y-94445185D01*
X140301921Y-94497989D01*
X140311865Y-94567147D01*
X140293378Y-94615392D01*
X140293479Y-94615446D01*
X140293049Y-94616249D01*
X140292229Y-94618391D01*
X140290609Y-94620814D01*
X140290602Y-94620827D01*
X140230264Y-94766498D01*
X140230261Y-94766510D01*
X140199500Y-94921153D01*
X140199500Y-95078846D01*
X140230261Y-95233489D01*
X140230264Y-95233501D01*
X140290602Y-95379172D01*
X140290609Y-95379185D01*
X140378210Y-95510288D01*
X140378213Y-95510292D01*
X140379114Y-95511193D01*
X140379435Y-95511780D01*
X140382076Y-95514999D01*
X140381465Y-95515499D01*
X140412599Y-95572516D01*
X140407615Y-95642208D01*
X140365743Y-95698141D01*
X140315626Y-95720491D01*
X140266507Y-95730261D01*
X140266498Y-95730264D01*
X140120827Y-95790602D01*
X140120814Y-95790609D01*
X139989711Y-95878210D01*
X139989707Y-95878213D01*
X139878213Y-95989707D01*
X139878210Y-95989711D01*
X139790609Y-96120814D01*
X139790603Y-96120826D01*
X139783319Y-96138411D01*
X139739477Y-96192814D01*
X139673182Y-96214877D01*
X139644568Y-96212573D01*
X139578846Y-96199500D01*
X139578842Y-96199500D01*
X139421158Y-96199500D01*
X139421153Y-96199500D01*
X139355431Y-96212573D01*
X139327846Y-96210104D01*
X139300170Y-96211000D01*
X139293538Y-96207034D01*
X139285839Y-96206346D01*
X139263966Y-96189354D01*
X139240202Y-96175146D01*
X139234783Y-96166683D01*
X139230662Y-96163482D01*
X139220170Y-96146088D01*
X139218295Y-96142312D01*
X139209394Y-96120821D01*
X139202526Y-96110543D01*
X139198984Y-96103406D01*
X139194228Y-96076527D01*
X139186074Y-96050485D01*
X139188229Y-96042628D01*
X139186810Y-96034605D01*
X139197339Y-96009423D01*
X139204560Y-95983106D01*
X139210620Y-95977662D01*
X139213764Y-95970144D01*
X139236235Y-95954653D01*
X139252694Y-95939868D01*
X139252531Y-95939614D01*
X139254104Y-95938602D01*
X139256539Y-95936416D01*
X139258555Y-95935474D01*
X139259984Y-95934821D01*
X139259992Y-95934819D01*
X139381032Y-95857031D01*
X139475254Y-95748294D01*
X139533027Y-95621789D01*
X139535023Y-95617419D01*
X139535024Y-95617414D01*
X139555500Y-95475000D01*
X139555500Y-94350764D01*
X139575185Y-94283725D01*
X139627989Y-94237970D01*
X139697147Y-94228026D01*
X139757897Y-94255769D01*
G37*
%TD.AperFunction*%
%TA.AperFunction,Conductor*%
G36*
X144741007Y-95380864D02*
G01*
X144742147Y-95380701D01*
X144772964Y-95394774D01*
X144804017Y-95408291D01*
X144805029Y-95409418D01*
X144805703Y-95409726D01*
X144827602Y-95434548D01*
X144878210Y-95510288D01*
X144878213Y-95510292D01*
X144989707Y-95621786D01*
X144989711Y-95621789D01*
X145065452Y-95672398D01*
X145110257Y-95726010D01*
X145118964Y-95795335D01*
X145088810Y-95858363D01*
X145029366Y-95895082D01*
X144996561Y-95899500D01*
X144800098Y-95899500D01*
X144733059Y-95879815D01*
X144712417Y-95863181D01*
X144636819Y-95787583D01*
X144603334Y-95726260D01*
X144600500Y-95699902D01*
X144600500Y-95503439D01*
X144610043Y-95470938D01*
X144619005Y-95438272D01*
X144619861Y-95437502D01*
X144620185Y-95436400D01*
X144645754Y-95414243D01*
X144670983Y-95391582D01*
X144672120Y-95391397D01*
X144672989Y-95390645D01*
X144706511Y-95385824D01*
X144739953Y-95380406D01*
X144741007Y-95380864D01*
G37*
%TD.AperFunction*%
%TA.AperFunction,Conductor*%
G36*
X151305703Y-90655384D02*
G01*
X151312181Y-90661416D01*
X151564181Y-90913416D01*
X151597666Y-90974739D01*
X151600500Y-91001097D01*
X151600500Y-92214913D01*
X151580815Y-92281952D01*
X151528011Y-92327707D01*
X151460333Y-92337855D01*
X151458333Y-92337592D01*
X151394432Y-92309335D01*
X151355952Y-92251016D01*
X151350500Y-92214650D01*
X151350500Y-92170943D01*
X151344754Y-92149500D01*
X151336506Y-92118716D01*
X151309577Y-92018216D01*
X151293120Y-91989711D01*
X151230524Y-91881290D01*
X151230521Y-91881286D01*
X151230520Y-91881284D01*
X151136818Y-91787582D01*
X151103334Y-91726258D01*
X151100500Y-91699901D01*
X151100500Y-90749097D01*
X151120185Y-90682058D01*
X151172989Y-90636303D01*
X151242147Y-90626359D01*
X151305703Y-90655384D01*
G37*
%TD.AperFunction*%
%TA.AperFunction,Conductor*%
G36*
X149766942Y-68521185D02*
G01*
X149787584Y-68537819D01*
X149863181Y-68613416D01*
X149896666Y-68674739D01*
X149899500Y-68701097D01*
X149899500Y-74199902D01*
X149879815Y-74266941D01*
X149863181Y-74287583D01*
X149335339Y-74815425D01*
X149320281Y-74823820D01*
X149308998Y-74835510D01*
X149279774Y-74846406D01*
X149276152Y-74848426D01*
X149271603Y-74849500D01*
X149271158Y-74849500D01*
X149116503Y-74880263D01*
X149083612Y-74893886D01*
X149073890Y-74896182D01*
X149064592Y-74895681D01*
X149045396Y-74899500D01*
X149012401Y-74899500D01*
X148945362Y-74879815D01*
X148906862Y-74840596D01*
X148882840Y-74801650D01*
X148760851Y-74679661D01*
X148760850Y-74679660D01*
X148669629Y-74623395D01*
X148614018Y-74589093D01*
X148614013Y-74589091D01*
X148612569Y-74588612D01*
X148450253Y-74534826D01*
X148450251Y-74534825D01*
X148349178Y-74524500D01*
X147650830Y-74524500D01*
X147650812Y-74524501D01*
X147549747Y-74534825D01*
X147385984Y-74589092D01*
X147385981Y-74589093D01*
X147239148Y-74679661D01*
X147224825Y-74693984D01*
X147163501Y-74727468D01*
X147093809Y-74722482D01*
X147049465Y-74693982D01*
X147035538Y-74680055D01*
X147035534Y-74680052D01*
X146888811Y-74589551D01*
X146888800Y-74589546D01*
X146725152Y-74535319D01*
X146624154Y-74525000D01*
X146525000Y-74525000D01*
X146525000Y-76474999D01*
X146624140Y-76474999D01*
X146624151Y-76474998D01*
X146695009Y-76467759D01*
X146763702Y-76480528D01*
X146814587Y-76528408D01*
X146831508Y-76596198D01*
X146809093Y-76662374D01*
X146795293Y-76678798D01*
X146495240Y-76978852D01*
X146455013Y-77005732D01*
X146370820Y-77040606D01*
X146370814Y-77040609D01*
X146239711Y-77128210D01*
X146239707Y-77128213D01*
X146128213Y-77239707D01*
X146128210Y-77239711D01*
X146040609Y-77370814D01*
X146040602Y-77370827D01*
X145980264Y-77516498D01*
X145980261Y-77516510D01*
X145949500Y-77671153D01*
X145949500Y-77775500D01*
X145929815Y-77842539D01*
X145877011Y-77888294D01*
X145825500Y-77899500D01*
X138300098Y-77899500D01*
X138233059Y-77879815D01*
X138212417Y-77863181D01*
X137834573Y-77485337D01*
X137801088Y-77424014D01*
X137800637Y-77421847D01*
X137800500Y-77421158D01*
X137769737Y-77266503D01*
X137762377Y-77248735D01*
X137709397Y-77120827D01*
X137709390Y-77120814D01*
X137621789Y-76989711D01*
X137621786Y-76989707D01*
X137510292Y-76878213D01*
X137510288Y-76878210D01*
X137379185Y-76790609D01*
X137379172Y-76790602D01*
X137233501Y-76730264D01*
X137233489Y-76730261D01*
X137078845Y-76699500D01*
X137078842Y-76699500D01*
X136921158Y-76699500D01*
X136921155Y-76699500D01*
X136766510Y-76730261D01*
X136760676Y-76732031D01*
X136759873Y-76729385D01*
X136702056Y-76735396D01*
X136639687Y-76703902D01*
X136604245Y-76643689D01*
X136600500Y-76613444D01*
X136600500Y-75786654D01*
X145237501Y-75786654D01*
X145247819Y-75887652D01*
X145302046Y-76051300D01*
X145302051Y-76051311D01*
X145392552Y-76198034D01*
X145392555Y-76198038D01*
X145514461Y-76319944D01*
X145514465Y-76319947D01*
X145661188Y-76410448D01*
X145661199Y-76410453D01*
X145824847Y-76464680D01*
X145925851Y-76474999D01*
X146025000Y-76474998D01*
X146025000Y-75750000D01*
X145237501Y-75750000D01*
X145237501Y-75786654D01*
X136600500Y-75786654D01*
X136600500Y-75397955D01*
X136620185Y-75330916D01*
X136672989Y-75285161D01*
X136700303Y-75276339D01*
X136733497Y-75269737D01*
X136869640Y-75213345D01*
X145237500Y-75213345D01*
X145237500Y-75250000D01*
X146025000Y-75250000D01*
X146025000Y-74524999D01*
X145925860Y-74525000D01*
X145925844Y-74525001D01*
X145824847Y-74535319D01*
X145661199Y-74589546D01*
X145661188Y-74589551D01*
X145514465Y-74680052D01*
X145514461Y-74680055D01*
X145392555Y-74801961D01*
X145392552Y-74801965D01*
X145302051Y-74948688D01*
X145302046Y-74948699D01*
X145247819Y-75112347D01*
X145237500Y-75213345D01*
X136869640Y-75213345D01*
X136879172Y-75209397D01*
X136879172Y-75209396D01*
X136879179Y-75209394D01*
X137010289Y-75121789D01*
X137121789Y-75010289D01*
X137209394Y-74879179D01*
X137269737Y-74733497D01*
X137300500Y-74578842D01*
X137300500Y-74421158D01*
X137300500Y-74421155D01*
X137300499Y-74421153D01*
X137269738Y-74266510D01*
X137269738Y-74266508D01*
X137269737Y-74266503D01*
X137263425Y-74251264D01*
X137209397Y-74120827D01*
X137209390Y-74120814D01*
X137121789Y-73989711D01*
X137121786Y-73989707D01*
X137010292Y-73878213D01*
X137010288Y-73878210D01*
X136879185Y-73790609D01*
X136879172Y-73790602D01*
X136733501Y-73730264D01*
X136733489Y-73730261D01*
X136578845Y-73699500D01*
X136578842Y-73699500D01*
X136421158Y-73699500D01*
X136421155Y-73699500D01*
X136266510Y-73730261D01*
X136266498Y-73730264D01*
X136120827Y-73790602D01*
X136120814Y-73790609D01*
X135989711Y-73878210D01*
X135989707Y-73878213D01*
X135878213Y-73989707D01*
X135878210Y-73989711D01*
X135790609Y-74120814D01*
X135790602Y-74120827D01*
X135730264Y-74266498D01*
X135730261Y-74266508D01*
X135699362Y-74421847D01*
X135690597Y-74438602D01*
X135686578Y-74457081D01*
X135667834Y-74482118D01*
X135666977Y-74483758D01*
X135665427Y-74485335D01*
X135624224Y-74526538D01*
X135624212Y-74526552D01*
X135519478Y-74631285D01*
X135491550Y-74679660D01*
X135480096Y-74699500D01*
X135440423Y-74768215D01*
X135399499Y-74920943D01*
X135399499Y-74920945D01*
X135399499Y-75089046D01*
X135399500Y-75089059D01*
X135399500Y-77263273D01*
X135399499Y-77263291D01*
X135399499Y-77428997D01*
X135399498Y-77428997D01*
X135399499Y-77429000D01*
X135422944Y-77516498D01*
X135440424Y-77581730D01*
X135450625Y-77599398D01*
X135450626Y-77599400D01*
X135519477Y-77718655D01*
X135519481Y-77718660D01*
X135638349Y-77837528D01*
X135638355Y-77837533D01*
X135823217Y-78022395D01*
X135856702Y-78083718D01*
X135851718Y-78153410D01*
X135809846Y-78209343D01*
X135771544Y-78228733D01*
X135766502Y-78230262D01*
X135620827Y-78290602D01*
X135620814Y-78290609D01*
X135489125Y-78378602D01*
X135422447Y-78399480D01*
X135420234Y-78399500D01*
X130400097Y-78399500D01*
X130333058Y-78379815D01*
X130312416Y-78363181D01*
X127434574Y-75485339D01*
X127401089Y-75424016D01*
X127400638Y-75421849D01*
X127382550Y-75330916D01*
X127369737Y-75266503D01*
X127352888Y-75225826D01*
X127309397Y-75120827D01*
X127309390Y-75120814D01*
X127221789Y-74989711D01*
X127221786Y-74989707D01*
X127110292Y-74878213D01*
X127110288Y-74878210D01*
X126979185Y-74790609D01*
X126979172Y-74790602D01*
X126833501Y-74730264D01*
X126833489Y-74730261D01*
X126678845Y-74699500D01*
X126678842Y-74699500D01*
X126521158Y-74699500D01*
X126521155Y-74699500D01*
X126366510Y-74730261D01*
X126366498Y-74730264D01*
X126220827Y-74790602D01*
X126220814Y-74790609D01*
X126089711Y-74878210D01*
X126089707Y-74878213D01*
X125978213Y-74989707D01*
X125978210Y-74989711D01*
X125890609Y-75120814D01*
X125890602Y-75120827D01*
X125830264Y-75266498D01*
X125830261Y-75266510D01*
X125799500Y-75421153D01*
X125799500Y-75578846D01*
X125830261Y-75733489D01*
X125830264Y-75733501D01*
X125890602Y-75879172D01*
X125890609Y-75879185D01*
X125978210Y-76010288D01*
X125978213Y-76010292D01*
X126089707Y-76121786D01*
X126089711Y-76121789D01*
X126220814Y-76209390D01*
X126220827Y-76209397D01*
X126366498Y-76269735D01*
X126366503Y-76269737D01*
X126409874Y-76278364D01*
X126521849Y-76300638D01*
X126583760Y-76333023D01*
X126585339Y-76334574D01*
X128938584Y-78687819D01*
X128972069Y-78749142D01*
X128967085Y-78818834D01*
X128925213Y-78874767D01*
X128859749Y-78899184D01*
X128850903Y-78899500D01*
X126800098Y-78899500D01*
X126733059Y-78879815D01*
X126712417Y-78863181D01*
X124136819Y-76287583D01*
X124103334Y-76226260D01*
X124100500Y-76199902D01*
X124100500Y-75300097D01*
X124120185Y-75233058D01*
X124136819Y-75212416D01*
X125212416Y-74136819D01*
X125273739Y-74103334D01*
X125300097Y-74100500D01*
X128857716Y-74100500D01*
X128924755Y-74120185D01*
X128970510Y-74172989D01*
X128980454Y-74242147D01*
X128958034Y-74297385D01*
X128845379Y-74452442D01*
X128748904Y-74641782D01*
X128683242Y-74843869D01*
X128683242Y-74843872D01*
X128650000Y-75053753D01*
X128650000Y-75266246D01*
X128683242Y-75476127D01*
X128683242Y-75476130D01*
X128748904Y-75678217D01*
X128845375Y-75867550D01*
X128884728Y-75921716D01*
X129517037Y-75289408D01*
X129534075Y-75352993D01*
X129599901Y-75467007D01*
X129692993Y-75560099D01*
X129807007Y-75625925D01*
X129870590Y-75642962D01*
X129238282Y-76275269D01*
X129238282Y-76275270D01*
X129292449Y-76314624D01*
X129481782Y-76411095D01*
X129683870Y-76476757D01*
X129893754Y-76510000D01*
X130106246Y-76510000D01*
X130316127Y-76476757D01*
X130316130Y-76476757D01*
X130518217Y-76411095D01*
X130707554Y-76314622D01*
X130761716Y-76275270D01*
X130761717Y-76275270D01*
X130129408Y-75642962D01*
X130192993Y-75625925D01*
X130307007Y-75560099D01*
X130400099Y-75467007D01*
X130465925Y-75352993D01*
X130482962Y-75289408D01*
X131115270Y-75921717D01*
X131115270Y-75921716D01*
X131154622Y-75867554D01*
X131251095Y-75678217D01*
X131316757Y-75476130D01*
X131316757Y-75476127D01*
X131350000Y-75266246D01*
X131350000Y-75053753D01*
X131316757Y-74843872D01*
X131316757Y-74843869D01*
X131251095Y-74641782D01*
X131154624Y-74452449D01*
X131115270Y-74398282D01*
X131115269Y-74398282D01*
X130482962Y-75030590D01*
X130465925Y-74967007D01*
X130400099Y-74852993D01*
X130307007Y-74759901D01*
X130192993Y-74694075D01*
X130129408Y-74677037D01*
X130761716Y-74044728D01*
X130707547Y-74005373D01*
X130707547Y-74005372D01*
X130698500Y-74000763D01*
X130647706Y-73952788D01*
X130630912Y-73884966D01*
X130653451Y-73818832D01*
X130698508Y-73779793D01*
X130707816Y-73775051D01*
X130811804Y-73699500D01*
X130879786Y-73650109D01*
X130879788Y-73650106D01*
X130879792Y-73650104D01*
X131030104Y-73499792D01*
X131030106Y-73499788D01*
X131030109Y-73499786D01*
X131155048Y-73327820D01*
X131155047Y-73327820D01*
X131155051Y-73327816D01*
X131251557Y-73138412D01*
X131317246Y-72936243D01*
X131350500Y-72726287D01*
X131350500Y-72513713D01*
X131317246Y-72303757D01*
X131251557Y-72101588D01*
X131155051Y-71912184D01*
X131155049Y-71912181D01*
X131155048Y-71912179D01*
X131030109Y-71740213D01*
X131001550Y-71711654D01*
X132525001Y-71711654D01*
X132535319Y-71812652D01*
X132589546Y-71976300D01*
X132589551Y-71976311D01*
X132680052Y-72123034D01*
X132680055Y-72123038D01*
X132801961Y-72244944D01*
X132801965Y-72244947D01*
X132948688Y-72335448D01*
X132948699Y-72335453D01*
X133112347Y-72389680D01*
X133213352Y-72399999D01*
X133250000Y-72399999D01*
X133250000Y-71612500D01*
X132525001Y-71612500D01*
X132525001Y-71711654D01*
X131001550Y-71711654D01*
X130879786Y-71589890D01*
X130707820Y-71464951D01*
X130707115Y-71464591D01*
X130699054Y-71460485D01*
X130648259Y-71412512D01*
X130631463Y-71344692D01*
X130653999Y-71278556D01*
X130699054Y-71239515D01*
X130707816Y-71235051D01*
X130737722Y-71213323D01*
X130879786Y-71110109D01*
X130879788Y-71110106D01*
X130879792Y-71110104D01*
X131030104Y-70959792D01*
X131030106Y-70959788D01*
X131030109Y-70959786D01*
X131148915Y-70796262D01*
X131155051Y-70787816D01*
X131251557Y-70598412D01*
X131317246Y-70396243D01*
X131325742Y-70342602D01*
X131355671Y-70279467D01*
X131414983Y-70242536D01*
X131448215Y-70238000D01*
X132511548Y-70238000D01*
X132518477Y-70240034D01*
X132525592Y-70238798D01*
X132551554Y-70249747D01*
X132578587Y-70257685D01*
X132584890Y-70263806D01*
X132589971Y-70265949D01*
X132606343Y-70284639D01*
X132613855Y-70291934D01*
X132615535Y-70294388D01*
X132679660Y-70398350D01*
X132702112Y-70420802D01*
X132708608Y-70430287D01*
X132716011Y-70453016D01*
X132727467Y-70473995D01*
X132726634Y-70485629D01*
X132730248Y-70496721D01*
X132724188Y-70519843D01*
X132722483Y-70543687D01*
X132714810Y-70555626D01*
X132712535Y-70564308D01*
X132704463Y-70571727D01*
X132693985Y-70588032D01*
X132680052Y-70601965D01*
X132589551Y-70748688D01*
X132589546Y-70748699D01*
X132535319Y-70912347D01*
X132525000Y-71013345D01*
X132525000Y-71112500D01*
X133376000Y-71112500D01*
X133443039Y-71132185D01*
X133488794Y-71184989D01*
X133500000Y-71236500D01*
X133500000Y-71362500D01*
X133626000Y-71362500D01*
X133693039Y-71382185D01*
X133738794Y-71434989D01*
X133750000Y-71486500D01*
X133750000Y-72399999D01*
X133786640Y-72399999D01*
X133786654Y-72399998D01*
X133887652Y-72389680D01*
X134051300Y-72335453D01*
X134051311Y-72335448D01*
X134198034Y-72244947D01*
X134198038Y-72244944D01*
X134319944Y-72123038D01*
X134319947Y-72123034D01*
X134410448Y-71976311D01*
X134410453Y-71976300D01*
X134464680Y-71812652D01*
X134474999Y-71711654D01*
X134474999Y-71681239D01*
X134494682Y-71614199D01*
X134547484Y-71568442D01*
X134616642Y-71558497D01*
X134680199Y-71587520D01*
X134704537Y-71616137D01*
X134755054Y-71698037D01*
X134876961Y-71819944D01*
X134876965Y-71819947D01*
X135023688Y-71910448D01*
X135023699Y-71910453D01*
X135187349Y-71964681D01*
X135187347Y-71964681D01*
X135255500Y-71971643D01*
X135320192Y-71998038D01*
X135360344Y-72055219D01*
X135363208Y-72125030D01*
X135330580Y-72182682D01*
X134650084Y-72863181D01*
X134588761Y-72896666D01*
X134562403Y-72899500D01*
X133579766Y-72899500D01*
X133512727Y-72879815D01*
X133510875Y-72878602D01*
X133379185Y-72790609D01*
X133379172Y-72790602D01*
X133233501Y-72730264D01*
X133233489Y-72730261D01*
X133078845Y-72699500D01*
X133078842Y-72699500D01*
X132921158Y-72699500D01*
X132921155Y-72699500D01*
X132766510Y-72730261D01*
X132766498Y-72730264D01*
X132620827Y-72790602D01*
X132620814Y-72790609D01*
X132489711Y-72878210D01*
X132489707Y-72878213D01*
X132378213Y-72989707D01*
X132378210Y-72989711D01*
X132290609Y-73120814D01*
X132290602Y-73120827D01*
X132230264Y-73266498D01*
X132230261Y-73266510D01*
X132199500Y-73421153D01*
X132199500Y-73578846D01*
X132230261Y-73733489D01*
X132230264Y-73733501D01*
X132290602Y-73879172D01*
X132290609Y-73879185D01*
X132378210Y-74010288D01*
X132378213Y-74010292D01*
X132489707Y-74121786D01*
X132489711Y-74121789D01*
X132620814Y-74209390D01*
X132620827Y-74209397D01*
X132758683Y-74266498D01*
X132766503Y-74269737D01*
X132905498Y-74297385D01*
X132921153Y-74300499D01*
X132921156Y-74300500D01*
X132921158Y-74300500D01*
X133078844Y-74300500D01*
X133078845Y-74300499D01*
X133233497Y-74269737D01*
X133379179Y-74209394D01*
X133433663Y-74172989D01*
X133510875Y-74121398D01*
X133577553Y-74100520D01*
X133579766Y-74100500D01*
X134775831Y-74100500D01*
X134775847Y-74100501D01*
X134783443Y-74100501D01*
X134941554Y-74100501D01*
X134941557Y-74100501D01*
X135094285Y-74059577D01*
X135163733Y-74019481D01*
X135231216Y-73980520D01*
X135343020Y-73868716D01*
X135343020Y-73868714D01*
X135353224Y-73858511D01*
X135353228Y-73858506D01*
X136285581Y-72926153D01*
X137694500Y-72926153D01*
X137694500Y-73083846D01*
X137725261Y-73238489D01*
X137725264Y-73238501D01*
X137785602Y-73384172D01*
X137785609Y-73384185D01*
X137873210Y-73515288D01*
X137873213Y-73515292D01*
X137984707Y-73626786D01*
X137984711Y-73626789D01*
X138115814Y-73714390D01*
X138115827Y-73714397D01*
X138261498Y-73774735D01*
X138261503Y-73774737D01*
X138409542Y-73804184D01*
X138416153Y-73805499D01*
X138416156Y-73805500D01*
X138416158Y-73805500D01*
X138573844Y-73805500D01*
X138573845Y-73805499D01*
X138728497Y-73774737D01*
X138874179Y-73714394D01*
X138889881Y-73703902D01*
X139005875Y-73626398D01*
X139072553Y-73605520D01*
X139074766Y-73605500D01*
X141408331Y-73605500D01*
X141408347Y-73605501D01*
X141415943Y-73605501D01*
X141574054Y-73605501D01*
X141574057Y-73605501D01*
X141726785Y-73564577D01*
X141776904Y-73535639D01*
X141863716Y-73485520D01*
X141975520Y-73373716D01*
X141975520Y-73373714D01*
X141985728Y-73363507D01*
X141985729Y-73363504D01*
X142514665Y-72834570D01*
X142575984Y-72801088D01*
X142578151Y-72800637D01*
X142578840Y-72800500D01*
X142578842Y-72800500D01*
X142733497Y-72769737D01*
X142879179Y-72709394D01*
X143010289Y-72621789D01*
X143121789Y-72510289D01*
X143209394Y-72379179D01*
X143213950Y-72368181D01*
X143233767Y-72320338D01*
X143269737Y-72233497D01*
X143300500Y-72078842D01*
X143300500Y-71921158D01*
X143300500Y-71921155D01*
X143300499Y-71921153D01*
X143280446Y-71820340D01*
X143269737Y-71766503D01*
X143262901Y-71750000D01*
X143209397Y-71620827D01*
X143209390Y-71620814D01*
X143121789Y-71489711D01*
X143121786Y-71489707D01*
X143010292Y-71378213D01*
X143010288Y-71378210D01*
X142879185Y-71290609D01*
X142879172Y-71290602D01*
X142733501Y-71230264D01*
X142733489Y-71230261D01*
X142578845Y-71199500D01*
X142578842Y-71199500D01*
X142421158Y-71199500D01*
X142421155Y-71199500D01*
X142266510Y-71230261D01*
X142266498Y-71230264D01*
X142120827Y-71290602D01*
X142120814Y-71290609D01*
X141989711Y-71378210D01*
X141989707Y-71378213D01*
X141878213Y-71489707D01*
X141878210Y-71489711D01*
X141790609Y-71620814D01*
X141790602Y-71620827D01*
X141730264Y-71766498D01*
X141730261Y-71766508D01*
X141699362Y-71921849D01*
X141666977Y-71983759D01*
X141665426Y-71985338D01*
X141282584Y-72368181D01*
X141221261Y-72401666D01*
X141194903Y-72404500D01*
X139074766Y-72404500D01*
X139007727Y-72384815D01*
X139005875Y-72383602D01*
X138874185Y-72295609D01*
X138874172Y-72295602D01*
X138728501Y-72235264D01*
X138728489Y-72235261D01*
X138573845Y-72204500D01*
X138573842Y-72204500D01*
X138416158Y-72204500D01*
X138416155Y-72204500D01*
X138261510Y-72235261D01*
X138261498Y-72235264D01*
X138115827Y-72295602D01*
X138115814Y-72295609D01*
X137984711Y-72383210D01*
X137984707Y-72383213D01*
X137873213Y-72494707D01*
X137873210Y-72494711D01*
X137785609Y-72625814D01*
X137785602Y-72625827D01*
X137725264Y-72771498D01*
X137725262Y-72771506D01*
X137694500Y-72926153D01*
X136285581Y-72926153D01*
X137199916Y-72011818D01*
X137261239Y-71978333D01*
X137287597Y-71975499D01*
X137711670Y-71975499D01*
X137711676Y-71975499D01*
X137812753Y-71965174D01*
X137976516Y-71910908D01*
X138123350Y-71820340D01*
X138245340Y-71698350D01*
X138269362Y-71659404D01*
X138321310Y-71612679D01*
X138374901Y-71600500D01*
X138913331Y-71600500D01*
X138913347Y-71600501D01*
X138920943Y-71600501D01*
X139079054Y-71600501D01*
X139079057Y-71600501D01*
X139231785Y-71559577D01*
X139281904Y-71530639D01*
X139368716Y-71480520D01*
X139480520Y-71368716D01*
X139480520Y-71368714D01*
X139490728Y-71358507D01*
X139490729Y-71358504D01*
X140014665Y-70834570D01*
X140075984Y-70801088D01*
X140078151Y-70800637D01*
X140078840Y-70800500D01*
X140078842Y-70800500D01*
X140233497Y-70769737D01*
X140362555Y-70716280D01*
X140379172Y-70709397D01*
X140379172Y-70709396D01*
X140379179Y-70709394D01*
X140510289Y-70621789D01*
X140621789Y-70510289D01*
X140709394Y-70379179D01*
X140712719Y-70371153D01*
X140745532Y-70291934D01*
X140769737Y-70233497D01*
X140800500Y-70078842D01*
X140800500Y-69921158D01*
X140800500Y-69921155D01*
X140800499Y-69921153D01*
X140782012Y-69828213D01*
X140769737Y-69766503D01*
X140768600Y-69763757D01*
X140709397Y-69620827D01*
X140709390Y-69620814D01*
X140621789Y-69489711D01*
X140621786Y-69489707D01*
X140510292Y-69378213D01*
X140510288Y-69378210D01*
X140379185Y-69290609D01*
X140379172Y-69290602D01*
X140233501Y-69230264D01*
X140233489Y-69230261D01*
X140078845Y-69199500D01*
X140078842Y-69199500D01*
X139921158Y-69199500D01*
X139921155Y-69199500D01*
X139766510Y-69230261D01*
X139766498Y-69230264D01*
X139620827Y-69290602D01*
X139620814Y-69290609D01*
X139489711Y-69378210D01*
X139489707Y-69378213D01*
X139378213Y-69489707D01*
X139378210Y-69489711D01*
X139290609Y-69620814D01*
X139290602Y-69620827D01*
X139230264Y-69766498D01*
X139230261Y-69766508D01*
X139199362Y-69921849D01*
X139166977Y-69983759D01*
X139165426Y-69985338D01*
X138787584Y-70363181D01*
X138726261Y-70396666D01*
X138699903Y-70399500D01*
X138374901Y-70399500D01*
X138307862Y-70379815D01*
X138269362Y-70340596D01*
X138245340Y-70301650D01*
X138123351Y-70179661D01*
X138123350Y-70179660D01*
X138006015Y-70107287D01*
X137976518Y-70089093D01*
X137976513Y-70089091D01*
X137972469Y-70087751D01*
X137812753Y-70034826D01*
X137812751Y-70034825D01*
X137711678Y-70024500D01*
X137013330Y-70024500D01*
X137013312Y-70024501D01*
X136912247Y-70034825D01*
X136748484Y-70089092D01*
X136748481Y-70089093D01*
X136601648Y-70179661D01*
X136587325Y-70193984D01*
X136526001Y-70227468D01*
X136456309Y-70222482D01*
X136411965Y-70193982D01*
X136398038Y-70180055D01*
X136398034Y-70180052D01*
X136251311Y-70089551D01*
X136251300Y-70089546D01*
X136087652Y-70035319D01*
X135986654Y-70025000D01*
X135887500Y-70025000D01*
X135887500Y-70876000D01*
X135867815Y-70943039D01*
X135815011Y-70988794D01*
X135763500Y-71000000D01*
X135511500Y-71000000D01*
X135444461Y-70980315D01*
X135398706Y-70927511D01*
X135387500Y-70876000D01*
X135387500Y-70024999D01*
X135288360Y-70025000D01*
X135288344Y-70025001D01*
X135187347Y-70035319D01*
X135023699Y-70089546D01*
X135023688Y-70089551D01*
X134876965Y-70180052D01*
X134876961Y-70180055D01*
X134755055Y-70301961D01*
X134755052Y-70301965D01*
X134664551Y-70448688D01*
X134664546Y-70448699D01*
X134610319Y-70612347D01*
X134607094Y-70643911D01*
X134596887Y-70668925D01*
X134590087Y-70695068D01*
X134583885Y-70700789D01*
X134580697Y-70708603D01*
X134558589Y-70724125D01*
X134538733Y-70742444D01*
X134530420Y-70743904D01*
X134523515Y-70748753D01*
X134496528Y-70749859D01*
X134469917Y-70754535D01*
X134462134Y-70751269D01*
X134453704Y-70751615D01*
X134430403Y-70737955D01*
X134405489Y-70727502D01*
X134397984Y-70718951D01*
X134393428Y-70716280D01*
X134381557Y-70701560D01*
X134291519Y-70570606D01*
X134284039Y-70547784D01*
X134272532Y-70526711D01*
X134273355Y-70515189D01*
X134269758Y-70504212D01*
X134275802Y-70480972D01*
X134277516Y-70457019D01*
X134285105Y-70445210D01*
X134287347Y-70436592D01*
X134295447Y-70429119D01*
X134306017Y-70412672D01*
X134320340Y-70398350D01*
X134410908Y-70251516D01*
X134465174Y-70087753D01*
X134475500Y-69986677D01*
X134475499Y-69562596D01*
X134495183Y-69495558D01*
X134511813Y-69474921D01*
X135199917Y-68786819D01*
X135261240Y-68753334D01*
X135287598Y-68750500D01*
X141270234Y-68750500D01*
X141337273Y-68770185D01*
X141339125Y-68771398D01*
X141470814Y-68859390D01*
X141470827Y-68859397D01*
X141568708Y-68899940D01*
X141616503Y-68919737D01*
X141771153Y-68950499D01*
X141771156Y-68950500D01*
X141771158Y-68950500D01*
X141928844Y-68950500D01*
X141928845Y-68950499D01*
X142083497Y-68919737D01*
X142229179Y-68859394D01*
X142360289Y-68771789D01*
X142471789Y-68660289D01*
X142541066Y-68556609D01*
X142594678Y-68511804D01*
X142644168Y-68501500D01*
X149699903Y-68501500D01*
X149766942Y-68521185D01*
G37*
%TD.AperFunction*%
%TA.AperFunction,Conductor*%
G36*
X174766942Y-57120185D02*
G01*
X174787584Y-57136819D01*
X176000681Y-58349916D01*
X176034166Y-58411239D01*
X176037000Y-58437597D01*
X176037000Y-60080869D01*
X176017315Y-60147908D01*
X175964511Y-60193663D01*
X175895353Y-60203607D01*
X175831797Y-60174582D01*
X175798439Y-60128322D01*
X175756190Y-60026324D01*
X175756185Y-60026315D01*
X175646751Y-59862537D01*
X175646748Y-59862533D01*
X175507466Y-59723251D01*
X175507462Y-59723248D01*
X175343684Y-59613814D01*
X175343671Y-59613807D01*
X175161693Y-59538430D01*
X175161681Y-59538427D01*
X174968495Y-59500000D01*
X174570000Y-59500000D01*
X174570000Y-60200000D01*
X174070000Y-60200000D01*
X174070000Y-59500000D01*
X173671504Y-59500000D01*
X173478318Y-59538427D01*
X173478306Y-59538430D01*
X173296328Y-59613807D01*
X173296315Y-59613814D01*
X173132537Y-59723248D01*
X173132533Y-59723251D01*
X172993251Y-59862533D01*
X172993248Y-59862537D01*
X172883814Y-60026315D01*
X172883807Y-60026328D01*
X172808430Y-60208307D01*
X172808430Y-60208309D01*
X172800138Y-60250000D01*
X173603012Y-60250000D01*
X173585795Y-60259940D01*
X173529940Y-60315795D01*
X173490444Y-60384204D01*
X173470000Y-60460504D01*
X173470000Y-60539496D01*
X173490444Y-60615796D01*
X173529940Y-60684205D01*
X173585795Y-60740060D01*
X173603012Y-60750000D01*
X172800136Y-60750000D01*
X172786298Y-60766861D01*
X172785404Y-60776849D01*
X172742538Y-60832024D01*
X172676647Y-60855266D01*
X172637922Y-60851218D01*
X172627707Y-60848481D01*
X172491557Y-60811999D01*
X172333443Y-60811999D01*
X172325847Y-60811999D01*
X172325831Y-60812000D01*
X171457611Y-60812000D01*
X171390572Y-60792315D01*
X171364060Y-60769389D01*
X171357399Y-60761732D01*
X171320340Y-60701650D01*
X171203325Y-60584635D01*
X171200501Y-60581389D01*
X171187646Y-60553389D01*
X171172886Y-60526358D01*
X171173202Y-60521928D01*
X171171349Y-60517891D01*
X171175673Y-60487386D01*
X171177870Y-60456666D01*
X171180638Y-60452358D01*
X171181155Y-60448713D01*
X171188307Y-60440425D01*
X171206371Y-60412319D01*
X171234486Y-60384204D01*
X171320340Y-60298350D01*
X171410908Y-60151516D01*
X171465174Y-59987753D01*
X171475500Y-59886677D01*
X171475499Y-59288324D01*
X171465174Y-59187247D01*
X171410908Y-59023484D01*
X171320340Y-58876650D01*
X171198350Y-58754660D01*
X171107129Y-58698395D01*
X171051518Y-58664093D01*
X171051513Y-58664091D01*
X171050069Y-58663612D01*
X170887753Y-58609826D01*
X170887751Y-58609825D01*
X170786678Y-58599500D01*
X170213330Y-58599500D01*
X170213312Y-58599501D01*
X170112247Y-58609825D01*
X169948484Y-58664092D01*
X169948481Y-58664093D01*
X169801648Y-58754661D01*
X169679661Y-58876648D01*
X169589093Y-59023481D01*
X169589091Y-59023486D01*
X169583548Y-59040215D01*
X169534826Y-59187247D01*
X169534826Y-59187248D01*
X169534825Y-59187248D01*
X169524500Y-59288315D01*
X169524500Y-59886669D01*
X169524501Y-59886687D01*
X169534825Y-59987752D01*
X169565682Y-60080869D01*
X169589092Y-60151516D01*
X169679659Y-60298349D01*
X169679661Y-60298351D01*
X169793629Y-60412319D01*
X169827114Y-60473642D01*
X169822130Y-60543334D01*
X169793629Y-60587681D01*
X169679661Y-60701648D01*
X169589093Y-60848481D01*
X169589091Y-60848486D01*
X169581406Y-60871678D01*
X169534826Y-61012247D01*
X169534826Y-61012248D01*
X169534825Y-61012248D01*
X169524500Y-61113315D01*
X169524500Y-61711669D01*
X169524501Y-61711687D01*
X169534825Y-61812752D01*
X169589092Y-61976515D01*
X169589093Y-61976518D01*
X169619108Y-62025179D01*
X169679660Y-62123350D01*
X169801650Y-62245340D01*
X169840597Y-62269362D01*
X169887320Y-62321307D01*
X169899500Y-62374900D01*
X169899500Y-62765492D01*
X169890062Y-62812942D01*
X169888992Y-62815524D01*
X169888990Y-62815529D01*
X169874500Y-62925598D01*
X169874500Y-63234403D01*
X169888988Y-63344463D01*
X169888992Y-63344475D01*
X169934027Y-63453200D01*
X169941496Y-63522669D01*
X169934027Y-63548104D01*
X169889479Y-63655654D01*
X169889478Y-63655658D01*
X169875000Y-63765622D01*
X169875000Y-63795000D01*
X171125000Y-63795000D01*
X171125000Y-63765636D01*
X171124999Y-63765622D01*
X171110521Y-63655658D01*
X171110521Y-63655657D01*
X171065972Y-63548105D01*
X171058503Y-63478635D01*
X171065972Y-63453199D01*
X171111009Y-63344472D01*
X171125500Y-63234401D01*
X171125499Y-62925600D01*
X171125499Y-62925598D01*
X171125499Y-62925596D01*
X171111011Y-62815536D01*
X171111009Y-62815531D01*
X171111009Y-62815528D01*
X171109938Y-62812942D01*
X171100500Y-62765492D01*
X171100500Y-62374900D01*
X171120185Y-62307861D01*
X171159401Y-62269363D01*
X171198350Y-62245340D01*
X171320340Y-62123350D01*
X171352072Y-62071904D01*
X171404020Y-62025179D01*
X171457611Y-62013000D01*
X172112403Y-62013000D01*
X172179442Y-62032685D01*
X172200084Y-62049319D01*
X174165425Y-64014660D01*
X174198910Y-64075983D01*
X174199361Y-64078149D01*
X174230261Y-64233491D01*
X174230264Y-64233501D01*
X174290602Y-64379172D01*
X174290609Y-64379185D01*
X174378210Y-64510288D01*
X174378213Y-64510292D01*
X174489707Y-64621786D01*
X174489710Y-64621788D01*
X174489711Y-64621789D01*
X174502419Y-64630280D01*
X174527289Y-64646898D01*
X174548330Y-64672077D01*
X174570254Y-64696483D01*
X174570621Y-64698750D01*
X174572093Y-64700511D01*
X174576181Y-64733061D01*
X174581430Y-64765453D01*
X174580513Y-64767557D01*
X174580800Y-64769836D01*
X174566641Y-64799429D01*
X174553545Y-64829517D01*
X174551266Y-64831563D01*
X174550645Y-64832863D01*
X174527288Y-64853102D01*
X174489125Y-64878602D01*
X174422448Y-64899480D01*
X174420234Y-64899500D01*
X171586670Y-64899500D01*
X171586654Y-64899499D01*
X171579058Y-64899499D01*
X171420943Y-64899499D01*
X171344579Y-64919961D01*
X171268214Y-64940423D01*
X171268209Y-64940426D01*
X171131290Y-65019475D01*
X171131282Y-65019481D01*
X170587680Y-65563083D01*
X170579734Y-65567421D01*
X170574309Y-65574669D01*
X170549549Y-65583903D01*
X170526357Y-65596568D01*
X170517327Y-65595922D01*
X170508845Y-65599086D01*
X170483024Y-65593469D01*
X170456665Y-65591584D01*
X170447611Y-65585765D01*
X170440572Y-65584234D01*
X170412318Y-65563083D01*
X170338251Y-65489016D01*
X170304766Y-65427693D01*
X170302574Y-65388733D01*
X170308759Y-65328183D01*
X170313000Y-65286677D01*
X170312999Y-64713324D01*
X170312999Y-64710167D01*
X170313843Y-64710167D01*
X170329253Y-64645679D01*
X170355095Y-64614081D01*
X170375000Y-64596624D01*
X170625000Y-64596624D01*
X170625001Y-64596625D01*
X170709334Y-64585523D01*
X170709342Y-64585521D01*
X170846175Y-64528843D01*
X170963679Y-64438679D01*
X171053843Y-64321175D01*
X171110521Y-64184342D01*
X171110521Y-64184341D01*
X171124999Y-64074377D01*
X171125000Y-64074363D01*
X171125000Y-64045000D01*
X170625000Y-64045000D01*
X170625000Y-64596624D01*
X170375000Y-64596624D01*
X170375000Y-64045000D01*
X169854668Y-64045000D01*
X169838125Y-64054032D01*
X169772769Y-64050571D01*
X169725255Y-64034826D01*
X169725251Y-64034825D01*
X169624178Y-64024500D01*
X169025830Y-64024500D01*
X169025812Y-64024501D01*
X168924747Y-64034825D01*
X168760984Y-64089092D01*
X168760981Y-64089093D01*
X168614148Y-64179661D01*
X168500181Y-64293629D01*
X168438858Y-64327114D01*
X168369166Y-64322130D01*
X168324819Y-64293629D01*
X168210851Y-64179661D01*
X168210850Y-64179660D01*
X168064016Y-64089092D01*
X167900253Y-64034826D01*
X167900251Y-64034825D01*
X167799178Y-64024500D01*
X167200830Y-64024500D01*
X167200812Y-64024501D01*
X167099747Y-64034825D01*
X166935984Y-64089092D01*
X166935981Y-64089093D01*
X166789148Y-64179661D01*
X166667161Y-64301648D01*
X166576593Y-64448481D01*
X166576592Y-64448484D01*
X166523545Y-64608567D01*
X166493520Y-64657243D01*
X157287584Y-73863181D01*
X157226261Y-73896666D01*
X157199903Y-73899500D01*
X155618569Y-73899500D01*
X155618553Y-73899499D01*
X155610957Y-73899499D01*
X155452843Y-73899499D01*
X155345487Y-73928265D01*
X155300110Y-73940424D01*
X155300109Y-73940425D01*
X155249996Y-73969359D01*
X155249995Y-73969360D01*
X155214753Y-73989707D01*
X155163185Y-74019479D01*
X152762181Y-76420483D01*
X152700858Y-76453968D01*
X152631166Y-76448984D01*
X152575233Y-76407112D01*
X152550816Y-76341648D01*
X152550500Y-76332802D01*
X152550500Y-76171155D01*
X152550499Y-76171153D01*
X152532137Y-76078842D01*
X152519737Y-76016503D01*
X152480476Y-75921717D01*
X152459397Y-75870827D01*
X152459390Y-75870814D01*
X152371789Y-75739711D01*
X152371786Y-75739707D01*
X152260289Y-75628210D01*
X152155609Y-75558266D01*
X152110804Y-75504654D01*
X152100500Y-75455164D01*
X152100500Y-75079765D01*
X152120185Y-75012726D01*
X152121398Y-75010874D01*
X152162950Y-74948688D01*
X152209394Y-74879179D01*
X152269737Y-74733497D01*
X152300500Y-74578842D01*
X152300500Y-74421158D01*
X152300500Y-74421155D01*
X152300499Y-74421153D01*
X152269738Y-74266510D01*
X152269738Y-74266508D01*
X152269737Y-74266503D01*
X152263425Y-74251264D01*
X152209397Y-74120827D01*
X152209390Y-74120814D01*
X152121789Y-73989711D01*
X152121786Y-73989707D01*
X152010292Y-73878213D01*
X152010288Y-73878210D01*
X151879185Y-73790609D01*
X151879172Y-73790602D01*
X151733501Y-73730264D01*
X151733489Y-73730261D01*
X151578845Y-73699500D01*
X151578842Y-73699500D01*
X151421158Y-73699500D01*
X151421155Y-73699500D01*
X151266510Y-73730261D01*
X151260676Y-73732031D01*
X151259873Y-73729385D01*
X151202056Y-73735396D01*
X151139687Y-73703902D01*
X151104245Y-73643689D01*
X151100500Y-73613444D01*
X151100500Y-68490059D01*
X151100500Y-68480060D01*
X151100501Y-68480058D01*
X151100501Y-68397954D01*
X151120186Y-68330914D01*
X151172991Y-68285160D01*
X151172994Y-68285159D01*
X151200306Y-68276338D01*
X151233497Y-68269737D01*
X151379179Y-68209394D01*
X151510289Y-68121789D01*
X151621789Y-68010289D01*
X151709394Y-67879179D01*
X151769737Y-67733497D01*
X151800500Y-67578842D01*
X151800500Y-67421158D01*
X151800500Y-67421155D01*
X151800499Y-67421153D01*
X151784822Y-67342340D01*
X151769737Y-67266503D01*
X151752033Y-67223762D01*
X151709396Y-67120825D01*
X151709394Y-67120822D01*
X151709394Y-67120821D01*
X151674694Y-67068889D01*
X151653816Y-67002215D01*
X151672300Y-66934835D01*
X151674676Y-66931136D01*
X151709394Y-66879179D01*
X151769737Y-66733497D01*
X151800500Y-66578842D01*
X151800500Y-66421158D01*
X151800500Y-66421155D01*
X151800499Y-66421153D01*
X151769737Y-66266503D01*
X151763546Y-66251557D01*
X151709397Y-66120827D01*
X151709390Y-66120814D01*
X151621789Y-65989711D01*
X151621786Y-65989707D01*
X151510292Y-65878213D01*
X151510288Y-65878210D01*
X151379185Y-65790609D01*
X151379172Y-65790602D01*
X151233501Y-65730264D01*
X151233489Y-65730261D01*
X151078845Y-65699500D01*
X151078842Y-65699500D01*
X150921158Y-65699500D01*
X150921155Y-65699500D01*
X150766510Y-65730261D01*
X150766498Y-65730264D01*
X150620827Y-65790602D01*
X150620814Y-65790609D01*
X150489125Y-65878602D01*
X150422447Y-65899480D01*
X150420234Y-65899500D01*
X148579766Y-65899500D01*
X148512727Y-65879815D01*
X148510875Y-65878602D01*
X148379185Y-65790609D01*
X148379172Y-65790602D01*
X148233501Y-65730264D01*
X148233489Y-65730261D01*
X148078845Y-65699500D01*
X148078842Y-65699500D01*
X147921158Y-65699500D01*
X147921155Y-65699500D01*
X147766510Y-65730261D01*
X147766498Y-65730264D01*
X147620827Y-65790602D01*
X147620816Y-65790608D01*
X147507059Y-65866618D01*
X147440382Y-65887495D01*
X147373002Y-65869010D01*
X147350488Y-65851196D01*
X147136819Y-65637527D01*
X147103334Y-65576204D01*
X147100500Y-65549846D01*
X147100500Y-64300097D01*
X147120185Y-64233058D01*
X147136819Y-64212416D01*
X147286467Y-64062768D01*
X147480520Y-63868716D01*
X147559577Y-63731784D01*
X147600501Y-63579057D01*
X147600501Y-63420942D01*
X147600501Y-63413347D01*
X147600500Y-63413329D01*
X147600500Y-62992265D01*
X147620185Y-62925226D01*
X147621398Y-62923374D01*
X147695187Y-62812942D01*
X147709394Y-62791679D01*
X147710025Y-62790157D01*
X147769735Y-62646001D01*
X147769737Y-62645997D01*
X147800500Y-62491342D01*
X147800500Y-62333658D01*
X147800500Y-62333655D01*
X147800499Y-62333653D01*
X147790496Y-62283364D01*
X147769737Y-62179003D01*
X147769735Y-62178998D01*
X147709397Y-62033327D01*
X147709390Y-62033314D01*
X147621789Y-61902211D01*
X147621786Y-61902207D01*
X147510292Y-61790713D01*
X147510288Y-61790710D01*
X147379185Y-61703109D01*
X147379172Y-61703102D01*
X147233501Y-61642764D01*
X147233489Y-61642761D01*
X147078845Y-61612000D01*
X147078842Y-61612000D01*
X146921158Y-61612000D01*
X146921155Y-61612000D01*
X146766510Y-61642761D01*
X146766498Y-61642764D01*
X146620827Y-61703102D01*
X146620814Y-61703109D01*
X146489711Y-61790710D01*
X146489707Y-61790713D01*
X146378213Y-61902207D01*
X146378210Y-61902211D01*
X146290609Y-62033314D01*
X146290602Y-62033327D01*
X146230264Y-62178998D01*
X146230261Y-62179010D01*
X146199500Y-62333653D01*
X146199500Y-62491346D01*
X146230261Y-62645989D01*
X146230264Y-62646001D01*
X146290602Y-62791672D01*
X146290609Y-62791685D01*
X146378602Y-62923374D01*
X146384252Y-62941420D01*
X146394477Y-62957330D01*
X146398928Y-62988289D01*
X146399480Y-62990051D01*
X146399500Y-62992265D01*
X146399500Y-63199901D01*
X146379815Y-63266940D01*
X146363181Y-63287582D01*
X146124214Y-63526548D01*
X146124215Y-63526549D01*
X146019477Y-63631287D01*
X145973135Y-63711556D01*
X145973135Y-63711557D01*
X145940423Y-63768214D01*
X145933246Y-63795000D01*
X145899499Y-63920943D01*
X145899499Y-63920945D01*
X145899499Y-64089046D01*
X145899500Y-64089059D01*
X145899500Y-65763273D01*
X145899499Y-65763291D01*
X145899499Y-65928997D01*
X145899498Y-65928997D01*
X145940424Y-66081732D01*
X145940425Y-66081733D01*
X145965116Y-66124498D01*
X145965117Y-66124500D01*
X146019475Y-66218652D01*
X146019481Y-66218660D01*
X146138349Y-66337528D01*
X146138355Y-66337533D01*
X146889641Y-67088819D01*
X146923126Y-67150142D01*
X146918142Y-67219834D01*
X146876270Y-67275767D01*
X146810806Y-67300184D01*
X146801960Y-67300500D01*
X142178057Y-67300500D01*
X142019943Y-67300500D01*
X141867215Y-67341423D01*
X141867213Y-67341423D01*
X141859364Y-67343527D01*
X141859045Y-67342340D01*
X141823051Y-67349500D01*
X141771155Y-67349500D01*
X141616510Y-67380261D01*
X141616498Y-67380264D01*
X141470827Y-67440602D01*
X141470814Y-67440609D01*
X141339125Y-67528602D01*
X141272447Y-67549480D01*
X141270234Y-67549500D01*
X135074170Y-67549500D01*
X135074154Y-67549499D01*
X135066558Y-67549499D01*
X134908443Y-67549499D01*
X134832079Y-67569961D01*
X134755714Y-67590423D01*
X134755709Y-67590426D01*
X134618790Y-67669475D01*
X134618782Y-67669481D01*
X133725082Y-68563181D01*
X133663759Y-68596666D01*
X133637401Y-68599500D01*
X133213330Y-68599500D01*
X133213312Y-68599501D01*
X133112247Y-68609825D01*
X132948484Y-68664092D01*
X132948481Y-68664093D01*
X132801648Y-68754661D01*
X132679660Y-68876649D01*
X132679657Y-68876653D01*
X132617086Y-68978097D01*
X132565138Y-69024822D01*
X132511548Y-69037000D01*
X130902332Y-69037000D01*
X130882898Y-69031293D01*
X130862663Y-69030483D01*
X130839666Y-69018599D01*
X130835293Y-69017315D01*
X130831171Y-69014548D01*
X130830276Y-69013921D01*
X130707816Y-68924949D01*
X130691309Y-68916538D01*
X130684188Y-68911548D01*
X130667593Y-68890772D01*
X130648259Y-68872512D01*
X130646124Y-68863892D01*
X130640583Y-68856955D01*
X130637855Y-68830503D01*
X130631463Y-68804692D01*
X130634326Y-68796287D01*
X130633416Y-68787454D01*
X130645422Y-68763725D01*
X130653999Y-68738556D01*
X130661405Y-68732138D01*
X130664961Y-68725111D01*
X130679103Y-68716802D01*
X130699054Y-68699515D01*
X130707816Y-68695051D01*
X130820178Y-68613416D01*
X130879786Y-68570109D01*
X130879788Y-68570106D01*
X130879792Y-68570104D01*
X131030104Y-68419792D01*
X131030106Y-68419788D01*
X131030109Y-68419786D01*
X131155048Y-68247820D01*
X131155047Y-68247820D01*
X131155051Y-68247816D01*
X131251557Y-68058412D01*
X131317246Y-67856243D01*
X131350500Y-67646287D01*
X131350500Y-67433713D01*
X131317246Y-67223757D01*
X131303506Y-67181473D01*
X131301512Y-67111635D01*
X131333755Y-67055478D01*
X132358506Y-66030728D01*
X132358511Y-66030724D01*
X132368714Y-66020520D01*
X132368716Y-66020520D01*
X132480520Y-65908716D01*
X132498132Y-65878211D01*
X132546330Y-65794730D01*
X132546331Y-65794728D01*
X132556322Y-65777422D01*
X132559577Y-65771785D01*
X132600500Y-65619057D01*
X132600500Y-65460943D01*
X132600500Y-59300097D01*
X132620185Y-59233058D01*
X132636819Y-59212416D01*
X134712416Y-57136819D01*
X134773739Y-57103334D01*
X134800097Y-57100500D01*
X174699903Y-57100500D01*
X174766942Y-57120185D01*
G37*
%TD.AperFunction*%
%TA.AperFunction,Conductor*%
G36*
X174236468Y-67721436D02*
G01*
X174273188Y-67780879D01*
X174273382Y-67781593D01*
X174313719Y-67932136D01*
X174323365Y-67948843D01*
X174389485Y-68063365D01*
X174496635Y-68170515D01*
X174507998Y-68177075D01*
X174556213Y-68227639D01*
X174570000Y-68284463D01*
X174570000Y-68840000D01*
X174070000Y-68840000D01*
X174070000Y-68140000D01*
X173952589Y-68140000D01*
X173885550Y-68120315D01*
X173839795Y-68067511D01*
X173829851Y-67998353D01*
X173858876Y-67934797D01*
X173883698Y-67912898D01*
X173897887Y-67903416D01*
X173915289Y-67891789D01*
X174026789Y-67780289D01*
X174050505Y-67744794D01*
X174104116Y-67699991D01*
X174173441Y-67691282D01*
X174236468Y-67721436D01*
G37*
%TD.AperFunction*%
%TA.AperFunction,Conductor*%
G36*
X174570000Y-61355536D02*
G01*
X174550315Y-61422575D01*
X174508002Y-61462922D01*
X174496638Y-61469483D01*
X174496632Y-61469487D01*
X174389487Y-61576632D01*
X174389485Y-61576635D01*
X174313719Y-61707863D01*
X174278801Y-61838182D01*
X174274500Y-61854234D01*
X174274500Y-62005766D01*
X174308272Y-62131806D01*
X174306609Y-62201656D01*
X174267446Y-62259518D01*
X174203218Y-62287022D01*
X174134315Y-62275435D01*
X174100816Y-62251580D01*
X173558259Y-61709024D01*
X173524774Y-61647701D01*
X173529758Y-61578010D01*
X173571629Y-61522076D01*
X173637094Y-61497659D01*
X173665443Y-61499433D01*
X173665446Y-61499403D01*
X173666291Y-61499486D01*
X173670138Y-61499727D01*
X173671510Y-61500000D01*
X174070000Y-61500000D01*
X174070000Y-60800000D01*
X174570000Y-60800000D01*
X174570000Y-61355536D01*
G37*
%TD.AperFunction*%
%TD*%
M02*
