%TF.GenerationSoftware,KiCad,Pcbnew,9.0.6+dfsg-1*%
%TF.CreationDate,2026-05-31T21:43:33+09:00*%
%TF.ProjectId,esp32-s3-board,65737033-322d-4733-932d-626f6172642e,rev?*%
%TF.SameCoordinates,Original*%
%TF.FileFunction,Legend,Top*%
%TF.FilePolarity,Positive*%
%FSLAX46Y46*%
G04 Gerber Fmt 4.6, Leading zero omitted, Abs format (unit mm)*
G04 Created by KiCad (PCBNEW 9.0.6+dfsg-1) date 2026-05-31 21:43:33*
%MOMM*%
%LPD*%
G01*
G04 APERTURE LIST*
%ADD10C,0.100000*%
%ADD11C,0.150000*%
%ADD12C,0.120000*%
%ADD13C,0.000000*%
G04 APERTURE END LIST*
D10*
X140375312Y-92777180D02*
X140327693Y-92824800D01*
X140327693Y-92824800D02*
X140184836Y-92872419D01*
X140184836Y-92872419D02*
X140089598Y-92872419D01*
X140089598Y-92872419D02*
X139946741Y-92824800D01*
X139946741Y-92824800D02*
X139851503Y-92729561D01*
X139851503Y-92729561D02*
X139803884Y-92634323D01*
X139803884Y-92634323D02*
X139756265Y-92443847D01*
X139756265Y-92443847D02*
X139756265Y-92300990D01*
X139756265Y-92300990D02*
X139803884Y-92110514D01*
X139803884Y-92110514D02*
X139851503Y-92015276D01*
X139851503Y-92015276D02*
X139946741Y-91920038D01*
X139946741Y-91920038D02*
X140089598Y-91872419D01*
X140089598Y-91872419D02*
X140184836Y-91872419D01*
X140184836Y-91872419D02*
X140327693Y-91920038D01*
X140327693Y-91920038D02*
X140375312Y-91967657D01*
X141232455Y-92872419D02*
X141232455Y-92348609D01*
X141232455Y-92348609D02*
X141184836Y-92253371D01*
X141184836Y-92253371D02*
X141089598Y-92205752D01*
X141089598Y-92205752D02*
X140899122Y-92205752D01*
X140899122Y-92205752D02*
X140803884Y-92253371D01*
X141232455Y-92824800D02*
X141137217Y-92872419D01*
X141137217Y-92872419D02*
X140899122Y-92872419D01*
X140899122Y-92872419D02*
X140803884Y-92824800D01*
X140803884Y-92824800D02*
X140756265Y-92729561D01*
X140756265Y-92729561D02*
X140756265Y-92634323D01*
X140756265Y-92634323D02*
X140803884Y-92539085D01*
X140803884Y-92539085D02*
X140899122Y-92491466D01*
X140899122Y-92491466D02*
X141137217Y-92491466D01*
X141137217Y-92491466D02*
X141232455Y-92443847D01*
X141708646Y-92872419D02*
X141708646Y-92205752D01*
X141708646Y-92300990D02*
X141756265Y-92253371D01*
X141756265Y-92253371D02*
X141851503Y-92205752D01*
X141851503Y-92205752D02*
X141994360Y-92205752D01*
X141994360Y-92205752D02*
X142089598Y-92253371D01*
X142089598Y-92253371D02*
X142137217Y-92348609D01*
X142137217Y-92348609D02*
X142137217Y-92872419D01*
X142137217Y-92348609D02*
X142184836Y-92253371D01*
X142184836Y-92253371D02*
X142280074Y-92205752D01*
X142280074Y-92205752D02*
X142422931Y-92205752D01*
X142422931Y-92205752D02*
X142518170Y-92253371D01*
X142518170Y-92253371D02*
X142565789Y-92348609D01*
X142565789Y-92348609D02*
X142565789Y-92872419D01*
X143422931Y-92824800D02*
X143327693Y-92872419D01*
X143327693Y-92872419D02*
X143137217Y-92872419D01*
X143137217Y-92872419D02*
X143041979Y-92824800D01*
X143041979Y-92824800D02*
X142994360Y-92729561D01*
X142994360Y-92729561D02*
X142994360Y-92348609D01*
X142994360Y-92348609D02*
X143041979Y-92253371D01*
X143041979Y-92253371D02*
X143137217Y-92205752D01*
X143137217Y-92205752D02*
X143327693Y-92205752D01*
X143327693Y-92205752D02*
X143422931Y-92253371D01*
X143422931Y-92253371D02*
X143470550Y-92348609D01*
X143470550Y-92348609D02*
X143470550Y-92443847D01*
X143470550Y-92443847D02*
X142994360Y-92539085D01*
X143899122Y-92872419D02*
X143899122Y-92205752D01*
X143899122Y-92396228D02*
X143946741Y-92300990D01*
X143946741Y-92300990D02*
X143994360Y-92253371D01*
X143994360Y-92253371D02*
X144089598Y-92205752D01*
X144089598Y-92205752D02*
X144184836Y-92205752D01*
X144946741Y-92872419D02*
X144946741Y-92348609D01*
X144946741Y-92348609D02*
X144899122Y-92253371D01*
X144899122Y-92253371D02*
X144803884Y-92205752D01*
X144803884Y-92205752D02*
X144613408Y-92205752D01*
X144613408Y-92205752D02*
X144518170Y-92253371D01*
X144946741Y-92824800D02*
X144851503Y-92872419D01*
X144851503Y-92872419D02*
X144613408Y-92872419D01*
X144613408Y-92872419D02*
X144518170Y-92824800D01*
X144518170Y-92824800D02*
X144470551Y-92729561D01*
X144470551Y-92729561D02*
X144470551Y-92634323D01*
X144470551Y-92634323D02*
X144518170Y-92539085D01*
X144518170Y-92539085D02*
X144613408Y-92491466D01*
X144613408Y-92491466D02*
X144851503Y-92491466D01*
X144851503Y-92491466D02*
X144946741Y-92443847D01*
X142102756Y-76505051D02*
X142369422Y-76505051D01*
X142483708Y-76924099D02*
X142102756Y-76924099D01*
X142102756Y-76924099D02*
X142102756Y-76124099D01*
X142102756Y-76124099D02*
X142483708Y-76124099D01*
X142788470Y-76886004D02*
X142902756Y-76924099D01*
X142902756Y-76924099D02*
X143093232Y-76924099D01*
X143093232Y-76924099D02*
X143169423Y-76886004D01*
X143169423Y-76886004D02*
X143207518Y-76847908D01*
X143207518Y-76847908D02*
X143245613Y-76771718D01*
X143245613Y-76771718D02*
X143245613Y-76695527D01*
X143245613Y-76695527D02*
X143207518Y-76619337D01*
X143207518Y-76619337D02*
X143169423Y-76581242D01*
X143169423Y-76581242D02*
X143093232Y-76543146D01*
X143093232Y-76543146D02*
X142940851Y-76505051D01*
X142940851Y-76505051D02*
X142864661Y-76466956D01*
X142864661Y-76466956D02*
X142826566Y-76428861D01*
X142826566Y-76428861D02*
X142788470Y-76352670D01*
X142788470Y-76352670D02*
X142788470Y-76276480D01*
X142788470Y-76276480D02*
X142826566Y-76200289D01*
X142826566Y-76200289D02*
X142864661Y-76162194D01*
X142864661Y-76162194D02*
X142940851Y-76124099D01*
X142940851Y-76124099D02*
X143131328Y-76124099D01*
X143131328Y-76124099D02*
X143245613Y-76162194D01*
X143588471Y-76924099D02*
X143588471Y-76124099D01*
X143588471Y-76124099D02*
X143893233Y-76124099D01*
X143893233Y-76124099D02*
X143969423Y-76162194D01*
X143969423Y-76162194D02*
X144007518Y-76200289D01*
X144007518Y-76200289D02*
X144045614Y-76276480D01*
X144045614Y-76276480D02*
X144045614Y-76390765D01*
X144045614Y-76390765D02*
X144007518Y-76466956D01*
X144007518Y-76466956D02*
X143969423Y-76505051D01*
X143969423Y-76505051D02*
X143893233Y-76543146D01*
X143893233Y-76543146D02*
X143588471Y-76543146D01*
X144312280Y-76124099D02*
X144807518Y-76124099D01*
X144807518Y-76124099D02*
X144540852Y-76428861D01*
X144540852Y-76428861D02*
X144655137Y-76428861D01*
X144655137Y-76428861D02*
X144731328Y-76466956D01*
X144731328Y-76466956D02*
X144769423Y-76505051D01*
X144769423Y-76505051D02*
X144807518Y-76581242D01*
X144807518Y-76581242D02*
X144807518Y-76771718D01*
X144807518Y-76771718D02*
X144769423Y-76847908D01*
X144769423Y-76847908D02*
X144731328Y-76886004D01*
X144731328Y-76886004D02*
X144655137Y-76924099D01*
X144655137Y-76924099D02*
X144426566Y-76924099D01*
X144426566Y-76924099D02*
X144350375Y-76886004D01*
X144350375Y-76886004D02*
X144312280Y-76847908D01*
X145112280Y-76200289D02*
X145150376Y-76162194D01*
X145150376Y-76162194D02*
X145226566Y-76124099D01*
X145226566Y-76124099D02*
X145417042Y-76124099D01*
X145417042Y-76124099D02*
X145493233Y-76162194D01*
X145493233Y-76162194D02*
X145531328Y-76200289D01*
X145531328Y-76200289D02*
X145569423Y-76276480D01*
X145569423Y-76276480D02*
X145569423Y-76352670D01*
X145569423Y-76352670D02*
X145531328Y-76466956D01*
X145531328Y-76466956D02*
X145074185Y-76924099D01*
X145074185Y-76924099D02*
X145569423Y-76924099D01*
X145912281Y-76619337D02*
X146521805Y-76619337D01*
X146864661Y-76886004D02*
X146978947Y-76924099D01*
X146978947Y-76924099D02*
X147169423Y-76924099D01*
X147169423Y-76924099D02*
X147245614Y-76886004D01*
X147245614Y-76886004D02*
X147283709Y-76847908D01*
X147283709Y-76847908D02*
X147321804Y-76771718D01*
X147321804Y-76771718D02*
X147321804Y-76695527D01*
X147321804Y-76695527D02*
X147283709Y-76619337D01*
X147283709Y-76619337D02*
X147245614Y-76581242D01*
X147245614Y-76581242D02*
X147169423Y-76543146D01*
X147169423Y-76543146D02*
X147017042Y-76505051D01*
X147017042Y-76505051D02*
X146940852Y-76466956D01*
X146940852Y-76466956D02*
X146902757Y-76428861D01*
X146902757Y-76428861D02*
X146864661Y-76352670D01*
X146864661Y-76352670D02*
X146864661Y-76276480D01*
X146864661Y-76276480D02*
X146902757Y-76200289D01*
X146902757Y-76200289D02*
X146940852Y-76162194D01*
X146940852Y-76162194D02*
X147017042Y-76124099D01*
X147017042Y-76124099D02*
X147207519Y-76124099D01*
X147207519Y-76124099D02*
X147321804Y-76162194D01*
X147588471Y-76124099D02*
X148083709Y-76124099D01*
X148083709Y-76124099D02*
X147817043Y-76428861D01*
X147817043Y-76428861D02*
X147931328Y-76428861D01*
X147931328Y-76428861D02*
X148007519Y-76466956D01*
X148007519Y-76466956D02*
X148045614Y-76505051D01*
X148045614Y-76505051D02*
X148083709Y-76581242D01*
X148083709Y-76581242D02*
X148083709Y-76771718D01*
X148083709Y-76771718D02*
X148045614Y-76847908D01*
X148045614Y-76847908D02*
X148007519Y-76886004D01*
X148007519Y-76886004D02*
X147931328Y-76924099D01*
X147931328Y-76924099D02*
X147702757Y-76924099D01*
X147702757Y-76924099D02*
X147626566Y-76886004D01*
X147626566Y-76886004D02*
X147588471Y-76847908D01*
D11*
X121915895Y-57289160D02*
X121915895Y-57765350D01*
X121630180Y-57193922D02*
X122630180Y-57527255D01*
X122630180Y-57527255D02*
X121630180Y-57860588D01*
X121677800Y-58146303D02*
X121630180Y-58241541D01*
X121630180Y-58241541D02*
X121630180Y-58432017D01*
X121630180Y-58432017D02*
X121677800Y-58527255D01*
X121677800Y-58527255D02*
X121773038Y-58574874D01*
X121773038Y-58574874D02*
X121820657Y-58574874D01*
X121820657Y-58574874D02*
X121915895Y-58527255D01*
X121915895Y-58527255D02*
X121963514Y-58432017D01*
X121963514Y-58432017D02*
X121963514Y-58289160D01*
X121963514Y-58289160D02*
X122011133Y-58193922D01*
X122011133Y-58193922D02*
X122106371Y-58146303D01*
X122106371Y-58146303D02*
X122153990Y-58146303D01*
X122153990Y-58146303D02*
X122249228Y-58193922D01*
X122249228Y-58193922D02*
X122296847Y-58289160D01*
X122296847Y-58289160D02*
X122296847Y-58432017D01*
X122296847Y-58432017D02*
X122249228Y-58527255D01*
X121677800Y-58955827D02*
X121630180Y-59051065D01*
X121630180Y-59051065D02*
X121630180Y-59241541D01*
X121630180Y-59241541D02*
X121677800Y-59336779D01*
X121677800Y-59336779D02*
X121773038Y-59384398D01*
X121773038Y-59384398D02*
X121820657Y-59384398D01*
X121820657Y-59384398D02*
X121915895Y-59336779D01*
X121915895Y-59336779D02*
X121963514Y-59241541D01*
X121963514Y-59241541D02*
X121963514Y-59098684D01*
X121963514Y-59098684D02*
X122011133Y-59003446D01*
X122011133Y-59003446D02*
X122106371Y-58955827D01*
X122106371Y-58955827D02*
X122153990Y-58955827D01*
X122153990Y-58955827D02*
X122249228Y-59003446D01*
X122249228Y-59003446D02*
X122296847Y-59098684D01*
X122296847Y-59098684D02*
X122296847Y-59241541D01*
X122296847Y-59241541D02*
X122249228Y-59336779D01*
X121677800Y-60193922D02*
X121630180Y-60098684D01*
X121630180Y-60098684D02*
X121630180Y-59908208D01*
X121630180Y-59908208D02*
X121677800Y-59812970D01*
X121677800Y-59812970D02*
X121773038Y-59765351D01*
X121773038Y-59765351D02*
X122153990Y-59765351D01*
X122153990Y-59765351D02*
X122249228Y-59812970D01*
X122249228Y-59812970D02*
X122296847Y-59908208D01*
X122296847Y-59908208D02*
X122296847Y-60098684D01*
X122296847Y-60098684D02*
X122249228Y-60193922D01*
X122249228Y-60193922D02*
X122153990Y-60241541D01*
X122153990Y-60241541D02*
X122058752Y-60241541D01*
X122058752Y-60241541D02*
X121963514Y-59765351D01*
X121630180Y-60670113D02*
X122296847Y-60670113D01*
X122201609Y-60670113D02*
X122249228Y-60717732D01*
X122249228Y-60717732D02*
X122296847Y-60812970D01*
X122296847Y-60812970D02*
X122296847Y-60955827D01*
X122296847Y-60955827D02*
X122249228Y-61051065D01*
X122249228Y-61051065D02*
X122153990Y-61098684D01*
X122153990Y-61098684D02*
X121630180Y-61098684D01*
X122153990Y-61098684D02*
X122249228Y-61146303D01*
X122249228Y-61146303D02*
X122296847Y-61241541D01*
X122296847Y-61241541D02*
X122296847Y-61384398D01*
X122296847Y-61384398D02*
X122249228Y-61479637D01*
X122249228Y-61479637D02*
X122153990Y-61527256D01*
X122153990Y-61527256D02*
X121630180Y-61527256D01*
X121630180Y-62003446D02*
X122630180Y-62003446D01*
X122249228Y-62003446D02*
X122296847Y-62098684D01*
X122296847Y-62098684D02*
X122296847Y-62289160D01*
X122296847Y-62289160D02*
X122249228Y-62384398D01*
X122249228Y-62384398D02*
X122201609Y-62432017D01*
X122201609Y-62432017D02*
X122106371Y-62479636D01*
X122106371Y-62479636D02*
X121820657Y-62479636D01*
X121820657Y-62479636D02*
X121725419Y-62432017D01*
X121725419Y-62432017D02*
X121677800Y-62384398D01*
X121677800Y-62384398D02*
X121630180Y-62289160D01*
X121630180Y-62289160D02*
X121630180Y-62098684D01*
X121630180Y-62098684D02*
X121677800Y-62003446D01*
X121630180Y-63051065D02*
X121677800Y-62955827D01*
X121677800Y-62955827D02*
X121773038Y-62908208D01*
X121773038Y-62908208D02*
X122630180Y-62908208D01*
X121677800Y-63812970D02*
X121630180Y-63717732D01*
X121630180Y-63717732D02*
X121630180Y-63527256D01*
X121630180Y-63527256D02*
X121677800Y-63432018D01*
X121677800Y-63432018D02*
X121773038Y-63384399D01*
X121773038Y-63384399D02*
X122153990Y-63384399D01*
X122153990Y-63384399D02*
X122249228Y-63432018D01*
X122249228Y-63432018D02*
X122296847Y-63527256D01*
X122296847Y-63527256D02*
X122296847Y-63717732D01*
X122296847Y-63717732D02*
X122249228Y-63812970D01*
X122249228Y-63812970D02*
X122153990Y-63860589D01*
X122153990Y-63860589D02*
X122058752Y-63860589D01*
X122058752Y-63860589D02*
X121963514Y-63384399D01*
X121630180Y-64717732D02*
X122630180Y-64717732D01*
X121677800Y-64717732D02*
X121630180Y-64622494D01*
X121630180Y-64622494D02*
X121630180Y-64432018D01*
X121630180Y-64432018D02*
X121677800Y-64336780D01*
X121677800Y-64336780D02*
X121725419Y-64289161D01*
X121725419Y-64289161D02*
X121820657Y-64241542D01*
X121820657Y-64241542D02*
X122106371Y-64241542D01*
X122106371Y-64241542D02*
X122201609Y-64289161D01*
X122201609Y-64289161D02*
X122249228Y-64336780D01*
X122249228Y-64336780D02*
X122296847Y-64432018D01*
X122296847Y-64432018D02*
X122296847Y-64622494D01*
X122296847Y-64622494D02*
X122249228Y-64717732D01*
X121630180Y-65955828D02*
X122296847Y-65955828D01*
X122630180Y-65955828D02*
X122582561Y-65908209D01*
X122582561Y-65908209D02*
X122534942Y-65955828D01*
X122534942Y-65955828D02*
X122582561Y-66003447D01*
X122582561Y-66003447D02*
X122630180Y-65955828D01*
X122630180Y-65955828D02*
X122534942Y-65955828D01*
X122296847Y-66432018D02*
X121630180Y-66432018D01*
X122201609Y-66432018D02*
X122249228Y-66479637D01*
X122249228Y-66479637D02*
X122296847Y-66574875D01*
X122296847Y-66574875D02*
X122296847Y-66717732D01*
X122296847Y-66717732D02*
X122249228Y-66812970D01*
X122249228Y-66812970D02*
X122153990Y-66860589D01*
X122153990Y-66860589D02*
X121630180Y-66860589D01*
X122630180Y-68384399D02*
X121915895Y-68384399D01*
X121915895Y-68384399D02*
X121773038Y-68336780D01*
X121773038Y-68336780D02*
X121677800Y-68241542D01*
X121677800Y-68241542D02*
X121630180Y-68098685D01*
X121630180Y-68098685D02*
X121630180Y-68003447D01*
X121630180Y-69289161D02*
X122153990Y-69289161D01*
X122153990Y-69289161D02*
X122249228Y-69241542D01*
X122249228Y-69241542D02*
X122296847Y-69146304D01*
X122296847Y-69146304D02*
X122296847Y-68955828D01*
X122296847Y-68955828D02*
X122249228Y-68860590D01*
X121677800Y-69289161D02*
X121630180Y-69193923D01*
X121630180Y-69193923D02*
X121630180Y-68955828D01*
X121630180Y-68955828D02*
X121677800Y-68860590D01*
X121677800Y-68860590D02*
X121773038Y-68812971D01*
X121773038Y-68812971D02*
X121868276Y-68812971D01*
X121868276Y-68812971D02*
X121963514Y-68860590D01*
X121963514Y-68860590D02*
X122011133Y-68955828D01*
X122011133Y-68955828D02*
X122011133Y-69193923D01*
X122011133Y-69193923D02*
X122058752Y-69289161D01*
X122296847Y-69765352D02*
X121296847Y-69765352D01*
X122249228Y-69765352D02*
X122296847Y-69860590D01*
X122296847Y-69860590D02*
X122296847Y-70051066D01*
X122296847Y-70051066D02*
X122249228Y-70146304D01*
X122249228Y-70146304D02*
X122201609Y-70193923D01*
X122201609Y-70193923D02*
X122106371Y-70241542D01*
X122106371Y-70241542D02*
X121820657Y-70241542D01*
X121820657Y-70241542D02*
X121725419Y-70193923D01*
X121725419Y-70193923D02*
X121677800Y-70146304D01*
X121677800Y-70146304D02*
X121630180Y-70051066D01*
X121630180Y-70051066D02*
X121630180Y-69860590D01*
X121630180Y-69860590D02*
X121677800Y-69765352D01*
X121630180Y-71098685D02*
X122153990Y-71098685D01*
X122153990Y-71098685D02*
X122249228Y-71051066D01*
X122249228Y-71051066D02*
X122296847Y-70955828D01*
X122296847Y-70955828D02*
X122296847Y-70765352D01*
X122296847Y-70765352D02*
X122249228Y-70670114D01*
X121677800Y-71098685D02*
X121630180Y-71003447D01*
X121630180Y-71003447D02*
X121630180Y-70765352D01*
X121630180Y-70765352D02*
X121677800Y-70670114D01*
X121677800Y-70670114D02*
X121773038Y-70622495D01*
X121773038Y-70622495D02*
X121868276Y-70622495D01*
X121868276Y-70622495D02*
X121963514Y-70670114D01*
X121963514Y-70670114D02*
X122011133Y-70765352D01*
X122011133Y-70765352D02*
X122011133Y-71003447D01*
X122011133Y-71003447D02*
X122058752Y-71098685D01*
X122296847Y-71574876D02*
X121630180Y-71574876D01*
X122201609Y-71574876D02*
X122249228Y-71622495D01*
X122249228Y-71622495D02*
X122296847Y-71717733D01*
X122296847Y-71717733D02*
X122296847Y-71860590D01*
X122296847Y-71860590D02*
X122249228Y-71955828D01*
X122249228Y-71955828D02*
X122153990Y-72003447D01*
X122153990Y-72003447D02*
X121630180Y-72003447D01*
D10*
X177872419Y-79196115D02*
X178681942Y-79196115D01*
X178681942Y-79196115D02*
X178777180Y-79148496D01*
X178777180Y-79148496D02*
X178824800Y-79100877D01*
X178824800Y-79100877D02*
X178872419Y-79005639D01*
X178872419Y-79005639D02*
X178872419Y-78815163D01*
X178872419Y-78815163D02*
X178824800Y-78719925D01*
X178824800Y-78719925D02*
X178777180Y-78672306D01*
X178777180Y-78672306D02*
X178681942Y-78624687D01*
X178681942Y-78624687D02*
X177872419Y-78624687D01*
X178824800Y-78196115D02*
X178872419Y-78053258D01*
X178872419Y-78053258D02*
X178872419Y-77815163D01*
X178872419Y-77815163D02*
X178824800Y-77719925D01*
X178824800Y-77719925D02*
X178777180Y-77672306D01*
X178777180Y-77672306D02*
X178681942Y-77624687D01*
X178681942Y-77624687D02*
X178586704Y-77624687D01*
X178586704Y-77624687D02*
X178491466Y-77672306D01*
X178491466Y-77672306D02*
X178443847Y-77719925D01*
X178443847Y-77719925D02*
X178396228Y-77815163D01*
X178396228Y-77815163D02*
X178348609Y-78005639D01*
X178348609Y-78005639D02*
X178300990Y-78100877D01*
X178300990Y-78100877D02*
X178253371Y-78148496D01*
X178253371Y-78148496D02*
X178158133Y-78196115D01*
X178158133Y-78196115D02*
X178062895Y-78196115D01*
X178062895Y-78196115D02*
X177967657Y-78148496D01*
X177967657Y-78148496D02*
X177920038Y-78100877D01*
X177920038Y-78100877D02*
X177872419Y-78005639D01*
X177872419Y-78005639D02*
X177872419Y-77767544D01*
X177872419Y-77767544D02*
X177920038Y-77624687D01*
X178348609Y-76862782D02*
X178396228Y-76719925D01*
X178396228Y-76719925D02*
X178443847Y-76672306D01*
X178443847Y-76672306D02*
X178539085Y-76624687D01*
X178539085Y-76624687D02*
X178681942Y-76624687D01*
X178681942Y-76624687D02*
X178777180Y-76672306D01*
X178777180Y-76672306D02*
X178824800Y-76719925D01*
X178824800Y-76719925D02*
X178872419Y-76815163D01*
X178872419Y-76815163D02*
X178872419Y-77196115D01*
X178872419Y-77196115D02*
X177872419Y-77196115D01*
X177872419Y-77196115D02*
X177872419Y-76862782D01*
X177872419Y-76862782D02*
X177920038Y-76767544D01*
X177920038Y-76767544D02*
X177967657Y-76719925D01*
X177967657Y-76719925D02*
X178062895Y-76672306D01*
X178062895Y-76672306D02*
X178158133Y-76672306D01*
X178158133Y-76672306D02*
X178253371Y-76719925D01*
X178253371Y-76719925D02*
X178300990Y-76767544D01*
X178300990Y-76767544D02*
X178348609Y-76862782D01*
X178348609Y-76862782D02*
X178348609Y-77196115D01*
X177872419Y-75577067D02*
X177872419Y-75005639D01*
X178872419Y-75291353D02*
X177872419Y-75291353D01*
X178205752Y-74767543D02*
X178872419Y-74529448D01*
X178205752Y-74291353D02*
X178872419Y-74529448D01*
X178872419Y-74529448D02*
X179110514Y-74624686D01*
X179110514Y-74624686D02*
X179158133Y-74672305D01*
X179158133Y-74672305D02*
X179205752Y-74767543D01*
X178205752Y-73910400D02*
X179205752Y-73910400D01*
X178253371Y-73910400D02*
X178205752Y-73815162D01*
X178205752Y-73815162D02*
X178205752Y-73624686D01*
X178205752Y-73624686D02*
X178253371Y-73529448D01*
X178253371Y-73529448D02*
X178300990Y-73481829D01*
X178300990Y-73481829D02*
X178396228Y-73434210D01*
X178396228Y-73434210D02*
X178681942Y-73434210D01*
X178681942Y-73434210D02*
X178777180Y-73481829D01*
X178777180Y-73481829D02*
X178824800Y-73529448D01*
X178824800Y-73529448D02*
X178872419Y-73624686D01*
X178872419Y-73624686D02*
X178872419Y-73815162D01*
X178872419Y-73815162D02*
X178824800Y-73910400D01*
X178824800Y-72624686D02*
X178872419Y-72719924D01*
X178872419Y-72719924D02*
X178872419Y-72910400D01*
X178872419Y-72910400D02*
X178824800Y-73005638D01*
X178824800Y-73005638D02*
X178729561Y-73053257D01*
X178729561Y-73053257D02*
X178348609Y-73053257D01*
X178348609Y-73053257D02*
X178253371Y-73005638D01*
X178253371Y-73005638D02*
X178205752Y-72910400D01*
X178205752Y-72910400D02*
X178205752Y-72719924D01*
X178205752Y-72719924D02*
X178253371Y-72624686D01*
X178253371Y-72624686D02*
X178348609Y-72577067D01*
X178348609Y-72577067D02*
X178443847Y-72577067D01*
X178443847Y-72577067D02*
X178539085Y-73053257D01*
X178491466Y-72148495D02*
X178491466Y-71386591D01*
X178777180Y-70338972D02*
X178824800Y-70386591D01*
X178824800Y-70386591D02*
X178872419Y-70529448D01*
X178872419Y-70529448D02*
X178872419Y-70624686D01*
X178872419Y-70624686D02*
X178824800Y-70767543D01*
X178824800Y-70767543D02*
X178729561Y-70862781D01*
X178729561Y-70862781D02*
X178634323Y-70910400D01*
X178634323Y-70910400D02*
X178443847Y-70958019D01*
X178443847Y-70958019D02*
X178300990Y-70958019D01*
X178300990Y-70958019D02*
X178110514Y-70910400D01*
X178110514Y-70910400D02*
X178015276Y-70862781D01*
X178015276Y-70862781D02*
X177920038Y-70767543D01*
X177920038Y-70767543D02*
X177872419Y-70624686D01*
X177872419Y-70624686D02*
X177872419Y-70529448D01*
X177872419Y-70529448D02*
X177920038Y-70386591D01*
X177920038Y-70386591D02*
X177967657Y-70338972D01*
D11*
X118630180Y-57336779D02*
X119630180Y-57336779D01*
X119630180Y-57336779D02*
X119630180Y-57574874D01*
X119630180Y-57574874D02*
X119582561Y-57717731D01*
X119582561Y-57717731D02*
X119487323Y-57812969D01*
X119487323Y-57812969D02*
X119392085Y-57860588D01*
X119392085Y-57860588D02*
X119201609Y-57908207D01*
X119201609Y-57908207D02*
X119058752Y-57908207D01*
X119058752Y-57908207D02*
X118868276Y-57860588D01*
X118868276Y-57860588D02*
X118773038Y-57812969D01*
X118773038Y-57812969D02*
X118677800Y-57717731D01*
X118677800Y-57717731D02*
X118630180Y-57574874D01*
X118630180Y-57574874D02*
X118630180Y-57336779D01*
X118677800Y-58717731D02*
X118630180Y-58622493D01*
X118630180Y-58622493D02*
X118630180Y-58432017D01*
X118630180Y-58432017D02*
X118677800Y-58336779D01*
X118677800Y-58336779D02*
X118773038Y-58289160D01*
X118773038Y-58289160D02*
X119153990Y-58289160D01*
X119153990Y-58289160D02*
X119249228Y-58336779D01*
X119249228Y-58336779D02*
X119296847Y-58432017D01*
X119296847Y-58432017D02*
X119296847Y-58622493D01*
X119296847Y-58622493D02*
X119249228Y-58717731D01*
X119249228Y-58717731D02*
X119153990Y-58765350D01*
X119153990Y-58765350D02*
X119058752Y-58765350D01*
X119058752Y-58765350D02*
X118963514Y-58289160D01*
X118677800Y-59146303D02*
X118630180Y-59241541D01*
X118630180Y-59241541D02*
X118630180Y-59432017D01*
X118630180Y-59432017D02*
X118677800Y-59527255D01*
X118677800Y-59527255D02*
X118773038Y-59574874D01*
X118773038Y-59574874D02*
X118820657Y-59574874D01*
X118820657Y-59574874D02*
X118915895Y-59527255D01*
X118915895Y-59527255D02*
X118963514Y-59432017D01*
X118963514Y-59432017D02*
X118963514Y-59289160D01*
X118963514Y-59289160D02*
X119011133Y-59193922D01*
X119011133Y-59193922D02*
X119106371Y-59146303D01*
X119106371Y-59146303D02*
X119153990Y-59146303D01*
X119153990Y-59146303D02*
X119249228Y-59193922D01*
X119249228Y-59193922D02*
X119296847Y-59289160D01*
X119296847Y-59289160D02*
X119296847Y-59432017D01*
X119296847Y-59432017D02*
X119249228Y-59527255D01*
X118630180Y-60003446D02*
X119296847Y-60003446D01*
X119630180Y-60003446D02*
X119582561Y-59955827D01*
X119582561Y-59955827D02*
X119534942Y-60003446D01*
X119534942Y-60003446D02*
X119582561Y-60051065D01*
X119582561Y-60051065D02*
X119630180Y-60003446D01*
X119630180Y-60003446D02*
X119534942Y-60003446D01*
X119296847Y-60908207D02*
X118487323Y-60908207D01*
X118487323Y-60908207D02*
X118392085Y-60860588D01*
X118392085Y-60860588D02*
X118344466Y-60812969D01*
X118344466Y-60812969D02*
X118296847Y-60717731D01*
X118296847Y-60717731D02*
X118296847Y-60574874D01*
X118296847Y-60574874D02*
X118344466Y-60479636D01*
X118677800Y-60908207D02*
X118630180Y-60812969D01*
X118630180Y-60812969D02*
X118630180Y-60622493D01*
X118630180Y-60622493D02*
X118677800Y-60527255D01*
X118677800Y-60527255D02*
X118725419Y-60479636D01*
X118725419Y-60479636D02*
X118820657Y-60432017D01*
X118820657Y-60432017D02*
X119106371Y-60432017D01*
X119106371Y-60432017D02*
X119201609Y-60479636D01*
X119201609Y-60479636D02*
X119249228Y-60527255D01*
X119249228Y-60527255D02*
X119296847Y-60622493D01*
X119296847Y-60622493D02*
X119296847Y-60812969D01*
X119296847Y-60812969D02*
X119249228Y-60908207D01*
X119296847Y-61384398D02*
X118630180Y-61384398D01*
X119201609Y-61384398D02*
X119249228Y-61432017D01*
X119249228Y-61432017D02*
X119296847Y-61527255D01*
X119296847Y-61527255D02*
X119296847Y-61670112D01*
X119296847Y-61670112D02*
X119249228Y-61765350D01*
X119249228Y-61765350D02*
X119153990Y-61812969D01*
X119153990Y-61812969D02*
X118630180Y-61812969D01*
X118677800Y-62670112D02*
X118630180Y-62574874D01*
X118630180Y-62574874D02*
X118630180Y-62384398D01*
X118630180Y-62384398D02*
X118677800Y-62289160D01*
X118677800Y-62289160D02*
X118773038Y-62241541D01*
X118773038Y-62241541D02*
X119153990Y-62241541D01*
X119153990Y-62241541D02*
X119249228Y-62289160D01*
X119249228Y-62289160D02*
X119296847Y-62384398D01*
X119296847Y-62384398D02*
X119296847Y-62574874D01*
X119296847Y-62574874D02*
X119249228Y-62670112D01*
X119249228Y-62670112D02*
X119153990Y-62717731D01*
X119153990Y-62717731D02*
X119058752Y-62717731D01*
X119058752Y-62717731D02*
X118963514Y-62241541D01*
X118630180Y-63574874D02*
X119630180Y-63574874D01*
X118677800Y-63574874D02*
X118630180Y-63479636D01*
X118630180Y-63479636D02*
X118630180Y-63289160D01*
X118630180Y-63289160D02*
X118677800Y-63193922D01*
X118677800Y-63193922D02*
X118725419Y-63146303D01*
X118725419Y-63146303D02*
X118820657Y-63098684D01*
X118820657Y-63098684D02*
X119106371Y-63098684D01*
X119106371Y-63098684D02*
X119201609Y-63146303D01*
X119201609Y-63146303D02*
X119249228Y-63193922D01*
X119249228Y-63193922D02*
X119296847Y-63289160D01*
X119296847Y-63289160D02*
X119296847Y-63479636D01*
X119296847Y-63479636D02*
X119249228Y-63574874D01*
X118630180Y-64812970D02*
X119630180Y-64812970D01*
X119249228Y-64812970D02*
X119296847Y-64908208D01*
X119296847Y-64908208D02*
X119296847Y-65098684D01*
X119296847Y-65098684D02*
X119249228Y-65193922D01*
X119249228Y-65193922D02*
X119201609Y-65241541D01*
X119201609Y-65241541D02*
X119106371Y-65289160D01*
X119106371Y-65289160D02*
X118820657Y-65289160D01*
X118820657Y-65289160D02*
X118725419Y-65241541D01*
X118725419Y-65241541D02*
X118677800Y-65193922D01*
X118677800Y-65193922D02*
X118630180Y-65098684D01*
X118630180Y-65098684D02*
X118630180Y-64908208D01*
X118630180Y-64908208D02*
X118677800Y-64812970D01*
X119296847Y-65622494D02*
X118630180Y-65860589D01*
X119296847Y-66098684D02*
X118630180Y-65860589D01*
X118630180Y-65860589D02*
X118392085Y-65765351D01*
X118392085Y-65765351D02*
X118344466Y-65717732D01*
X118344466Y-65717732D02*
X118296847Y-65622494D01*
X118630180Y-67241542D02*
X119630180Y-67241542D01*
X119153990Y-67241542D02*
X119153990Y-67812970D01*
X118630180Y-67812970D02*
X119630180Y-67812970D01*
X118725419Y-68289161D02*
X118677800Y-68336780D01*
X118677800Y-68336780D02*
X118630180Y-68289161D01*
X118630180Y-68289161D02*
X118677800Y-68241542D01*
X118677800Y-68241542D02*
X118725419Y-68289161D01*
X118725419Y-68289161D02*
X118630180Y-68289161D01*
X118630180Y-69527256D02*
X119630180Y-69527256D01*
X119153990Y-69527256D02*
X119153990Y-70098684D01*
X118630180Y-70098684D02*
X119630180Y-70098684D01*
X118630180Y-70574875D02*
X119296847Y-70574875D01*
X119630180Y-70574875D02*
X119582561Y-70527256D01*
X119582561Y-70527256D02*
X119534942Y-70574875D01*
X119534942Y-70574875D02*
X119582561Y-70622494D01*
X119582561Y-70622494D02*
X119630180Y-70574875D01*
X119630180Y-70574875D02*
X119534942Y-70574875D01*
X118630180Y-71051065D02*
X119296847Y-71051065D01*
X119106371Y-71051065D02*
X119201609Y-71098684D01*
X119201609Y-71098684D02*
X119249228Y-71146303D01*
X119249228Y-71146303D02*
X119296847Y-71241541D01*
X119296847Y-71241541D02*
X119296847Y-71336779D01*
X118630180Y-72098684D02*
X119153990Y-72098684D01*
X119153990Y-72098684D02*
X119249228Y-72051065D01*
X119249228Y-72051065D02*
X119296847Y-71955827D01*
X119296847Y-71955827D02*
X119296847Y-71765351D01*
X119296847Y-71765351D02*
X119249228Y-71670113D01*
X118677800Y-72098684D02*
X118630180Y-72003446D01*
X118630180Y-72003446D02*
X118630180Y-71765351D01*
X118630180Y-71765351D02*
X118677800Y-71670113D01*
X118677800Y-71670113D02*
X118773038Y-71622494D01*
X118773038Y-71622494D02*
X118868276Y-71622494D01*
X118868276Y-71622494D02*
X118963514Y-71670113D01*
X118963514Y-71670113D02*
X119011133Y-71765351D01*
X119011133Y-71765351D02*
X119011133Y-72003446D01*
X119011133Y-72003446D02*
X119058752Y-72098684D01*
X118677800Y-72527256D02*
X118630180Y-72622494D01*
X118630180Y-72622494D02*
X118630180Y-72812970D01*
X118630180Y-72812970D02*
X118677800Y-72908208D01*
X118677800Y-72908208D02*
X118773038Y-72955827D01*
X118773038Y-72955827D02*
X118820657Y-72955827D01*
X118820657Y-72955827D02*
X118915895Y-72908208D01*
X118915895Y-72908208D02*
X118963514Y-72812970D01*
X118963514Y-72812970D02*
X118963514Y-72670113D01*
X118963514Y-72670113D02*
X119011133Y-72574875D01*
X119011133Y-72574875D02*
X119106371Y-72527256D01*
X119106371Y-72527256D02*
X119153990Y-72527256D01*
X119153990Y-72527256D02*
X119249228Y-72574875D01*
X119249228Y-72574875D02*
X119296847Y-72670113D01*
X119296847Y-72670113D02*
X119296847Y-72812970D01*
X119296847Y-72812970D02*
X119249228Y-72908208D01*
X118630180Y-73812970D02*
X119153990Y-73812970D01*
X119153990Y-73812970D02*
X119249228Y-73765351D01*
X119249228Y-73765351D02*
X119296847Y-73670113D01*
X119296847Y-73670113D02*
X119296847Y-73479637D01*
X119296847Y-73479637D02*
X119249228Y-73384399D01*
X118677800Y-73812970D02*
X118630180Y-73717732D01*
X118630180Y-73717732D02*
X118630180Y-73479637D01*
X118630180Y-73479637D02*
X118677800Y-73384399D01*
X118677800Y-73384399D02*
X118773038Y-73336780D01*
X118773038Y-73336780D02*
X118868276Y-73336780D01*
X118868276Y-73336780D02*
X118963514Y-73384399D01*
X118963514Y-73384399D02*
X119011133Y-73479637D01*
X119011133Y-73479637D02*
X119011133Y-73717732D01*
X119011133Y-73717732D02*
X119058752Y-73812970D01*
X119296847Y-74193923D02*
X118630180Y-74384399D01*
X118630180Y-74384399D02*
X119106371Y-74574875D01*
X119106371Y-74574875D02*
X118630180Y-74765351D01*
X118630180Y-74765351D02*
X119296847Y-74955827D01*
X118630180Y-75765351D02*
X119153990Y-75765351D01*
X119153990Y-75765351D02*
X119249228Y-75717732D01*
X119249228Y-75717732D02*
X119296847Y-75622494D01*
X119296847Y-75622494D02*
X119296847Y-75432018D01*
X119296847Y-75432018D02*
X119249228Y-75336780D01*
X118677800Y-75765351D02*
X118630180Y-75670113D01*
X118630180Y-75670113D02*
X118630180Y-75432018D01*
X118630180Y-75432018D02*
X118677800Y-75336780D01*
X118677800Y-75336780D02*
X118773038Y-75289161D01*
X118773038Y-75289161D02*
X118868276Y-75289161D01*
X118868276Y-75289161D02*
X118963514Y-75336780D01*
X118963514Y-75336780D02*
X119011133Y-75432018D01*
X119011133Y-75432018D02*
X119011133Y-75670113D01*
X119011133Y-75670113D02*
X119058752Y-75765351D01*
X154857142Y-92929580D02*
X154809523Y-92977200D01*
X154809523Y-92977200D02*
X154666666Y-93024819D01*
X154666666Y-93024819D02*
X154571428Y-93024819D01*
X154571428Y-93024819D02*
X154428571Y-92977200D01*
X154428571Y-92977200D02*
X154333333Y-92881961D01*
X154333333Y-92881961D02*
X154285714Y-92786723D01*
X154285714Y-92786723D02*
X154238095Y-92596247D01*
X154238095Y-92596247D02*
X154238095Y-92453390D01*
X154238095Y-92453390D02*
X154285714Y-92262914D01*
X154285714Y-92262914D02*
X154333333Y-92167676D01*
X154333333Y-92167676D02*
X154428571Y-92072438D01*
X154428571Y-92072438D02*
X154571428Y-92024819D01*
X154571428Y-92024819D02*
X154666666Y-92024819D01*
X154666666Y-92024819D02*
X154809523Y-92072438D01*
X154809523Y-92072438D02*
X154857142Y-92120057D01*
X155809523Y-93024819D02*
X155238095Y-93024819D01*
X155523809Y-93024819D02*
X155523809Y-92024819D01*
X155523809Y-92024819D02*
X155428571Y-92167676D01*
X155428571Y-92167676D02*
X155333333Y-92262914D01*
X155333333Y-92262914D02*
X155238095Y-92310533D01*
X156142857Y-92024819D02*
X156761904Y-92024819D01*
X156761904Y-92024819D02*
X156428571Y-92405771D01*
X156428571Y-92405771D02*
X156571428Y-92405771D01*
X156571428Y-92405771D02*
X156666666Y-92453390D01*
X156666666Y-92453390D02*
X156714285Y-92501009D01*
X156714285Y-92501009D02*
X156761904Y-92596247D01*
X156761904Y-92596247D02*
X156761904Y-92834342D01*
X156761904Y-92834342D02*
X156714285Y-92929580D01*
X156714285Y-92929580D02*
X156666666Y-92977200D01*
X156666666Y-92977200D02*
X156571428Y-93024819D01*
X156571428Y-93024819D02*
X156285714Y-93024819D01*
X156285714Y-93024819D02*
X156190476Y-92977200D01*
X156190476Y-92977200D02*
X156142857Y-92929580D01*
X143857142Y-99289580D02*
X143809523Y-99337200D01*
X143809523Y-99337200D02*
X143666666Y-99384819D01*
X143666666Y-99384819D02*
X143571428Y-99384819D01*
X143571428Y-99384819D02*
X143428571Y-99337200D01*
X143428571Y-99337200D02*
X143333333Y-99241961D01*
X143333333Y-99241961D02*
X143285714Y-99146723D01*
X143285714Y-99146723D02*
X143238095Y-98956247D01*
X143238095Y-98956247D02*
X143238095Y-98813390D01*
X143238095Y-98813390D02*
X143285714Y-98622914D01*
X143285714Y-98622914D02*
X143333333Y-98527676D01*
X143333333Y-98527676D02*
X143428571Y-98432438D01*
X143428571Y-98432438D02*
X143571428Y-98384819D01*
X143571428Y-98384819D02*
X143666666Y-98384819D01*
X143666666Y-98384819D02*
X143809523Y-98432438D01*
X143809523Y-98432438D02*
X143857142Y-98480057D01*
X144809523Y-99384819D02*
X144238095Y-99384819D01*
X144523809Y-99384819D02*
X144523809Y-98384819D01*
X144523809Y-98384819D02*
X144428571Y-98527676D01*
X144428571Y-98527676D02*
X144333333Y-98622914D01*
X144333333Y-98622914D02*
X144238095Y-98670533D01*
X145666666Y-98384819D02*
X145476190Y-98384819D01*
X145476190Y-98384819D02*
X145380952Y-98432438D01*
X145380952Y-98432438D02*
X145333333Y-98480057D01*
X145333333Y-98480057D02*
X145238095Y-98622914D01*
X145238095Y-98622914D02*
X145190476Y-98813390D01*
X145190476Y-98813390D02*
X145190476Y-99194342D01*
X145190476Y-99194342D02*
X145238095Y-99289580D01*
X145238095Y-99289580D02*
X145285714Y-99337200D01*
X145285714Y-99337200D02*
X145380952Y-99384819D01*
X145380952Y-99384819D02*
X145571428Y-99384819D01*
X145571428Y-99384819D02*
X145666666Y-99337200D01*
X145666666Y-99337200D02*
X145714285Y-99289580D01*
X145714285Y-99289580D02*
X145761904Y-99194342D01*
X145761904Y-99194342D02*
X145761904Y-98956247D01*
X145761904Y-98956247D02*
X145714285Y-98861009D01*
X145714285Y-98861009D02*
X145666666Y-98813390D01*
X145666666Y-98813390D02*
X145571428Y-98765771D01*
X145571428Y-98765771D02*
X145380952Y-98765771D01*
X145380952Y-98765771D02*
X145285714Y-98813390D01*
X145285714Y-98813390D02*
X145238095Y-98861009D01*
X145238095Y-98861009D02*
X145190476Y-98956247D01*
X128384819Y-72166666D02*
X127908628Y-72499999D01*
X128384819Y-72738094D02*
X127384819Y-72738094D01*
X127384819Y-72738094D02*
X127384819Y-72357142D01*
X127384819Y-72357142D02*
X127432438Y-72261904D01*
X127432438Y-72261904D02*
X127480057Y-72214285D01*
X127480057Y-72214285D02*
X127575295Y-72166666D01*
X127575295Y-72166666D02*
X127718152Y-72166666D01*
X127718152Y-72166666D02*
X127813390Y-72214285D01*
X127813390Y-72214285D02*
X127861009Y-72261904D01*
X127861009Y-72261904D02*
X127908628Y-72357142D01*
X127908628Y-72357142D02*
X127908628Y-72738094D01*
X127384819Y-71833332D02*
X127384819Y-71166666D01*
X127384819Y-71166666D02*
X128384819Y-71595237D01*
X152139050Y-82625248D02*
X152071706Y-82625248D01*
X152071706Y-82625248D02*
X151937019Y-82557904D01*
X151937019Y-82557904D02*
X151869676Y-82490561D01*
X151869676Y-82490561D02*
X151802332Y-82355874D01*
X151802332Y-82355874D02*
X151802332Y-82221187D01*
X151802332Y-82221187D02*
X151836004Y-82120172D01*
X151836004Y-82120172D02*
X151937019Y-81951813D01*
X151937019Y-81951813D02*
X152038034Y-81850798D01*
X152038034Y-81850798D02*
X152206393Y-81749782D01*
X152206393Y-81749782D02*
X152307408Y-81716111D01*
X152307408Y-81716111D02*
X152442095Y-81716111D01*
X152442095Y-81716111D02*
X152576782Y-81783454D01*
X152576782Y-81783454D02*
X152644126Y-81850798D01*
X152644126Y-81850798D02*
X152711469Y-81985485D01*
X152711469Y-81985485D02*
X152711469Y-82052828D01*
X152408424Y-83029309D02*
X152543111Y-83163996D01*
X152543111Y-83163996D02*
X152644126Y-83197668D01*
X152644126Y-83197668D02*
X152711469Y-83197668D01*
X152711469Y-83197668D02*
X152879828Y-83163996D01*
X152879828Y-83163996D02*
X153048187Y-83062981D01*
X153048187Y-83062981D02*
X153317561Y-82793607D01*
X153317561Y-82793607D02*
X153351233Y-82692591D01*
X153351233Y-82692591D02*
X153351233Y-82625248D01*
X153351233Y-82625248D02*
X153317561Y-82524233D01*
X153317561Y-82524233D02*
X153182874Y-82389546D01*
X153182874Y-82389546D02*
X153081859Y-82355874D01*
X153081859Y-82355874D02*
X153014515Y-82355874D01*
X153014515Y-82355874D02*
X152913500Y-82389546D01*
X152913500Y-82389546D02*
X152745141Y-82557904D01*
X152745141Y-82557904D02*
X152711469Y-82658920D01*
X152711469Y-82658920D02*
X152711469Y-82726263D01*
X152711469Y-82726263D02*
X152745141Y-82827278D01*
X152745141Y-82827278D02*
X152879828Y-82961965D01*
X152879828Y-82961965D02*
X152980843Y-82995637D01*
X152980843Y-82995637D02*
X153048187Y-82995637D01*
X153048187Y-82995637D02*
X153149202Y-82961965D01*
X157673224Y-99502118D02*
X157630367Y-99544976D01*
X157630367Y-99544976D02*
X157501795Y-99587833D01*
X157501795Y-99587833D02*
X157416081Y-99587833D01*
X157416081Y-99587833D02*
X157287510Y-99544976D01*
X157287510Y-99544976D02*
X157201795Y-99459261D01*
X157201795Y-99459261D02*
X157158938Y-99373547D01*
X157158938Y-99373547D02*
X157116081Y-99202118D01*
X157116081Y-99202118D02*
X157116081Y-99073547D01*
X157116081Y-99073547D02*
X157158938Y-98902118D01*
X157158938Y-98902118D02*
X157201795Y-98816404D01*
X157201795Y-98816404D02*
X157287510Y-98730690D01*
X157287510Y-98730690D02*
X157416081Y-98687833D01*
X157416081Y-98687833D02*
X157501795Y-98687833D01*
X157501795Y-98687833D02*
X157630367Y-98730690D01*
X157630367Y-98730690D02*
X157673224Y-98773547D01*
X158530367Y-99587833D02*
X158016081Y-99587833D01*
X158273224Y-99587833D02*
X158273224Y-98687833D01*
X158273224Y-98687833D02*
X158187510Y-98816404D01*
X158187510Y-98816404D02*
X158101795Y-98902118D01*
X158101795Y-98902118D02*
X158016081Y-98944976D01*
X159301796Y-98987833D02*
X159301796Y-99587833D01*
X159087510Y-98644976D02*
X158873224Y-99287833D01*
X158873224Y-99287833D02*
X159430367Y-99287833D01*
X162857142Y-93929580D02*
X162809523Y-93977200D01*
X162809523Y-93977200D02*
X162666666Y-94024819D01*
X162666666Y-94024819D02*
X162571428Y-94024819D01*
X162571428Y-94024819D02*
X162428571Y-93977200D01*
X162428571Y-93977200D02*
X162333333Y-93881961D01*
X162333333Y-93881961D02*
X162285714Y-93786723D01*
X162285714Y-93786723D02*
X162238095Y-93596247D01*
X162238095Y-93596247D02*
X162238095Y-93453390D01*
X162238095Y-93453390D02*
X162285714Y-93262914D01*
X162285714Y-93262914D02*
X162333333Y-93167676D01*
X162333333Y-93167676D02*
X162428571Y-93072438D01*
X162428571Y-93072438D02*
X162571428Y-93024819D01*
X162571428Y-93024819D02*
X162666666Y-93024819D01*
X162666666Y-93024819D02*
X162809523Y-93072438D01*
X162809523Y-93072438D02*
X162857142Y-93120057D01*
X163809523Y-94024819D02*
X163238095Y-94024819D01*
X163523809Y-94024819D02*
X163523809Y-93024819D01*
X163523809Y-93024819D02*
X163428571Y-93167676D01*
X163428571Y-93167676D02*
X163333333Y-93262914D01*
X163333333Y-93262914D02*
X163238095Y-93310533D01*
X164285714Y-94024819D02*
X164476190Y-94024819D01*
X164476190Y-94024819D02*
X164571428Y-93977200D01*
X164571428Y-93977200D02*
X164619047Y-93929580D01*
X164619047Y-93929580D02*
X164714285Y-93786723D01*
X164714285Y-93786723D02*
X164761904Y-93596247D01*
X164761904Y-93596247D02*
X164761904Y-93215295D01*
X164761904Y-93215295D02*
X164714285Y-93120057D01*
X164714285Y-93120057D02*
X164666666Y-93072438D01*
X164666666Y-93072438D02*
X164571428Y-93024819D01*
X164571428Y-93024819D02*
X164380952Y-93024819D01*
X164380952Y-93024819D02*
X164285714Y-93072438D01*
X164285714Y-93072438D02*
X164238095Y-93120057D01*
X164238095Y-93120057D02*
X164190476Y-93215295D01*
X164190476Y-93215295D02*
X164190476Y-93453390D01*
X164190476Y-93453390D02*
X164238095Y-93548628D01*
X164238095Y-93548628D02*
X164285714Y-93596247D01*
X164285714Y-93596247D02*
X164380952Y-93643866D01*
X164380952Y-93643866D02*
X164571428Y-93643866D01*
X164571428Y-93643866D02*
X164666666Y-93596247D01*
X164666666Y-93596247D02*
X164714285Y-93548628D01*
X164714285Y-93548628D02*
X164761904Y-93453390D01*
X170833333Y-71429580D02*
X170785714Y-71477200D01*
X170785714Y-71477200D02*
X170642857Y-71524819D01*
X170642857Y-71524819D02*
X170547619Y-71524819D01*
X170547619Y-71524819D02*
X170404762Y-71477200D01*
X170404762Y-71477200D02*
X170309524Y-71381961D01*
X170309524Y-71381961D02*
X170261905Y-71286723D01*
X170261905Y-71286723D02*
X170214286Y-71096247D01*
X170214286Y-71096247D02*
X170214286Y-70953390D01*
X170214286Y-70953390D02*
X170261905Y-70762914D01*
X170261905Y-70762914D02*
X170309524Y-70667676D01*
X170309524Y-70667676D02*
X170404762Y-70572438D01*
X170404762Y-70572438D02*
X170547619Y-70524819D01*
X170547619Y-70524819D02*
X170642857Y-70524819D01*
X170642857Y-70524819D02*
X170785714Y-70572438D01*
X170785714Y-70572438D02*
X170833333Y-70620057D01*
X171404762Y-70953390D02*
X171309524Y-70905771D01*
X171309524Y-70905771D02*
X171261905Y-70858152D01*
X171261905Y-70858152D02*
X171214286Y-70762914D01*
X171214286Y-70762914D02*
X171214286Y-70715295D01*
X171214286Y-70715295D02*
X171261905Y-70620057D01*
X171261905Y-70620057D02*
X171309524Y-70572438D01*
X171309524Y-70572438D02*
X171404762Y-70524819D01*
X171404762Y-70524819D02*
X171595238Y-70524819D01*
X171595238Y-70524819D02*
X171690476Y-70572438D01*
X171690476Y-70572438D02*
X171738095Y-70620057D01*
X171738095Y-70620057D02*
X171785714Y-70715295D01*
X171785714Y-70715295D02*
X171785714Y-70762914D01*
X171785714Y-70762914D02*
X171738095Y-70858152D01*
X171738095Y-70858152D02*
X171690476Y-70905771D01*
X171690476Y-70905771D02*
X171595238Y-70953390D01*
X171595238Y-70953390D02*
X171404762Y-70953390D01*
X171404762Y-70953390D02*
X171309524Y-71001009D01*
X171309524Y-71001009D02*
X171261905Y-71048628D01*
X171261905Y-71048628D02*
X171214286Y-71143866D01*
X171214286Y-71143866D02*
X171214286Y-71334342D01*
X171214286Y-71334342D02*
X171261905Y-71429580D01*
X171261905Y-71429580D02*
X171309524Y-71477200D01*
X171309524Y-71477200D02*
X171404762Y-71524819D01*
X171404762Y-71524819D02*
X171595238Y-71524819D01*
X171595238Y-71524819D02*
X171690476Y-71477200D01*
X171690476Y-71477200D02*
X171738095Y-71429580D01*
X171738095Y-71429580D02*
X171785714Y-71334342D01*
X171785714Y-71334342D02*
X171785714Y-71143866D01*
X171785714Y-71143866D02*
X171738095Y-71048628D01*
X171738095Y-71048628D02*
X171690476Y-71001009D01*
X171690476Y-71001009D02*
X171595238Y-70953390D01*
X157738095Y-83304819D02*
X157738095Y-84114342D01*
X157738095Y-84114342D02*
X157785714Y-84209580D01*
X157785714Y-84209580D02*
X157833333Y-84257200D01*
X157833333Y-84257200D02*
X157928571Y-84304819D01*
X157928571Y-84304819D02*
X158119047Y-84304819D01*
X158119047Y-84304819D02*
X158214285Y-84257200D01*
X158214285Y-84257200D02*
X158261904Y-84209580D01*
X158261904Y-84209580D02*
X158309523Y-84114342D01*
X158309523Y-84114342D02*
X158309523Y-83304819D01*
X159214285Y-83304819D02*
X159023809Y-83304819D01*
X159023809Y-83304819D02*
X158928571Y-83352438D01*
X158928571Y-83352438D02*
X158880952Y-83400057D01*
X158880952Y-83400057D02*
X158785714Y-83542914D01*
X158785714Y-83542914D02*
X158738095Y-83733390D01*
X158738095Y-83733390D02*
X158738095Y-84114342D01*
X158738095Y-84114342D02*
X158785714Y-84209580D01*
X158785714Y-84209580D02*
X158833333Y-84257200D01*
X158833333Y-84257200D02*
X158928571Y-84304819D01*
X158928571Y-84304819D02*
X159119047Y-84304819D01*
X159119047Y-84304819D02*
X159214285Y-84257200D01*
X159214285Y-84257200D02*
X159261904Y-84209580D01*
X159261904Y-84209580D02*
X159309523Y-84114342D01*
X159309523Y-84114342D02*
X159309523Y-83876247D01*
X159309523Y-83876247D02*
X159261904Y-83781009D01*
X159261904Y-83781009D02*
X159214285Y-83733390D01*
X159214285Y-83733390D02*
X159119047Y-83685771D01*
X159119047Y-83685771D02*
X158928571Y-83685771D01*
X158928571Y-83685771D02*
X158833333Y-83733390D01*
X158833333Y-83733390D02*
X158785714Y-83781009D01*
X158785714Y-83781009D02*
X158738095Y-83876247D01*
X122523809Y-82954819D02*
X122190476Y-82478628D01*
X121952381Y-82954819D02*
X121952381Y-81954819D01*
X121952381Y-81954819D02*
X122333333Y-81954819D01*
X122333333Y-81954819D02*
X122428571Y-82002438D01*
X122428571Y-82002438D02*
X122476190Y-82050057D01*
X122476190Y-82050057D02*
X122523809Y-82145295D01*
X122523809Y-82145295D02*
X122523809Y-82288152D01*
X122523809Y-82288152D02*
X122476190Y-82383390D01*
X122476190Y-82383390D02*
X122428571Y-82431009D01*
X122428571Y-82431009D02*
X122333333Y-82478628D01*
X122333333Y-82478628D02*
X121952381Y-82478628D01*
X122904762Y-82907200D02*
X123047619Y-82954819D01*
X123047619Y-82954819D02*
X123285714Y-82954819D01*
X123285714Y-82954819D02*
X123380952Y-82907200D01*
X123380952Y-82907200D02*
X123428571Y-82859580D01*
X123428571Y-82859580D02*
X123476190Y-82764342D01*
X123476190Y-82764342D02*
X123476190Y-82669104D01*
X123476190Y-82669104D02*
X123428571Y-82573866D01*
X123428571Y-82573866D02*
X123380952Y-82526247D01*
X123380952Y-82526247D02*
X123285714Y-82478628D01*
X123285714Y-82478628D02*
X123095238Y-82431009D01*
X123095238Y-82431009D02*
X123000000Y-82383390D01*
X123000000Y-82383390D02*
X122952381Y-82335771D01*
X122952381Y-82335771D02*
X122904762Y-82240533D01*
X122904762Y-82240533D02*
X122904762Y-82145295D01*
X122904762Y-82145295D02*
X122952381Y-82050057D01*
X122952381Y-82050057D02*
X123000000Y-82002438D01*
X123000000Y-82002438D02*
X123095238Y-81954819D01*
X123095238Y-81954819D02*
X123333333Y-81954819D01*
X123333333Y-81954819D02*
X123476190Y-82002438D01*
X123761905Y-81954819D02*
X124333333Y-81954819D01*
X124047619Y-82954819D02*
X124047619Y-81954819D01*
X124428572Y-83050057D02*
X125190476Y-83050057D01*
X125380953Y-82907200D02*
X125523810Y-82954819D01*
X125523810Y-82954819D02*
X125761905Y-82954819D01*
X125761905Y-82954819D02*
X125857143Y-82907200D01*
X125857143Y-82907200D02*
X125904762Y-82859580D01*
X125904762Y-82859580D02*
X125952381Y-82764342D01*
X125952381Y-82764342D02*
X125952381Y-82669104D01*
X125952381Y-82669104D02*
X125904762Y-82573866D01*
X125904762Y-82573866D02*
X125857143Y-82526247D01*
X125857143Y-82526247D02*
X125761905Y-82478628D01*
X125761905Y-82478628D02*
X125571429Y-82431009D01*
X125571429Y-82431009D02*
X125476191Y-82383390D01*
X125476191Y-82383390D02*
X125428572Y-82335771D01*
X125428572Y-82335771D02*
X125380953Y-82240533D01*
X125380953Y-82240533D02*
X125380953Y-82145295D01*
X125380953Y-82145295D02*
X125428572Y-82050057D01*
X125428572Y-82050057D02*
X125476191Y-82002438D01*
X125476191Y-82002438D02*
X125571429Y-81954819D01*
X125571429Y-81954819D02*
X125809524Y-81954819D01*
X125809524Y-81954819D02*
X125952381Y-82002438D01*
X126285715Y-81954819D02*
X126523810Y-82954819D01*
X126523810Y-82954819D02*
X126714286Y-82240533D01*
X126714286Y-82240533D02*
X126904762Y-82954819D01*
X126904762Y-82954819D02*
X127142858Y-81954819D01*
X167300595Y-67504819D02*
X167300595Y-68314342D01*
X167300595Y-68314342D02*
X167348214Y-68409580D01*
X167348214Y-68409580D02*
X167395833Y-68457200D01*
X167395833Y-68457200D02*
X167491071Y-68504819D01*
X167491071Y-68504819D02*
X167681547Y-68504819D01*
X167681547Y-68504819D02*
X167776785Y-68457200D01*
X167776785Y-68457200D02*
X167824404Y-68409580D01*
X167824404Y-68409580D02*
X167872023Y-68314342D01*
X167872023Y-68314342D02*
X167872023Y-67504819D01*
X168252976Y-67504819D02*
X168919642Y-67504819D01*
X168919642Y-67504819D02*
X168491071Y-68504819D01*
X160429580Y-77642857D02*
X160477200Y-77690476D01*
X160477200Y-77690476D02*
X160524819Y-77833333D01*
X160524819Y-77833333D02*
X160524819Y-77928571D01*
X160524819Y-77928571D02*
X160477200Y-78071428D01*
X160477200Y-78071428D02*
X160381961Y-78166666D01*
X160381961Y-78166666D02*
X160286723Y-78214285D01*
X160286723Y-78214285D02*
X160096247Y-78261904D01*
X160096247Y-78261904D02*
X159953390Y-78261904D01*
X159953390Y-78261904D02*
X159762914Y-78214285D01*
X159762914Y-78214285D02*
X159667676Y-78166666D01*
X159667676Y-78166666D02*
X159572438Y-78071428D01*
X159572438Y-78071428D02*
X159524819Y-77928571D01*
X159524819Y-77928571D02*
X159524819Y-77833333D01*
X159524819Y-77833333D02*
X159572438Y-77690476D01*
X159572438Y-77690476D02*
X159620057Y-77642857D01*
X160524819Y-76690476D02*
X160524819Y-77261904D01*
X160524819Y-76976190D02*
X159524819Y-76976190D01*
X159524819Y-76976190D02*
X159667676Y-77071428D01*
X159667676Y-77071428D02*
X159762914Y-77166666D01*
X159762914Y-77166666D02*
X159810533Y-77261904D01*
X159524819Y-76071428D02*
X159524819Y-75976190D01*
X159524819Y-75976190D02*
X159572438Y-75880952D01*
X159572438Y-75880952D02*
X159620057Y-75833333D01*
X159620057Y-75833333D02*
X159715295Y-75785714D01*
X159715295Y-75785714D02*
X159905771Y-75738095D01*
X159905771Y-75738095D02*
X160143866Y-75738095D01*
X160143866Y-75738095D02*
X160334342Y-75785714D01*
X160334342Y-75785714D02*
X160429580Y-75833333D01*
X160429580Y-75833333D02*
X160477200Y-75880952D01*
X160477200Y-75880952D02*
X160524819Y-75976190D01*
X160524819Y-75976190D02*
X160524819Y-76071428D01*
X160524819Y-76071428D02*
X160477200Y-76166666D01*
X160477200Y-76166666D02*
X160429580Y-76214285D01*
X160429580Y-76214285D02*
X160334342Y-76261904D01*
X160334342Y-76261904D02*
X160143866Y-76309523D01*
X160143866Y-76309523D02*
X159905771Y-76309523D01*
X159905771Y-76309523D02*
X159715295Y-76261904D01*
X159715295Y-76261904D02*
X159620057Y-76214285D01*
X159620057Y-76214285D02*
X159572438Y-76166666D01*
X159572438Y-76166666D02*
X159524819Y-76071428D01*
X142023809Y-60978628D02*
X142023809Y-61454819D01*
X141690476Y-60454819D02*
X142023809Y-60978628D01*
X142023809Y-60978628D02*
X142357142Y-60454819D01*
X143214285Y-61454819D02*
X142642857Y-61454819D01*
X142928571Y-61454819D02*
X142928571Y-60454819D01*
X142928571Y-60454819D02*
X142833333Y-60597676D01*
X142833333Y-60597676D02*
X142738095Y-60692914D01*
X142738095Y-60692914D02*
X142642857Y-60740533D01*
X166857142Y-96789580D02*
X166809523Y-96837200D01*
X166809523Y-96837200D02*
X166666666Y-96884819D01*
X166666666Y-96884819D02*
X166571428Y-96884819D01*
X166571428Y-96884819D02*
X166428571Y-96837200D01*
X166428571Y-96837200D02*
X166333333Y-96741961D01*
X166333333Y-96741961D02*
X166285714Y-96646723D01*
X166285714Y-96646723D02*
X166238095Y-96456247D01*
X166238095Y-96456247D02*
X166238095Y-96313390D01*
X166238095Y-96313390D02*
X166285714Y-96122914D01*
X166285714Y-96122914D02*
X166333333Y-96027676D01*
X166333333Y-96027676D02*
X166428571Y-95932438D01*
X166428571Y-95932438D02*
X166571428Y-95884819D01*
X166571428Y-95884819D02*
X166666666Y-95884819D01*
X166666666Y-95884819D02*
X166809523Y-95932438D01*
X166809523Y-95932438D02*
X166857142Y-95980057D01*
X167809523Y-96884819D02*
X167238095Y-96884819D01*
X167523809Y-96884819D02*
X167523809Y-95884819D01*
X167523809Y-95884819D02*
X167428571Y-96027676D01*
X167428571Y-96027676D02*
X167333333Y-96122914D01*
X167333333Y-96122914D02*
X167238095Y-96170533D01*
X168142857Y-95884819D02*
X168809523Y-95884819D01*
X168809523Y-95884819D02*
X168380952Y-96884819D01*
X151429580Y-59142857D02*
X151477200Y-59190476D01*
X151477200Y-59190476D02*
X151524819Y-59333333D01*
X151524819Y-59333333D02*
X151524819Y-59428571D01*
X151524819Y-59428571D02*
X151477200Y-59571428D01*
X151477200Y-59571428D02*
X151381961Y-59666666D01*
X151381961Y-59666666D02*
X151286723Y-59714285D01*
X151286723Y-59714285D02*
X151096247Y-59761904D01*
X151096247Y-59761904D02*
X150953390Y-59761904D01*
X150953390Y-59761904D02*
X150762914Y-59714285D01*
X150762914Y-59714285D02*
X150667676Y-59666666D01*
X150667676Y-59666666D02*
X150572438Y-59571428D01*
X150572438Y-59571428D02*
X150524819Y-59428571D01*
X150524819Y-59428571D02*
X150524819Y-59333333D01*
X150524819Y-59333333D02*
X150572438Y-59190476D01*
X150572438Y-59190476D02*
X150620057Y-59142857D01*
X150620057Y-58761904D02*
X150572438Y-58714285D01*
X150572438Y-58714285D02*
X150524819Y-58619047D01*
X150524819Y-58619047D02*
X150524819Y-58380952D01*
X150524819Y-58380952D02*
X150572438Y-58285714D01*
X150572438Y-58285714D02*
X150620057Y-58238095D01*
X150620057Y-58238095D02*
X150715295Y-58190476D01*
X150715295Y-58190476D02*
X150810533Y-58190476D01*
X150810533Y-58190476D02*
X150953390Y-58238095D01*
X150953390Y-58238095D02*
X151524819Y-58809523D01*
X151524819Y-58809523D02*
X151524819Y-58190476D01*
X150524819Y-57571428D02*
X150524819Y-57476190D01*
X150524819Y-57476190D02*
X150572438Y-57380952D01*
X150572438Y-57380952D02*
X150620057Y-57333333D01*
X150620057Y-57333333D02*
X150715295Y-57285714D01*
X150715295Y-57285714D02*
X150905771Y-57238095D01*
X150905771Y-57238095D02*
X151143866Y-57238095D01*
X151143866Y-57238095D02*
X151334342Y-57285714D01*
X151334342Y-57285714D02*
X151429580Y-57333333D01*
X151429580Y-57333333D02*
X151477200Y-57380952D01*
X151477200Y-57380952D02*
X151524819Y-57476190D01*
X151524819Y-57476190D02*
X151524819Y-57571428D01*
X151524819Y-57571428D02*
X151477200Y-57666666D01*
X151477200Y-57666666D02*
X151429580Y-57714285D01*
X151429580Y-57714285D02*
X151334342Y-57761904D01*
X151334342Y-57761904D02*
X151143866Y-57809523D01*
X151143866Y-57809523D02*
X150905771Y-57809523D01*
X150905771Y-57809523D02*
X150715295Y-57761904D01*
X150715295Y-57761904D02*
X150620057Y-57714285D01*
X150620057Y-57714285D02*
X150572438Y-57666666D01*
X150572438Y-57666666D02*
X150524819Y-57571428D01*
X137780006Y-67810856D02*
X137712662Y-67810856D01*
X137712662Y-67810856D02*
X137577975Y-67743512D01*
X137577975Y-67743512D02*
X137510632Y-67676169D01*
X137510632Y-67676169D02*
X137443288Y-67541482D01*
X137443288Y-67541482D02*
X137443288Y-67406795D01*
X137443288Y-67406795D02*
X137476960Y-67305780D01*
X137476960Y-67305780D02*
X137577975Y-67137421D01*
X137577975Y-67137421D02*
X137678990Y-67036406D01*
X137678990Y-67036406D02*
X137847349Y-66935390D01*
X137847349Y-66935390D02*
X137948364Y-66901719D01*
X137948364Y-66901719D02*
X138083051Y-66901719D01*
X138083051Y-66901719D02*
X138217738Y-66969062D01*
X138217738Y-66969062D02*
X138285082Y-67036406D01*
X138285082Y-67036406D02*
X138352425Y-67171093D01*
X138352425Y-67171093D02*
X138352425Y-67238436D01*
X138621799Y-67507810D02*
X138689143Y-67507810D01*
X138689143Y-67507810D02*
X138790158Y-67541482D01*
X138790158Y-67541482D02*
X138958517Y-67709841D01*
X138958517Y-67709841D02*
X138992189Y-67810856D01*
X138992189Y-67810856D02*
X138992189Y-67878199D01*
X138992189Y-67878199D02*
X138958517Y-67979215D01*
X138958517Y-67979215D02*
X138891173Y-68046558D01*
X138891173Y-68046558D02*
X138756486Y-68113902D01*
X138756486Y-68113902D02*
X137948364Y-68113902D01*
X137948364Y-68113902D02*
X138386097Y-68551634D01*
X139463593Y-68686322D02*
X138992189Y-69157726D01*
X139564609Y-68248589D02*
X138891174Y-68585306D01*
X138891174Y-68585306D02*
X139328906Y-69023039D01*
X175833333Y-83429580D02*
X175785714Y-83477200D01*
X175785714Y-83477200D02*
X175642857Y-83524819D01*
X175642857Y-83524819D02*
X175547619Y-83524819D01*
X175547619Y-83524819D02*
X175404762Y-83477200D01*
X175404762Y-83477200D02*
X175309524Y-83381961D01*
X175309524Y-83381961D02*
X175261905Y-83286723D01*
X175261905Y-83286723D02*
X175214286Y-83096247D01*
X175214286Y-83096247D02*
X175214286Y-82953390D01*
X175214286Y-82953390D02*
X175261905Y-82762914D01*
X175261905Y-82762914D02*
X175309524Y-82667676D01*
X175309524Y-82667676D02*
X175404762Y-82572438D01*
X175404762Y-82572438D02*
X175547619Y-82524819D01*
X175547619Y-82524819D02*
X175642857Y-82524819D01*
X175642857Y-82524819D02*
X175785714Y-82572438D01*
X175785714Y-82572438D02*
X175833333Y-82620057D01*
X176214286Y-82620057D02*
X176261905Y-82572438D01*
X176261905Y-82572438D02*
X176357143Y-82524819D01*
X176357143Y-82524819D02*
X176595238Y-82524819D01*
X176595238Y-82524819D02*
X176690476Y-82572438D01*
X176690476Y-82572438D02*
X176738095Y-82620057D01*
X176738095Y-82620057D02*
X176785714Y-82715295D01*
X176785714Y-82715295D02*
X176785714Y-82810533D01*
X176785714Y-82810533D02*
X176738095Y-82953390D01*
X176738095Y-82953390D02*
X176166667Y-83524819D01*
X176166667Y-83524819D02*
X176785714Y-83524819D01*
X166024819Y-63167857D02*
X165548628Y-63501190D01*
X166024819Y-63739285D02*
X165024819Y-63739285D01*
X165024819Y-63739285D02*
X165024819Y-63358333D01*
X165024819Y-63358333D02*
X165072438Y-63263095D01*
X165072438Y-63263095D02*
X165120057Y-63215476D01*
X165120057Y-63215476D02*
X165215295Y-63167857D01*
X165215295Y-63167857D02*
X165358152Y-63167857D01*
X165358152Y-63167857D02*
X165453390Y-63215476D01*
X165453390Y-63215476D02*
X165501009Y-63263095D01*
X165501009Y-63263095D02*
X165548628Y-63358333D01*
X165548628Y-63358333D02*
X165548628Y-63739285D01*
X166024819Y-62215476D02*
X166024819Y-62786904D01*
X166024819Y-62501190D02*
X165024819Y-62501190D01*
X165024819Y-62501190D02*
X165167676Y-62596428D01*
X165167676Y-62596428D02*
X165262914Y-62691666D01*
X165262914Y-62691666D02*
X165310533Y-62786904D01*
X165024819Y-61882142D02*
X165024819Y-61263095D01*
X165024819Y-61263095D02*
X165405771Y-61596428D01*
X165405771Y-61596428D02*
X165405771Y-61453571D01*
X165405771Y-61453571D02*
X165453390Y-61358333D01*
X165453390Y-61358333D02*
X165501009Y-61310714D01*
X165501009Y-61310714D02*
X165596247Y-61263095D01*
X165596247Y-61263095D02*
X165834342Y-61263095D01*
X165834342Y-61263095D02*
X165929580Y-61310714D01*
X165929580Y-61310714D02*
X165977200Y-61358333D01*
X165977200Y-61358333D02*
X166024819Y-61453571D01*
X166024819Y-61453571D02*
X166024819Y-61739285D01*
X166024819Y-61739285D02*
X165977200Y-61834523D01*
X165977200Y-61834523D02*
X165929580Y-61882142D01*
X170524819Y-80730357D02*
X170048628Y-81063690D01*
X170524819Y-81301785D02*
X169524819Y-81301785D01*
X169524819Y-81301785D02*
X169524819Y-80920833D01*
X169524819Y-80920833D02*
X169572438Y-80825595D01*
X169572438Y-80825595D02*
X169620057Y-80777976D01*
X169620057Y-80777976D02*
X169715295Y-80730357D01*
X169715295Y-80730357D02*
X169858152Y-80730357D01*
X169858152Y-80730357D02*
X169953390Y-80777976D01*
X169953390Y-80777976D02*
X170001009Y-80825595D01*
X170001009Y-80825595D02*
X170048628Y-80920833D01*
X170048628Y-80920833D02*
X170048628Y-81301785D01*
X170524819Y-79777976D02*
X170524819Y-80349404D01*
X170524819Y-80063690D02*
X169524819Y-80063690D01*
X169524819Y-80063690D02*
X169667676Y-80158928D01*
X169667676Y-80158928D02*
X169762914Y-80254166D01*
X169762914Y-80254166D02*
X169810533Y-80349404D01*
X169620057Y-79397023D02*
X169572438Y-79349404D01*
X169572438Y-79349404D02*
X169524819Y-79254166D01*
X169524819Y-79254166D02*
X169524819Y-79016071D01*
X169524819Y-79016071D02*
X169572438Y-78920833D01*
X169572438Y-78920833D02*
X169620057Y-78873214D01*
X169620057Y-78873214D02*
X169715295Y-78825595D01*
X169715295Y-78825595D02*
X169810533Y-78825595D01*
X169810533Y-78825595D02*
X169953390Y-78873214D01*
X169953390Y-78873214D02*
X170524819Y-79444642D01*
X170524819Y-79444642D02*
X170524819Y-78825595D01*
X147625036Y-64883139D02*
X147148845Y-65216472D01*
X147625036Y-65454567D02*
X146625036Y-65454567D01*
X146625036Y-65454567D02*
X146625036Y-65073615D01*
X146625036Y-65073615D02*
X146672655Y-64978377D01*
X146672655Y-64978377D02*
X146720274Y-64930758D01*
X146720274Y-64930758D02*
X146815512Y-64883139D01*
X146815512Y-64883139D02*
X146958369Y-64883139D01*
X146958369Y-64883139D02*
X147053607Y-64930758D01*
X147053607Y-64930758D02*
X147101226Y-64978377D01*
X147101226Y-64978377D02*
X147148845Y-65073615D01*
X147148845Y-65073615D02*
X147148845Y-65454567D01*
X147625036Y-63930758D02*
X147625036Y-64502186D01*
X147625036Y-64216472D02*
X146625036Y-64216472D01*
X146625036Y-64216472D02*
X146767893Y-64311710D01*
X146767893Y-64311710D02*
X146863131Y-64406948D01*
X146863131Y-64406948D02*
X146910750Y-64502186D01*
X147625036Y-62978377D02*
X147625036Y-63549805D01*
X147625036Y-63264091D02*
X146625036Y-63264091D01*
X146625036Y-63264091D02*
X146767893Y-63359329D01*
X146767893Y-63359329D02*
X146863131Y-63454567D01*
X146863131Y-63454567D02*
X146910750Y-63549805D01*
X149333333Y-98024819D02*
X149000000Y-97548628D01*
X148761905Y-98024819D02*
X148761905Y-97024819D01*
X148761905Y-97024819D02*
X149142857Y-97024819D01*
X149142857Y-97024819D02*
X149238095Y-97072438D01*
X149238095Y-97072438D02*
X149285714Y-97120057D01*
X149285714Y-97120057D02*
X149333333Y-97215295D01*
X149333333Y-97215295D02*
X149333333Y-97358152D01*
X149333333Y-97358152D02*
X149285714Y-97453390D01*
X149285714Y-97453390D02*
X149238095Y-97501009D01*
X149238095Y-97501009D02*
X149142857Y-97548628D01*
X149142857Y-97548628D02*
X148761905Y-97548628D01*
X149809524Y-98024819D02*
X150000000Y-98024819D01*
X150000000Y-98024819D02*
X150095238Y-97977200D01*
X150095238Y-97977200D02*
X150142857Y-97929580D01*
X150142857Y-97929580D02*
X150238095Y-97786723D01*
X150238095Y-97786723D02*
X150285714Y-97596247D01*
X150285714Y-97596247D02*
X150285714Y-97215295D01*
X150285714Y-97215295D02*
X150238095Y-97120057D01*
X150238095Y-97120057D02*
X150190476Y-97072438D01*
X150190476Y-97072438D02*
X150095238Y-97024819D01*
X150095238Y-97024819D02*
X149904762Y-97024819D01*
X149904762Y-97024819D02*
X149809524Y-97072438D01*
X149809524Y-97072438D02*
X149761905Y-97120057D01*
X149761905Y-97120057D02*
X149714286Y-97215295D01*
X149714286Y-97215295D02*
X149714286Y-97453390D01*
X149714286Y-97453390D02*
X149761905Y-97548628D01*
X149761905Y-97548628D02*
X149809524Y-97596247D01*
X149809524Y-97596247D02*
X149904762Y-97643866D01*
X149904762Y-97643866D02*
X150095238Y-97643866D01*
X150095238Y-97643866D02*
X150190476Y-97596247D01*
X150190476Y-97596247D02*
X150238095Y-97548628D01*
X150238095Y-97548628D02*
X150285714Y-97453390D01*
X132333333Y-70024819D02*
X132000000Y-69548628D01*
X131761905Y-70024819D02*
X131761905Y-69024819D01*
X131761905Y-69024819D02*
X132142857Y-69024819D01*
X132142857Y-69024819D02*
X132238095Y-69072438D01*
X132238095Y-69072438D02*
X132285714Y-69120057D01*
X132285714Y-69120057D02*
X132333333Y-69215295D01*
X132333333Y-69215295D02*
X132333333Y-69358152D01*
X132333333Y-69358152D02*
X132285714Y-69453390D01*
X132285714Y-69453390D02*
X132238095Y-69501009D01*
X132238095Y-69501009D02*
X132142857Y-69548628D01*
X132142857Y-69548628D02*
X131761905Y-69548628D01*
X133285714Y-70024819D02*
X132714286Y-70024819D01*
X133000000Y-70024819D02*
X133000000Y-69024819D01*
X133000000Y-69024819D02*
X132904762Y-69167676D01*
X132904762Y-69167676D02*
X132809524Y-69262914D01*
X132809524Y-69262914D02*
X132714286Y-69310533D01*
X144288095Y-66854819D02*
X144288095Y-67664342D01*
X144288095Y-67664342D02*
X144335714Y-67759580D01*
X144335714Y-67759580D02*
X144383333Y-67807200D01*
X144383333Y-67807200D02*
X144478571Y-67854819D01*
X144478571Y-67854819D02*
X144669047Y-67854819D01*
X144669047Y-67854819D02*
X144764285Y-67807200D01*
X144764285Y-67807200D02*
X144811904Y-67759580D01*
X144811904Y-67759580D02*
X144859523Y-67664342D01*
X144859523Y-67664342D02*
X144859523Y-66854819D01*
X145859523Y-67854819D02*
X145288095Y-67854819D01*
X145573809Y-67854819D02*
X145573809Y-66854819D01*
X145573809Y-66854819D02*
X145478571Y-66997676D01*
X145478571Y-66997676D02*
X145383333Y-67092914D01*
X145383333Y-67092914D02*
X145288095Y-67140533D01*
X145384819Y-63166666D02*
X144908628Y-63499999D01*
X145384819Y-63738094D02*
X144384819Y-63738094D01*
X144384819Y-63738094D02*
X144384819Y-63357142D01*
X144384819Y-63357142D02*
X144432438Y-63261904D01*
X144432438Y-63261904D02*
X144480057Y-63214285D01*
X144480057Y-63214285D02*
X144575295Y-63166666D01*
X144575295Y-63166666D02*
X144718152Y-63166666D01*
X144718152Y-63166666D02*
X144813390Y-63214285D01*
X144813390Y-63214285D02*
X144861009Y-63261904D01*
X144861009Y-63261904D02*
X144908628Y-63357142D01*
X144908628Y-63357142D02*
X144908628Y-63738094D01*
X144384819Y-62309523D02*
X144384819Y-62499999D01*
X144384819Y-62499999D02*
X144432438Y-62595237D01*
X144432438Y-62595237D02*
X144480057Y-62642856D01*
X144480057Y-62642856D02*
X144622914Y-62738094D01*
X144622914Y-62738094D02*
X144813390Y-62785713D01*
X144813390Y-62785713D02*
X145194342Y-62785713D01*
X145194342Y-62785713D02*
X145289580Y-62738094D01*
X145289580Y-62738094D02*
X145337200Y-62690475D01*
X145337200Y-62690475D02*
X145384819Y-62595237D01*
X145384819Y-62595237D02*
X145384819Y-62404761D01*
X145384819Y-62404761D02*
X145337200Y-62309523D01*
X145337200Y-62309523D02*
X145289580Y-62261904D01*
X145289580Y-62261904D02*
X145194342Y-62214285D01*
X145194342Y-62214285D02*
X144956247Y-62214285D01*
X144956247Y-62214285D02*
X144861009Y-62261904D01*
X144861009Y-62261904D02*
X144813390Y-62309523D01*
X144813390Y-62309523D02*
X144765771Y-62404761D01*
X144765771Y-62404761D02*
X144765771Y-62595237D01*
X144765771Y-62595237D02*
X144813390Y-62690475D01*
X144813390Y-62690475D02*
X144861009Y-62738094D01*
X144861009Y-62738094D02*
X144956247Y-62785713D01*
X147195833Y-58789580D02*
X147148214Y-58837200D01*
X147148214Y-58837200D02*
X147005357Y-58884819D01*
X147005357Y-58884819D02*
X146910119Y-58884819D01*
X146910119Y-58884819D02*
X146767262Y-58837200D01*
X146767262Y-58837200D02*
X146672024Y-58741961D01*
X146672024Y-58741961D02*
X146624405Y-58646723D01*
X146624405Y-58646723D02*
X146576786Y-58456247D01*
X146576786Y-58456247D02*
X146576786Y-58313390D01*
X146576786Y-58313390D02*
X146624405Y-58122914D01*
X146624405Y-58122914D02*
X146672024Y-58027676D01*
X146672024Y-58027676D02*
X146767262Y-57932438D01*
X146767262Y-57932438D02*
X146910119Y-57884819D01*
X146910119Y-57884819D02*
X147005357Y-57884819D01*
X147005357Y-57884819D02*
X147148214Y-57932438D01*
X147148214Y-57932438D02*
X147195833Y-57980057D01*
X148052976Y-58218152D02*
X148052976Y-58884819D01*
X147814881Y-57837200D02*
X147576786Y-58551485D01*
X147576786Y-58551485D02*
X148195833Y-58551485D01*
X170289580Y-89142857D02*
X170337200Y-89190476D01*
X170337200Y-89190476D02*
X170384819Y-89333333D01*
X170384819Y-89333333D02*
X170384819Y-89428571D01*
X170384819Y-89428571D02*
X170337200Y-89571428D01*
X170337200Y-89571428D02*
X170241961Y-89666666D01*
X170241961Y-89666666D02*
X170146723Y-89714285D01*
X170146723Y-89714285D02*
X169956247Y-89761904D01*
X169956247Y-89761904D02*
X169813390Y-89761904D01*
X169813390Y-89761904D02*
X169622914Y-89714285D01*
X169622914Y-89714285D02*
X169527676Y-89666666D01*
X169527676Y-89666666D02*
X169432438Y-89571428D01*
X169432438Y-89571428D02*
X169384819Y-89428571D01*
X169384819Y-89428571D02*
X169384819Y-89333333D01*
X169384819Y-89333333D02*
X169432438Y-89190476D01*
X169432438Y-89190476D02*
X169480057Y-89142857D01*
X170384819Y-88190476D02*
X170384819Y-88761904D01*
X170384819Y-88476190D02*
X169384819Y-88476190D01*
X169384819Y-88476190D02*
X169527676Y-88571428D01*
X169527676Y-88571428D02*
X169622914Y-88666666D01*
X169622914Y-88666666D02*
X169670533Y-88761904D01*
X169813390Y-87619047D02*
X169765771Y-87714285D01*
X169765771Y-87714285D02*
X169718152Y-87761904D01*
X169718152Y-87761904D02*
X169622914Y-87809523D01*
X169622914Y-87809523D02*
X169575295Y-87809523D01*
X169575295Y-87809523D02*
X169480057Y-87761904D01*
X169480057Y-87761904D02*
X169432438Y-87714285D01*
X169432438Y-87714285D02*
X169384819Y-87619047D01*
X169384819Y-87619047D02*
X169384819Y-87428571D01*
X169384819Y-87428571D02*
X169432438Y-87333333D01*
X169432438Y-87333333D02*
X169480057Y-87285714D01*
X169480057Y-87285714D02*
X169575295Y-87238095D01*
X169575295Y-87238095D02*
X169622914Y-87238095D01*
X169622914Y-87238095D02*
X169718152Y-87285714D01*
X169718152Y-87285714D02*
X169765771Y-87333333D01*
X169765771Y-87333333D02*
X169813390Y-87428571D01*
X169813390Y-87428571D02*
X169813390Y-87619047D01*
X169813390Y-87619047D02*
X169861009Y-87714285D01*
X169861009Y-87714285D02*
X169908628Y-87761904D01*
X169908628Y-87761904D02*
X170003866Y-87809523D01*
X170003866Y-87809523D02*
X170194342Y-87809523D01*
X170194342Y-87809523D02*
X170289580Y-87761904D01*
X170289580Y-87761904D02*
X170337200Y-87714285D01*
X170337200Y-87714285D02*
X170384819Y-87619047D01*
X170384819Y-87619047D02*
X170384819Y-87428571D01*
X170384819Y-87428571D02*
X170337200Y-87333333D01*
X170337200Y-87333333D02*
X170289580Y-87285714D01*
X170289580Y-87285714D02*
X170194342Y-87238095D01*
X170194342Y-87238095D02*
X170003866Y-87238095D01*
X170003866Y-87238095D02*
X169908628Y-87285714D01*
X169908628Y-87285714D02*
X169861009Y-87333333D01*
X169861009Y-87333333D02*
X169813390Y-87428571D01*
X159238095Y-93554819D02*
X159238095Y-94364342D01*
X159238095Y-94364342D02*
X159285714Y-94459580D01*
X159285714Y-94459580D02*
X159333333Y-94507200D01*
X159333333Y-94507200D02*
X159428571Y-94554819D01*
X159428571Y-94554819D02*
X159619047Y-94554819D01*
X159619047Y-94554819D02*
X159714285Y-94507200D01*
X159714285Y-94507200D02*
X159761904Y-94459580D01*
X159761904Y-94459580D02*
X159809523Y-94364342D01*
X159809523Y-94364342D02*
X159809523Y-93554819D01*
X160238095Y-93650057D02*
X160285714Y-93602438D01*
X160285714Y-93602438D02*
X160380952Y-93554819D01*
X160380952Y-93554819D02*
X160619047Y-93554819D01*
X160619047Y-93554819D02*
X160714285Y-93602438D01*
X160714285Y-93602438D02*
X160761904Y-93650057D01*
X160761904Y-93650057D02*
X160809523Y-93745295D01*
X160809523Y-93745295D02*
X160809523Y-93840533D01*
X160809523Y-93840533D02*
X160761904Y-93983390D01*
X160761904Y-93983390D02*
X160190476Y-94554819D01*
X160190476Y-94554819D02*
X160809523Y-94554819D01*
X121714285Y-77931009D02*
X121857142Y-77978628D01*
X121857142Y-77978628D02*
X121904761Y-78026247D01*
X121904761Y-78026247D02*
X121952380Y-78121485D01*
X121952380Y-78121485D02*
X121952380Y-78264342D01*
X121952380Y-78264342D02*
X121904761Y-78359580D01*
X121904761Y-78359580D02*
X121857142Y-78407200D01*
X121857142Y-78407200D02*
X121761904Y-78454819D01*
X121761904Y-78454819D02*
X121380952Y-78454819D01*
X121380952Y-78454819D02*
X121380952Y-77454819D01*
X121380952Y-77454819D02*
X121714285Y-77454819D01*
X121714285Y-77454819D02*
X121809523Y-77502438D01*
X121809523Y-77502438D02*
X121857142Y-77550057D01*
X121857142Y-77550057D02*
X121904761Y-77645295D01*
X121904761Y-77645295D02*
X121904761Y-77740533D01*
X121904761Y-77740533D02*
X121857142Y-77835771D01*
X121857142Y-77835771D02*
X121809523Y-77883390D01*
X121809523Y-77883390D02*
X121714285Y-77931009D01*
X121714285Y-77931009D02*
X121380952Y-77931009D01*
X122571428Y-77454819D02*
X122761904Y-77454819D01*
X122761904Y-77454819D02*
X122857142Y-77502438D01*
X122857142Y-77502438D02*
X122952380Y-77597676D01*
X122952380Y-77597676D02*
X122999999Y-77788152D01*
X122999999Y-77788152D02*
X122999999Y-78121485D01*
X122999999Y-78121485D02*
X122952380Y-78311961D01*
X122952380Y-78311961D02*
X122857142Y-78407200D01*
X122857142Y-78407200D02*
X122761904Y-78454819D01*
X122761904Y-78454819D02*
X122571428Y-78454819D01*
X122571428Y-78454819D02*
X122476190Y-78407200D01*
X122476190Y-78407200D02*
X122380952Y-78311961D01*
X122380952Y-78311961D02*
X122333333Y-78121485D01*
X122333333Y-78121485D02*
X122333333Y-77788152D01*
X122333333Y-77788152D02*
X122380952Y-77597676D01*
X122380952Y-77597676D02*
X122476190Y-77502438D01*
X122476190Y-77502438D02*
X122571428Y-77454819D01*
X123619047Y-77454819D02*
X123809523Y-77454819D01*
X123809523Y-77454819D02*
X123904761Y-77502438D01*
X123904761Y-77502438D02*
X123999999Y-77597676D01*
X123999999Y-77597676D02*
X124047618Y-77788152D01*
X124047618Y-77788152D02*
X124047618Y-78121485D01*
X124047618Y-78121485D02*
X123999999Y-78311961D01*
X123999999Y-78311961D02*
X123904761Y-78407200D01*
X123904761Y-78407200D02*
X123809523Y-78454819D01*
X123809523Y-78454819D02*
X123619047Y-78454819D01*
X123619047Y-78454819D02*
X123523809Y-78407200D01*
X123523809Y-78407200D02*
X123428571Y-78311961D01*
X123428571Y-78311961D02*
X123380952Y-78121485D01*
X123380952Y-78121485D02*
X123380952Y-77788152D01*
X123380952Y-77788152D02*
X123428571Y-77597676D01*
X123428571Y-77597676D02*
X123523809Y-77502438D01*
X123523809Y-77502438D02*
X123619047Y-77454819D01*
X124333333Y-77454819D02*
X124904761Y-77454819D01*
X124619047Y-78454819D02*
X124619047Y-77454819D01*
X125000000Y-78550057D02*
X125761904Y-78550057D01*
X125952381Y-78407200D02*
X126095238Y-78454819D01*
X126095238Y-78454819D02*
X126333333Y-78454819D01*
X126333333Y-78454819D02*
X126428571Y-78407200D01*
X126428571Y-78407200D02*
X126476190Y-78359580D01*
X126476190Y-78359580D02*
X126523809Y-78264342D01*
X126523809Y-78264342D02*
X126523809Y-78169104D01*
X126523809Y-78169104D02*
X126476190Y-78073866D01*
X126476190Y-78073866D02*
X126428571Y-78026247D01*
X126428571Y-78026247D02*
X126333333Y-77978628D01*
X126333333Y-77978628D02*
X126142857Y-77931009D01*
X126142857Y-77931009D02*
X126047619Y-77883390D01*
X126047619Y-77883390D02*
X126000000Y-77835771D01*
X126000000Y-77835771D02*
X125952381Y-77740533D01*
X125952381Y-77740533D02*
X125952381Y-77645295D01*
X125952381Y-77645295D02*
X126000000Y-77550057D01*
X126000000Y-77550057D02*
X126047619Y-77502438D01*
X126047619Y-77502438D02*
X126142857Y-77454819D01*
X126142857Y-77454819D02*
X126380952Y-77454819D01*
X126380952Y-77454819D02*
X126523809Y-77502438D01*
X126857143Y-77454819D02*
X127095238Y-78454819D01*
X127095238Y-78454819D02*
X127285714Y-77740533D01*
X127285714Y-77740533D02*
X127476190Y-78454819D01*
X127476190Y-78454819D02*
X127714286Y-77454819D01*
X164857142Y-91359580D02*
X164809523Y-91407200D01*
X164809523Y-91407200D02*
X164666666Y-91454819D01*
X164666666Y-91454819D02*
X164571428Y-91454819D01*
X164571428Y-91454819D02*
X164428571Y-91407200D01*
X164428571Y-91407200D02*
X164333333Y-91311961D01*
X164333333Y-91311961D02*
X164285714Y-91216723D01*
X164285714Y-91216723D02*
X164238095Y-91026247D01*
X164238095Y-91026247D02*
X164238095Y-90883390D01*
X164238095Y-90883390D02*
X164285714Y-90692914D01*
X164285714Y-90692914D02*
X164333333Y-90597676D01*
X164333333Y-90597676D02*
X164428571Y-90502438D01*
X164428571Y-90502438D02*
X164571428Y-90454819D01*
X164571428Y-90454819D02*
X164666666Y-90454819D01*
X164666666Y-90454819D02*
X164809523Y-90502438D01*
X164809523Y-90502438D02*
X164857142Y-90550057D01*
X165809523Y-91454819D02*
X165238095Y-91454819D01*
X165523809Y-91454819D02*
X165523809Y-90454819D01*
X165523809Y-90454819D02*
X165428571Y-90597676D01*
X165428571Y-90597676D02*
X165333333Y-90692914D01*
X165333333Y-90692914D02*
X165238095Y-90740533D01*
X166714285Y-90454819D02*
X166238095Y-90454819D01*
X166238095Y-90454819D02*
X166190476Y-90931009D01*
X166190476Y-90931009D02*
X166238095Y-90883390D01*
X166238095Y-90883390D02*
X166333333Y-90835771D01*
X166333333Y-90835771D02*
X166571428Y-90835771D01*
X166571428Y-90835771D02*
X166666666Y-90883390D01*
X166666666Y-90883390D02*
X166714285Y-90931009D01*
X166714285Y-90931009D02*
X166761904Y-91026247D01*
X166761904Y-91026247D02*
X166761904Y-91264342D01*
X166761904Y-91264342D02*
X166714285Y-91359580D01*
X166714285Y-91359580D02*
X166666666Y-91407200D01*
X166666666Y-91407200D02*
X166571428Y-91454819D01*
X166571428Y-91454819D02*
X166333333Y-91454819D01*
X166333333Y-91454819D02*
X166238095Y-91407200D01*
X166238095Y-91407200D02*
X166190476Y-91359580D01*
X151454819Y-62142857D02*
X150978628Y-62476190D01*
X151454819Y-62714285D02*
X150454819Y-62714285D01*
X150454819Y-62714285D02*
X150454819Y-62333333D01*
X150454819Y-62333333D02*
X150502438Y-62238095D01*
X150502438Y-62238095D02*
X150550057Y-62190476D01*
X150550057Y-62190476D02*
X150645295Y-62142857D01*
X150645295Y-62142857D02*
X150788152Y-62142857D01*
X150788152Y-62142857D02*
X150883390Y-62190476D01*
X150883390Y-62190476D02*
X150931009Y-62238095D01*
X150931009Y-62238095D02*
X150978628Y-62333333D01*
X150978628Y-62333333D02*
X150978628Y-62714285D01*
X151454819Y-61190476D02*
X151454819Y-61761904D01*
X151454819Y-61476190D02*
X150454819Y-61476190D01*
X150454819Y-61476190D02*
X150597676Y-61571428D01*
X150597676Y-61571428D02*
X150692914Y-61666666D01*
X150692914Y-61666666D02*
X150740533Y-61761904D01*
X150454819Y-60571428D02*
X150454819Y-60476190D01*
X150454819Y-60476190D02*
X150502438Y-60380952D01*
X150502438Y-60380952D02*
X150550057Y-60333333D01*
X150550057Y-60333333D02*
X150645295Y-60285714D01*
X150645295Y-60285714D02*
X150835771Y-60238095D01*
X150835771Y-60238095D02*
X151073866Y-60238095D01*
X151073866Y-60238095D02*
X151264342Y-60285714D01*
X151264342Y-60285714D02*
X151359580Y-60333333D01*
X151359580Y-60333333D02*
X151407200Y-60380952D01*
X151407200Y-60380952D02*
X151454819Y-60476190D01*
X151454819Y-60476190D02*
X151454819Y-60571428D01*
X151454819Y-60571428D02*
X151407200Y-60666666D01*
X151407200Y-60666666D02*
X151359580Y-60714285D01*
X151359580Y-60714285D02*
X151264342Y-60761904D01*
X151264342Y-60761904D02*
X151073866Y-60809523D01*
X151073866Y-60809523D02*
X150835771Y-60809523D01*
X150835771Y-60809523D02*
X150645295Y-60761904D01*
X150645295Y-60761904D02*
X150550057Y-60714285D01*
X150550057Y-60714285D02*
X150502438Y-60666666D01*
X150502438Y-60666666D02*
X150454819Y-60571428D01*
X171259819Y-65153333D02*
X171974104Y-65153333D01*
X171974104Y-65153333D02*
X172116961Y-65200952D01*
X172116961Y-65200952D02*
X172212200Y-65296190D01*
X172212200Y-65296190D02*
X172259819Y-65439047D01*
X172259819Y-65439047D02*
X172259819Y-65534285D01*
X172259819Y-64153333D02*
X172259819Y-64724761D01*
X172259819Y-64439047D02*
X171259819Y-64439047D01*
X171259819Y-64439047D02*
X171402676Y-64534285D01*
X171402676Y-64534285D02*
X171497914Y-64629523D01*
X171497914Y-64629523D02*
X171545533Y-64724761D01*
X137833333Y-57929580D02*
X137785714Y-57977200D01*
X137785714Y-57977200D02*
X137642857Y-58024819D01*
X137642857Y-58024819D02*
X137547619Y-58024819D01*
X137547619Y-58024819D02*
X137404762Y-57977200D01*
X137404762Y-57977200D02*
X137309524Y-57881961D01*
X137309524Y-57881961D02*
X137261905Y-57786723D01*
X137261905Y-57786723D02*
X137214286Y-57596247D01*
X137214286Y-57596247D02*
X137214286Y-57453390D01*
X137214286Y-57453390D02*
X137261905Y-57262914D01*
X137261905Y-57262914D02*
X137309524Y-57167676D01*
X137309524Y-57167676D02*
X137404762Y-57072438D01*
X137404762Y-57072438D02*
X137547619Y-57024819D01*
X137547619Y-57024819D02*
X137642857Y-57024819D01*
X137642857Y-57024819D02*
X137785714Y-57072438D01*
X137785714Y-57072438D02*
X137833333Y-57120057D01*
X138738095Y-57024819D02*
X138261905Y-57024819D01*
X138261905Y-57024819D02*
X138214286Y-57501009D01*
X138214286Y-57501009D02*
X138261905Y-57453390D01*
X138261905Y-57453390D02*
X138357143Y-57405771D01*
X138357143Y-57405771D02*
X138595238Y-57405771D01*
X138595238Y-57405771D02*
X138690476Y-57453390D01*
X138690476Y-57453390D02*
X138738095Y-57501009D01*
X138738095Y-57501009D02*
X138785714Y-57596247D01*
X138785714Y-57596247D02*
X138785714Y-57834342D01*
X138785714Y-57834342D02*
X138738095Y-57929580D01*
X138738095Y-57929580D02*
X138690476Y-57977200D01*
X138690476Y-57977200D02*
X138595238Y-58024819D01*
X138595238Y-58024819D02*
X138357143Y-58024819D01*
X138357143Y-58024819D02*
X138261905Y-57977200D01*
X138261905Y-57977200D02*
X138214286Y-57929580D01*
X164357142Y-99359580D02*
X164309523Y-99407200D01*
X164309523Y-99407200D02*
X164166666Y-99454819D01*
X164166666Y-99454819D02*
X164071428Y-99454819D01*
X164071428Y-99454819D02*
X163928571Y-99407200D01*
X163928571Y-99407200D02*
X163833333Y-99311961D01*
X163833333Y-99311961D02*
X163785714Y-99216723D01*
X163785714Y-99216723D02*
X163738095Y-99026247D01*
X163738095Y-99026247D02*
X163738095Y-98883390D01*
X163738095Y-98883390D02*
X163785714Y-98692914D01*
X163785714Y-98692914D02*
X163833333Y-98597676D01*
X163833333Y-98597676D02*
X163928571Y-98502438D01*
X163928571Y-98502438D02*
X164071428Y-98454819D01*
X164071428Y-98454819D02*
X164166666Y-98454819D01*
X164166666Y-98454819D02*
X164309523Y-98502438D01*
X164309523Y-98502438D02*
X164357142Y-98550057D01*
X165309523Y-99454819D02*
X164738095Y-99454819D01*
X165023809Y-99454819D02*
X165023809Y-98454819D01*
X165023809Y-98454819D02*
X164928571Y-98597676D01*
X164928571Y-98597676D02*
X164833333Y-98692914D01*
X164833333Y-98692914D02*
X164738095Y-98740533D01*
X166261904Y-99454819D02*
X165690476Y-99454819D01*
X165976190Y-99454819D02*
X165976190Y-98454819D01*
X165976190Y-98454819D02*
X165880952Y-98597676D01*
X165880952Y-98597676D02*
X165785714Y-98692914D01*
X165785714Y-98692914D02*
X165690476Y-98740533D01*
X182050833Y-136879819D02*
X181717500Y-136403628D01*
X181479405Y-136879819D02*
X181479405Y-135879819D01*
X181479405Y-135879819D02*
X181860357Y-135879819D01*
X181860357Y-135879819D02*
X181955595Y-135927438D01*
X181955595Y-135927438D02*
X182003214Y-135975057D01*
X182003214Y-135975057D02*
X182050833Y-136070295D01*
X182050833Y-136070295D02*
X182050833Y-136213152D01*
X182050833Y-136213152D02*
X182003214Y-136308390D01*
X182003214Y-136308390D02*
X181955595Y-136356009D01*
X181955595Y-136356009D02*
X181860357Y-136403628D01*
X181860357Y-136403628D02*
X181479405Y-136403628D01*
X182622262Y-136308390D02*
X182527024Y-136260771D01*
X182527024Y-136260771D02*
X182479405Y-136213152D01*
X182479405Y-136213152D02*
X182431786Y-136117914D01*
X182431786Y-136117914D02*
X182431786Y-136070295D01*
X182431786Y-136070295D02*
X182479405Y-135975057D01*
X182479405Y-135975057D02*
X182527024Y-135927438D01*
X182527024Y-135927438D02*
X182622262Y-135879819D01*
X182622262Y-135879819D02*
X182812738Y-135879819D01*
X182812738Y-135879819D02*
X182907976Y-135927438D01*
X182907976Y-135927438D02*
X182955595Y-135975057D01*
X182955595Y-135975057D02*
X183003214Y-136070295D01*
X183003214Y-136070295D02*
X183003214Y-136117914D01*
X183003214Y-136117914D02*
X182955595Y-136213152D01*
X182955595Y-136213152D02*
X182907976Y-136260771D01*
X182907976Y-136260771D02*
X182812738Y-136308390D01*
X182812738Y-136308390D02*
X182622262Y-136308390D01*
X182622262Y-136308390D02*
X182527024Y-136356009D01*
X182527024Y-136356009D02*
X182479405Y-136403628D01*
X182479405Y-136403628D02*
X182431786Y-136498866D01*
X182431786Y-136498866D02*
X182431786Y-136689342D01*
X182431786Y-136689342D02*
X182479405Y-136784580D01*
X182479405Y-136784580D02*
X182527024Y-136832200D01*
X182527024Y-136832200D02*
X182622262Y-136879819D01*
X182622262Y-136879819D02*
X182812738Y-136879819D01*
X182812738Y-136879819D02*
X182907976Y-136832200D01*
X182907976Y-136832200D02*
X182955595Y-136784580D01*
X182955595Y-136784580D02*
X183003214Y-136689342D01*
X183003214Y-136689342D02*
X183003214Y-136498866D01*
X183003214Y-136498866D02*
X182955595Y-136403628D01*
X182955595Y-136403628D02*
X182907976Y-136356009D01*
X182907976Y-136356009D02*
X182812738Y-136308390D01*
X169104819Y-59263094D02*
X168104819Y-59263094D01*
X168104819Y-59263094D02*
X168104819Y-59024999D01*
X168104819Y-59024999D02*
X168152438Y-58882142D01*
X168152438Y-58882142D02*
X168247676Y-58786904D01*
X168247676Y-58786904D02*
X168342914Y-58739285D01*
X168342914Y-58739285D02*
X168533390Y-58691666D01*
X168533390Y-58691666D02*
X168676247Y-58691666D01*
X168676247Y-58691666D02*
X168866723Y-58739285D01*
X168866723Y-58739285D02*
X168961961Y-58786904D01*
X168961961Y-58786904D02*
X169057200Y-58882142D01*
X169057200Y-58882142D02*
X169104819Y-59024999D01*
X169104819Y-59024999D02*
X169104819Y-59263094D01*
X168104819Y-58358332D02*
X168104819Y-57691666D01*
X168104819Y-57691666D02*
X169104819Y-58120237D01*
X172833333Y-57524819D02*
X172500000Y-57048628D01*
X172261905Y-57524819D02*
X172261905Y-56524819D01*
X172261905Y-56524819D02*
X172642857Y-56524819D01*
X172642857Y-56524819D02*
X172738095Y-56572438D01*
X172738095Y-56572438D02*
X172785714Y-56620057D01*
X172785714Y-56620057D02*
X172833333Y-56715295D01*
X172833333Y-56715295D02*
X172833333Y-56858152D01*
X172833333Y-56858152D02*
X172785714Y-56953390D01*
X172785714Y-56953390D02*
X172738095Y-57001009D01*
X172738095Y-57001009D02*
X172642857Y-57048628D01*
X172642857Y-57048628D02*
X172261905Y-57048628D01*
X173166667Y-56524819D02*
X173785714Y-56524819D01*
X173785714Y-56524819D02*
X173452381Y-56905771D01*
X173452381Y-56905771D02*
X173595238Y-56905771D01*
X173595238Y-56905771D02*
X173690476Y-56953390D01*
X173690476Y-56953390D02*
X173738095Y-57001009D01*
X173738095Y-57001009D02*
X173785714Y-57096247D01*
X173785714Y-57096247D02*
X173785714Y-57334342D01*
X173785714Y-57334342D02*
X173738095Y-57429580D01*
X173738095Y-57429580D02*
X173690476Y-57477200D01*
X173690476Y-57477200D02*
X173595238Y-57524819D01*
X173595238Y-57524819D02*
X173309524Y-57524819D01*
X173309524Y-57524819D02*
X173214286Y-57477200D01*
X173214286Y-57477200D02*
X173166667Y-57429580D01*
X149738095Y-86054819D02*
X149738095Y-86864342D01*
X149738095Y-86864342D02*
X149785714Y-86959580D01*
X149785714Y-86959580D02*
X149833333Y-87007200D01*
X149833333Y-87007200D02*
X149928571Y-87054819D01*
X149928571Y-87054819D02*
X150119047Y-87054819D01*
X150119047Y-87054819D02*
X150214285Y-87007200D01*
X150214285Y-87007200D02*
X150261904Y-86959580D01*
X150261904Y-86959580D02*
X150309523Y-86864342D01*
X150309523Y-86864342D02*
X150309523Y-86054819D01*
X151214285Y-86388152D02*
X151214285Y-87054819D01*
X150976190Y-86007200D02*
X150738095Y-86721485D01*
X150738095Y-86721485D02*
X151357142Y-86721485D01*
D12*
%TO.C,C13*%
X154353733Y-93490000D02*
X154646267Y-93490000D01*
X154353733Y-94510000D02*
X154646267Y-94510000D01*
%TO.C,C16*%
X144646267Y-96990000D02*
X144353733Y-96990000D01*
X144646267Y-98010000D02*
X144353733Y-98010000D01*
%TO.C,R7*%
X125977500Y-71745276D02*
X125977500Y-72254724D01*
X127022500Y-71745276D02*
X127022500Y-72254724D01*
%TO.C,C9*%
X151035949Y-83757198D02*
X151242802Y-83964051D01*
X151757198Y-83035949D02*
X151964051Y-83242802D01*
%TO.C,C14*%
X160853733Y-98490000D02*
X161146267Y-98490000D01*
X160853733Y-99510000D02*
X161146267Y-99510000D01*
%TO.C,C19*%
X163353733Y-94490000D02*
X163646267Y-94490000D01*
X163353733Y-95510000D02*
X163646267Y-95510000D01*
%TO.C,C8*%
X170853733Y-71990000D02*
X171146267Y-71990000D01*
X170853733Y-73010000D02*
X171146267Y-73010000D01*
%TO.C,U6*%
X160090000Y-82090000D02*
X161350000Y-82090000D01*
X160090000Y-85850000D02*
X160090000Y-82090000D01*
X166910000Y-82090000D02*
X165650000Y-82090000D01*
X166910000Y-85850000D02*
X166910000Y-82090000D01*
X160190000Y-87130000D02*
X159860000Y-87370000D01*
X159860000Y-86890000D01*
X160190000Y-87130000D01*
G36*
X160190000Y-87130000D02*
G01*
X159860000Y-87370000D01*
X159860000Y-86890000D01*
X160190000Y-87130000D01*
G37*
%TO.C,RST_SW*%
X122430000Y-83430000D02*
X126570000Y-83430000D01*
X122430000Y-83730000D02*
X122430000Y-83430000D01*
X122430000Y-86570000D02*
X122430000Y-86270000D01*
X126570000Y-83430000D02*
X126570000Y-83730000D01*
X126570000Y-86270000D02*
X126570000Y-86570000D01*
X126570000Y-86570000D02*
X122430000Y-86570000D01*
%TO.C,U7*%
X167302500Y-68890000D02*
X168822500Y-68890000D01*
X167302500Y-68940000D02*
X167302500Y-68890000D01*
X167302500Y-70840000D02*
X167302500Y-70060000D01*
X167302500Y-72010000D02*
X167302500Y-71960000D01*
X168822500Y-68890000D02*
X168822500Y-69890000D01*
X168822500Y-71010000D02*
X168822500Y-72010000D01*
X168822500Y-72010000D02*
X167302500Y-72010000D01*
X167002500Y-70400000D02*
X166522500Y-70400000D01*
X166762500Y-70070000D01*
X167002500Y-70400000D01*
G36*
X167002500Y-70400000D02*
G01*
X166522500Y-70400000D01*
X166762500Y-70070000D01*
X167002500Y-70400000D01*
G37*
%TO.C,C10*%
X160990000Y-77146267D02*
X160990000Y-76853733D01*
X162010000Y-77146267D02*
X162010000Y-76853733D01*
%TO.C,Y1*%
X145260000Y-55690000D02*
X139740000Y-55690000D01*
X145260000Y-60310000D02*
X145260000Y-55690000D01*
%TO.C,C17*%
X167646267Y-94490000D02*
X167353733Y-94490000D01*
X167646267Y-95510000D02*
X167353733Y-95510000D01*
%TO.C,C20*%
X151990000Y-58646267D02*
X151990000Y-58353733D01*
X153010000Y-58646267D02*
X153010000Y-58353733D01*
D13*
%TO.C,G\u002A\u002A\u002A*%
G36*
X129364462Y-94847282D02*
G01*
X129385584Y-94886772D01*
X129402875Y-94933724D01*
X129397987Y-94971163D01*
X129363599Y-95014765D01*
X129297310Y-95075847D01*
X129227300Y-95135269D01*
X129174312Y-95175286D01*
X129153903Y-95186067D01*
X129133172Y-95162049D01*
X129100056Y-95100173D01*
X129073814Y-95041957D01*
X129012929Y-94897848D01*
X129089554Y-94868216D01*
X129176145Y-94841322D01*
X129257917Y-94823251D01*
X129325608Y-94819622D01*
X129364462Y-94847282D01*
G37*
G36*
X121806221Y-94613205D02*
G01*
X121814973Y-94685344D01*
X121815513Y-94792283D01*
X121807602Y-94923144D01*
X121798810Y-95007696D01*
X121783781Y-95098340D01*
X121757191Y-95144458D01*
X121704958Y-95155492D01*
X121613006Y-95140884D01*
X121603258Y-95138836D01*
X121520085Y-95121853D01*
X121468870Y-95106405D01*
X121449157Y-95082753D01*
X121460489Y-95041151D01*
X121502411Y-94971859D01*
X121574466Y-94865134D01*
X121589407Y-94842972D01*
X121661949Y-94738687D01*
X121724878Y-94654847D01*
X121770539Y-94601253D01*
X121789499Y-94586741D01*
X121806221Y-94613205D01*
G37*
G36*
X129508331Y-95334266D02*
G01*
X129569145Y-95358354D01*
X129574291Y-95363011D01*
X129600916Y-95420715D01*
X129606987Y-95499246D01*
X129590531Y-95565459D01*
X129586697Y-95571348D01*
X129537357Y-95618718D01*
X129464780Y-95667240D01*
X129384752Y-95709077D01*
X129313060Y-95736391D01*
X129265488Y-95741344D01*
X129256680Y-95735194D01*
X129243219Y-95695112D01*
X129226639Y-95624825D01*
X129224483Y-95614157D01*
X129206934Y-95531379D01*
X129191250Y-95466516D01*
X129190482Y-95463749D01*
X129203180Y-95418364D01*
X129257127Y-95378572D01*
X129336510Y-95348525D01*
X129425515Y-95332373D01*
X129508331Y-95334266D01*
G37*
G36*
X120328645Y-92885644D02*
G01*
X120747298Y-92918929D01*
X121179867Y-92985394D01*
X121630822Y-93086183D01*
X122104635Y-93222442D01*
X122605776Y-93395314D01*
X123138716Y-93605943D01*
X123700898Y-93852262D01*
X123890054Y-93935956D01*
X124093433Y-94021289D01*
X124293196Y-94101079D01*
X124471506Y-94168140D01*
X124571348Y-94202789D01*
X125134687Y-94358819D01*
X125718041Y-94463176D01*
X126317944Y-94516217D01*
X126930931Y-94518295D01*
X127553537Y-94469765D01*
X128182297Y-94370982D01*
X128813746Y-94222300D01*
X129444420Y-94024074D01*
X130070854Y-93776658D01*
X130450449Y-93601226D01*
X130605518Y-93524769D01*
X130753416Y-93450528D01*
X130881751Y-93384819D01*
X130978130Y-93333957D01*
X131014073Y-93313998D01*
X131092327Y-93274507D01*
X131150753Y-93255350D01*
X131171039Y-93257336D01*
X131164555Y-93287668D01*
X131134760Y-93361146D01*
X131085043Y-93470468D01*
X131018793Y-93608332D01*
X130939399Y-93767435D01*
X130885673Y-93872354D01*
X130798928Y-94040886D01*
X130721693Y-94192325D01*
X130657622Y-94319391D01*
X130610371Y-94414803D01*
X130583594Y-94471282D01*
X130578876Y-94483491D01*
X130606113Y-94488411D01*
X130682619Y-94492802D01*
X130800586Y-94496463D01*
X130952204Y-94499192D01*
X131129665Y-94500788D01*
X131262135Y-94501123D01*
X131463378Y-94502193D01*
X131640063Y-94505222D01*
X131785021Y-94509938D01*
X131891082Y-94516071D01*
X131951075Y-94523347D01*
X131961768Y-94527616D01*
X131946593Y-94555841D01*
X131889527Y-94617493D01*
X131793142Y-94710205D01*
X131660010Y-94831613D01*
X131492702Y-94979349D01*
X131293789Y-95151049D01*
X131163932Y-95261548D01*
X130952500Y-95433995D01*
X130704196Y-95625531D01*
X130430172Y-95828340D01*
X130141580Y-96034606D01*
X129849572Y-96236515D01*
X129565302Y-96426250D01*
X129299921Y-96595998D01*
X129064582Y-96737941D01*
X129023482Y-96761521D01*
X128515384Y-97031117D01*
X128021502Y-97254961D01*
X127544936Y-97431908D01*
X127088790Y-97560816D01*
X126656164Y-97640539D01*
X126631897Y-97643625D01*
X126480264Y-97655874D01*
X126282743Y-97661814D01*
X126050138Y-97661738D01*
X125793258Y-97655938D01*
X125522908Y-97644706D01*
X125249896Y-97628334D01*
X124985027Y-97607114D01*
X124871010Y-97596023D01*
X124534492Y-97557323D01*
X124206484Y-97510990D01*
X123878541Y-97455185D01*
X123542218Y-97388068D01*
X123189071Y-97307801D01*
X122810655Y-97212546D01*
X122398524Y-97100462D01*
X121944235Y-96969711D01*
X121803033Y-96927930D01*
X121301132Y-96780303D01*
X120848692Y-96650988D01*
X120635053Y-96592274D01*
X123391633Y-96592274D01*
X123407433Y-96640387D01*
X123444376Y-96670289D01*
X123523006Y-96682155D01*
X123614105Y-96647794D01*
X123709938Y-96574362D01*
X123802773Y-96469016D01*
X123884873Y-96338911D01*
X123942015Y-96209856D01*
X123978344Y-96123970D01*
X124013685Y-96081728D01*
X124056532Y-96070786D01*
X124083658Y-96074530D01*
X124104914Y-96091724D01*
X124123558Y-96131314D01*
X124142849Y-96202246D01*
X124166044Y-96313463D01*
X124189079Y-96434662D01*
X124222379Y-96601154D01*
X124251851Y-96720094D01*
X124280294Y-96800620D01*
X124310508Y-96851874D01*
X124320183Y-96862752D01*
X124403515Y-96916102D01*
X124490798Y-96920357D01*
X124566830Y-96874863D01*
X124568144Y-96873427D01*
X124614394Y-96796196D01*
X124630966Y-96694265D01*
X124617935Y-96559688D01*
X124575373Y-96384523D01*
X124572753Y-96375519D01*
X124532866Y-96248218D01*
X124496027Y-96143299D01*
X125615273Y-96143299D01*
X125631250Y-96354599D01*
X125670304Y-96548441D01*
X125727115Y-96697949D01*
X125826465Y-96837392D01*
X125954262Y-96933046D01*
X126101498Y-96981190D01*
X126259167Y-96978104D01*
X126346063Y-96953604D01*
X126453005Y-96894200D01*
X126526381Y-96815161D01*
X126554791Y-96728929D01*
X126554831Y-96725710D01*
X126543333Y-96652117D01*
X126503326Y-96613921D01*
X126426542Y-96607207D01*
X126334750Y-96621524D01*
X126211411Y-96635641D01*
X126118398Y-96614312D01*
X126043381Y-96550819D01*
X125974030Y-96438440D01*
X125964796Y-96419908D01*
X125918930Y-96309716D01*
X125895393Y-96201549D01*
X125888067Y-96066805D01*
X125888028Y-96061043D01*
X125898351Y-95891319D01*
X125933368Y-95766944D01*
X125995869Y-95680556D01*
X126045722Y-95645008D01*
X126101380Y-95620000D01*
X126149906Y-95622651D01*
X126218552Y-95654613D01*
X126220366Y-95655589D01*
X126316079Y-95690427D01*
X126380744Y-95680127D01*
X126410166Y-95629920D01*
X126400147Y-95545038D01*
X126368842Y-95470526D01*
X126338020Y-95431328D01*
X126700764Y-95431328D01*
X126703007Y-95528673D01*
X126715032Y-95661288D01*
X126736828Y-95837496D01*
X126752018Y-95949102D01*
X126774220Y-96113323D01*
X126795318Y-96276806D01*
X126813042Y-96421489D01*
X126825122Y-96529312D01*
X126825834Y-96536383D01*
X126838387Y-96631787D01*
X126859158Y-96701021D01*
X126895341Y-96745885D01*
X126954129Y-96768183D01*
X127042714Y-96769716D01*
X127168291Y-96752287D01*
X127338052Y-96717697D01*
X127449792Y-96692707D01*
X127618262Y-96646250D01*
X127732535Y-96594952D01*
X127795403Y-96537208D01*
X127810561Y-96485150D01*
X127784981Y-96444397D01*
X127714642Y-96422513D01*
X127609143Y-96420961D01*
X127496327Y-96437268D01*
X127381877Y-96456407D01*
X127268545Y-96468346D01*
X127218924Y-96470337D01*
X127101621Y-96470337D01*
X127085462Y-96277696D01*
X127057601Y-95981968D01*
X127027845Y-95739977D01*
X126995476Y-95548394D01*
X126959776Y-95403889D01*
X126920028Y-95303135D01*
X126900068Y-95276081D01*
X127619396Y-95276081D01*
X127620944Y-95288245D01*
X127642612Y-95403866D01*
X127678170Y-95548575D01*
X127722893Y-95706938D01*
X127772061Y-95863524D01*
X127820949Y-96002900D01*
X127864836Y-96109632D01*
X127883412Y-96145907D01*
X127977953Y-96258183D01*
X128104427Y-96337784D01*
X128247591Y-96379501D01*
X128392201Y-96378123D01*
X128482181Y-96350555D01*
X128572883Y-96278659D01*
X128637524Y-96160625D01*
X128675057Y-96001620D01*
X128684430Y-95806815D01*
X128664596Y-95581378D01*
X128652934Y-95509333D01*
X128607319Y-95290252D01*
X128557507Y-95125447D01*
X128502197Y-95012186D01*
X128440085Y-94947739D01*
X128376312Y-94929213D01*
X128322258Y-94944559D01*
X128290905Y-94993938D01*
X128281620Y-95082358D01*
X128293768Y-95214830D01*
X128320830Y-95367587D01*
X128355187Y-95567691D01*
X128375012Y-95749303D01*
X128379876Y-95902692D01*
X128369352Y-96018130D01*
X128351804Y-96072662D01*
X128300139Y-96116100D01*
X128225113Y-96126357D01*
X128161275Y-96105023D01*
X128127495Y-96067484D01*
X128090960Y-95993450D01*
X128049848Y-95877859D01*
X128002334Y-95715650D01*
X127952754Y-95526269D01*
X127905325Y-95349759D01*
X127863485Y-95222883D01*
X127823843Y-95138905D01*
X127783009Y-95091090D01*
X127737592Y-95072702D01*
X127724014Y-95071910D01*
X127656221Y-95095336D01*
X127620995Y-95164134D01*
X127619396Y-95276081D01*
X126900068Y-95276081D01*
X126875514Y-95242801D01*
X126859840Y-95231304D01*
X126814812Y-95217887D01*
X126772015Y-95245765D01*
X126752818Y-95267712D01*
X126725659Y-95309168D01*
X126708311Y-95360933D01*
X126700764Y-95431328D01*
X126338020Y-95431328D01*
X126290446Y-95370825D01*
X126188690Y-95315890D01*
X126073493Y-95304111D01*
X125954773Y-95333883D01*
X125842452Y-95403597D01*
X125746448Y-95511646D01*
X125708655Y-95577510D01*
X125653691Y-95737468D01*
X125622658Y-95931826D01*
X125615273Y-96143299D01*
X124496027Y-96143299D01*
X124490855Y-96128568D01*
X124453978Y-96036847D01*
X124443887Y-96015602D01*
X124388722Y-95907470D01*
X124476752Y-95825027D01*
X124572151Y-95725324D01*
X124662214Y-95613064D01*
X124738281Y-95501096D01*
X124791689Y-95402274D01*
X124813776Y-95329449D01*
X124813932Y-95324728D01*
X124797897Y-95247897D01*
X124750101Y-95218020D01*
X124671008Y-95234940D01*
X124561083Y-95298497D01*
X124420789Y-95408536D01*
X124330443Y-95489190D01*
X124245485Y-95564522D01*
X124181110Y-95615363D01*
X124144721Y-95636286D01*
X124140497Y-95628426D01*
X124151580Y-95576299D01*
X124163119Y-95482621D01*
X124173411Y-95362878D01*
X124178250Y-95285477D01*
X124184571Y-95154735D01*
X124185175Y-95067092D01*
X124177775Y-95008671D01*
X124160085Y-94965594D01*
X124129818Y-94923984D01*
X124115940Y-94907330D01*
X124070966Y-94866903D01*
X128782987Y-94866903D01*
X128791947Y-94927306D01*
X128813216Y-95009498D01*
X128834407Y-95085595D01*
X128866360Y-95198753D01*
X128905425Y-95336215D01*
X128947952Y-95485221D01*
X128990293Y-95633014D01*
X129028797Y-95766834D01*
X129059815Y-95873925D01*
X129079697Y-95941526D01*
X129082110Y-95949494D01*
X129118706Y-95978156D01*
X129196809Y-95982282D01*
X129306723Y-95962553D01*
X129423535Y-95925451D01*
X129553969Y-95861550D01*
X129672509Y-95776408D01*
X129765634Y-95681844D01*
X129819825Y-95589676D01*
X129824155Y-95575247D01*
X129827342Y-95467839D01*
X129794983Y-95348260D01*
X129736029Y-95234264D01*
X129659435Y-95143603D01*
X129582767Y-95096615D01*
X129558193Y-95075481D01*
X129571986Y-95029967D01*
X129575907Y-95022478D01*
X129605725Y-94919823D01*
X129605854Y-94798845D01*
X129578249Y-94686003D01*
X129546906Y-94630242D01*
X129504606Y-94584218D01*
X129459155Y-94563186D01*
X129389426Y-94560534D01*
X129336133Y-94564257D01*
X129217195Y-94587518D01*
X129083526Y-94633944D01*
X128955447Y-94694572D01*
X128853280Y-94760436D01*
X128818022Y-94792798D01*
X128791547Y-94828004D01*
X128782987Y-94866903D01*
X124070966Y-94866903D01*
X124041385Y-94840312D01*
X123971013Y-94815061D01*
X123970143Y-94815056D01*
X123913181Y-94827092D01*
X123869290Y-94867580D01*
X123835938Y-94943088D01*
X123810591Y-95060186D01*
X123790715Y-95225442D01*
X123784543Y-95296373D01*
X123754754Y-95557758D01*
X123707626Y-95784946D01*
X123637093Y-95999694D01*
X123537090Y-96223760D01*
X123512297Y-96273019D01*
X123442699Y-96416581D01*
X123402933Y-96520335D01*
X123391633Y-96592274D01*
X120635053Y-96592274D01*
X120441433Y-96539062D01*
X120075077Y-96443605D01*
X119745343Y-96363692D01*
X119447952Y-96298403D01*
X119178625Y-96246814D01*
X118933083Y-96208004D01*
X118707046Y-96181049D01*
X118496235Y-96165028D01*
X118296370Y-96159018D01*
X118235617Y-96159046D01*
X118075423Y-96162767D01*
X117922690Y-96170799D01*
X117788589Y-96182107D01*
X117684290Y-96195659D01*
X117620965Y-96210419D01*
X117608936Y-96217055D01*
X117590183Y-96261259D01*
X117568846Y-96354033D01*
X117545942Y-96486983D01*
X117522489Y-96651714D01*
X117499508Y-96839831D01*
X117478015Y-97042941D01*
X117459031Y-97252648D01*
X117443572Y-97460558D01*
X117432659Y-97658276D01*
X117431900Y-97676123D01*
X117413322Y-98125617D01*
X117203739Y-98125617D01*
X116994157Y-98125617D01*
X116994157Y-98017743D01*
X116998803Y-97923360D01*
X117011703Y-97784893D01*
X117031298Y-97614487D01*
X117056031Y-97424285D01*
X117084342Y-97226432D01*
X117114673Y-97033073D01*
X117137788Y-96898426D01*
X117245679Y-96378090D01*
X117383077Y-95859861D01*
X117552838Y-95335495D01*
X117588968Y-95240536D01*
X119025132Y-95240536D01*
X119030545Y-95347325D01*
X119067142Y-95413477D01*
X119135168Y-95441541D01*
X119159929Y-95442921D01*
X119273665Y-95414927D01*
X119386418Y-95330715D01*
X119498586Y-95189940D01*
X119553589Y-95099971D01*
X119609632Y-95000399D01*
X119654234Y-94919508D01*
X119680254Y-94870315D01*
X119683741Y-94862757D01*
X119710881Y-94864220D01*
X119776188Y-94881861D01*
X119864904Y-94910478D01*
X119962271Y-94944871D01*
X120053532Y-94979839D01*
X120123930Y-95010179D01*
X120157954Y-95029892D01*
X120156628Y-95060213D01*
X120144939Y-95133991D01*
X120124992Y-95238981D01*
X120107421Y-95323665D01*
X120077692Y-95477543D01*
X120064837Y-95585961D01*
X120068025Y-95657723D01*
X120073970Y-95679103D01*
X120120991Y-95755045D01*
X120187536Y-95780153D01*
X120273441Y-95756452D01*
X120789887Y-95756452D01*
X120807270Y-95847942D01*
X120854730Y-95895189D01*
X120925234Y-95897323D01*
X121011748Y-95853468D01*
X121080383Y-95792528D01*
X121147528Y-95716191D01*
X121201450Y-95644319D01*
X121217614Y-95617541D01*
X121241246Y-95580337D01*
X121273496Y-95562243D01*
X121330465Y-95559399D01*
X121425587Y-95567663D01*
X121518619Y-95578943D01*
X121585842Y-95590014D01*
X121610103Y-95597220D01*
X121608158Y-95628088D01*
X121592383Y-95698844D01*
X121566080Y-95794929D01*
X121562471Y-95807140D01*
X121524913Y-95943103D01*
X121507429Y-96036892D01*
X121509226Y-96099461D01*
X121529511Y-96141764D01*
X121537617Y-96150696D01*
X121606895Y-96182957D01*
X121694988Y-96166776D01*
X121793426Y-96103845D01*
X121799784Y-96098350D01*
X121845587Y-96053349D01*
X121880233Y-96003222D01*
X121909371Y-95934983D01*
X121938652Y-95835642D01*
X121954013Y-95773078D01*
X122331432Y-95773078D01*
X122348766Y-96003376D01*
X122401044Y-96193834D01*
X122487120Y-96342159D01*
X122605843Y-96446059D01*
X122687752Y-96484549D01*
X122814985Y-96519312D01*
X122915421Y-96519453D01*
X123007933Y-96484586D01*
X123019861Y-96477759D01*
X123099872Y-96402062D01*
X123129598Y-96303262D01*
X123125404Y-96252925D01*
X123092858Y-96212268D01*
X123009650Y-96180141D01*
X122975992Y-96172185D01*
X122859830Y-96134218D01*
X122782186Y-96073363D01*
X122737089Y-95980478D01*
X122718571Y-95846422D01*
X122717281Y-95776062D01*
X122743031Y-95537259D01*
X122813625Y-95296111D01*
X122922413Y-95074903D01*
X122930162Y-95062511D01*
X123009736Y-94960326D01*
X123086896Y-94913104D01*
X123166997Y-94919259D01*
X123245949Y-94969056D01*
X123327339Y-95026548D01*
X123389185Y-95039329D01*
X123444911Y-95009279D01*
X123456275Y-94998523D01*
X123496012Y-94922053D01*
X123497572Y-94824427D01*
X123465785Y-94722024D01*
X123405478Y-94631219D01*
X123330821Y-94572954D01*
X123218118Y-94538989D01*
X123081828Y-94532217D01*
X122948469Y-94552492D01*
X122885376Y-94575405D01*
X122753186Y-94666691D01*
X122631432Y-94805150D01*
X122524547Y-94981194D01*
X122436967Y-95185235D01*
X122373126Y-95407683D01*
X122337461Y-95638951D01*
X122331432Y-95773078D01*
X121954013Y-95773078D01*
X121970499Y-95705934D01*
X122038309Y-95384068D01*
X122080860Y-95096205D01*
X122100269Y-94826260D01*
X122102015Y-94705968D01*
X122091879Y-94480844D01*
X122062306Y-94307591D01*
X122012471Y-94184121D01*
X121941548Y-94108344D01*
X121854140Y-94078657D01*
X121761115Y-94093164D01*
X121668943Y-94157293D01*
X121575016Y-94273493D01*
X121488264Y-94421855D01*
X121440712Y-94511485D01*
X121371800Y-94639643D01*
X121287731Y-94794877D01*
X121194711Y-94965734D01*
X121098946Y-95140760D01*
X121084766Y-95166596D01*
X120997404Y-95328084D01*
X120920321Y-95475126D01*
X120857588Y-95599577D01*
X120813277Y-95693296D01*
X120791458Y-95748139D01*
X120789887Y-95756452D01*
X120273441Y-95756452D01*
X120277754Y-95755262D01*
X120324572Y-95729570D01*
X120398599Y-95673580D01*
X120455258Y-95612653D01*
X120458126Y-95608384D01*
X120482502Y-95555773D01*
X120519091Y-95457792D01*
X120564849Y-95324075D01*
X120616734Y-95164253D01*
X120671699Y-94987958D01*
X120726703Y-94804824D01*
X120778700Y-94624483D01*
X120824646Y-94456567D01*
X120836719Y-94410351D01*
X120876854Y-94238474D01*
X120895441Y-94110397D01*
X120892033Y-94016881D01*
X120866179Y-93948690D01*
X120817432Y-93896586D01*
X120811525Y-93892087D01*
X120756576Y-93855952D01*
X120712653Y-93850067D01*
X120652012Y-93872760D01*
X120633783Y-93881369D01*
X120586487Y-93909617D01*
X120544091Y-93951421D01*
X120499567Y-94016885D01*
X120445890Y-94116113D01*
X120386949Y-94236373D01*
X120329269Y-94356347D01*
X120281046Y-94455842D01*
X120247316Y-94524525D01*
X120233116Y-94552060D01*
X120233107Y-94552070D01*
X120204859Y-94547902D01*
X120140753Y-94527643D01*
X120057448Y-94497571D01*
X119971599Y-94463962D01*
X119899865Y-94433094D01*
X119858903Y-94411242D01*
X119858443Y-94410886D01*
X119840341Y-94369534D01*
X119848076Y-94288314D01*
X119852801Y-94265978D01*
X119864709Y-94140618D01*
X119852157Y-94002635D01*
X119819471Y-93867639D01*
X119770975Y-93751240D01*
X119710994Y-93669048D01*
X119681414Y-93647384D01*
X119585111Y-93616679D01*
X119504119Y-93637186D01*
X119437103Y-93710212D01*
X119382726Y-93837066D01*
X119348443Y-93973153D01*
X119243050Y-94430402D01*
X119115521Y-94868144D01*
X119106869Y-94894853D01*
X119050656Y-95090562D01*
X119025132Y-95240536D01*
X117588968Y-95240536D01*
X117757818Y-94796749D01*
X118000870Y-94235380D01*
X118220260Y-93773370D01*
X118330109Y-93552054D01*
X118419424Y-93377997D01*
X118491406Y-93246547D01*
X118549259Y-93153054D01*
X118596182Y-93092867D01*
X118635379Y-93061335D01*
X118670050Y-93053808D01*
X118703398Y-93065634D01*
X118706276Y-93067384D01*
X118749634Y-93082894D01*
X118809892Y-93078051D01*
X118902931Y-93051111D01*
X118925859Y-93043269D01*
X119104383Y-92987015D01*
X119279293Y-92945397D01*
X119465932Y-92915962D01*
X119679642Y-92896257D01*
X119919437Y-92884396D01*
X120328645Y-92885644D01*
G37*
D12*
%TO.C,C24*%
X139242802Y-67464051D02*
X139035949Y-67257198D01*
X139964051Y-66742802D02*
X139757198Y-66535949D01*
%TO.C,C2*%
X175853733Y-83990000D02*
X176146267Y-83990000D01*
X175853733Y-85010000D02*
X176146267Y-85010000D01*
%TO.C,R13*%
X166477500Y-62779724D02*
X166477500Y-62270276D01*
X167522500Y-62779724D02*
X167522500Y-62270276D01*
%TO.C,R12*%
X170977500Y-80342224D02*
X170977500Y-79832776D01*
X172022500Y-80342224D02*
X172022500Y-79832776D01*
%TO.C,R11*%
X146477500Y-61754724D02*
X146477500Y-61245276D01*
X147522500Y-61754724D02*
X147522500Y-61245276D01*
%TO.C,R9*%
X149245276Y-98477500D02*
X149754724Y-98477500D01*
X149245276Y-99522500D02*
X149754724Y-99522500D01*
%TO.C,R1*%
X132245276Y-70477500D02*
X132754724Y-70477500D01*
X132245276Y-71522500D02*
X132754724Y-71522500D01*
%TO.C,U1*%
X141440000Y-68590000D02*
X142090000Y-68590000D01*
X141440000Y-69240000D02*
X141440000Y-68590000D01*
X141440000Y-75810000D02*
X141440000Y-75160000D01*
X142090000Y-75810000D02*
X141440000Y-75810000D01*
X148010000Y-68590000D02*
X148660000Y-68590000D01*
X148660000Y-68590000D02*
X148660000Y-69240000D01*
X148660000Y-75160000D02*
X148660000Y-75810000D01*
X148660000Y-75810000D02*
X148010000Y-75810000D01*
X140940000Y-69600000D02*
X140610000Y-69840000D01*
X140610000Y-69360000D01*
X140940000Y-69600000D01*
G36*
X140940000Y-69600000D02*
G01*
X140610000Y-69840000D01*
X140610000Y-69360000D01*
X140940000Y-69600000D01*
G37*
%TO.C,R6*%
X142977500Y-62745276D02*
X142977500Y-63254724D01*
X144022500Y-62745276D02*
X144022500Y-63254724D01*
%TO.C,C4*%
X147508767Y-56490000D02*
X147216233Y-56490000D01*
X147508767Y-57510000D02*
X147216233Y-57510000D01*
%TO.C,C18*%
X167990000Y-88353733D02*
X167990000Y-88646267D01*
X169010000Y-88353733D02*
X169010000Y-88646267D01*
%TO.C,U2*%
X159240000Y-94940000D02*
X160760000Y-94940000D01*
X159240000Y-94990000D02*
X159240000Y-94940000D01*
X159240000Y-96890000D02*
X159240000Y-96110000D01*
X159240000Y-98060000D02*
X159240000Y-98010000D01*
X160760000Y-94940000D02*
X160760000Y-95940000D01*
X160760000Y-97060000D02*
X160760000Y-98060000D01*
X160760000Y-98060000D02*
X159240000Y-98060000D01*
X158940000Y-96450000D02*
X158460000Y-96450000D01*
X158700000Y-96120000D01*
X158940000Y-96450000D01*
G36*
X158940000Y-96450000D02*
G01*
X158460000Y-96450000D01*
X158700000Y-96120000D01*
X158940000Y-96450000D01*
G37*
%TO.C,BOOT_SW*%
X122430000Y-73930000D02*
X126570000Y-73930000D01*
X122430000Y-74230000D02*
X122430000Y-73930000D01*
X122430000Y-77070000D02*
X122430000Y-76770000D01*
X126570000Y-73930000D02*
X126570000Y-74230000D01*
X126570000Y-76770000D02*
X126570000Y-77070000D01*
X126570000Y-77070000D02*
X122430000Y-77070000D01*
%TO.C,C15*%
X165353733Y-88990000D02*
X165646267Y-88990000D01*
X165353733Y-90010000D02*
X165646267Y-90010000D01*
%TO.C,R10*%
X148977500Y-61754724D02*
X148977500Y-61245276D01*
X150022500Y-61754724D02*
X150022500Y-61245276D01*
%TO.C,J1*%
X175550000Y-60120000D02*
X177550000Y-60120000D01*
X175550000Y-69520000D02*
X177550000Y-69520000D01*
X179450000Y-60120000D02*
X181350000Y-60120000D01*
X179450000Y-69520000D02*
X181350000Y-69520000D01*
X181350000Y-69520000D02*
X181350000Y-60120000D01*
%TO.C,C5*%
X137853733Y-58490000D02*
X138146267Y-58490000D01*
X137853733Y-59510000D02*
X138146267Y-59510000D01*
%TO.C,C11*%
X164853733Y-96990000D02*
X165146267Y-96990000D01*
X164853733Y-98010000D02*
X165146267Y-98010000D01*
%TO.C,R8*%
X155754724Y-97977500D02*
X155245276Y-97977500D01*
X155754724Y-99022500D02*
X155245276Y-99022500D01*
%TO.C,D7*%
X166040000Y-56665000D02*
X166040000Y-59525000D01*
X167960000Y-56665000D02*
X166040000Y-56665000D01*
X167960000Y-59525000D02*
X167960000Y-56665000D01*
%TO.C,R3*%
X172745276Y-57977500D02*
X173254724Y-57977500D01*
X172745276Y-59022500D02*
X173254724Y-59022500D01*
D13*
%TO.C,G\u002A\u002A\u002A*%
G36*
X119104858Y-87739151D02*
G01*
X119104858Y-87894906D01*
X118583679Y-87894906D01*
X118062500Y-87894906D01*
X118062500Y-87739151D01*
X118062500Y-87583396D01*
X118583679Y-87583396D01*
X119104858Y-87583396D01*
X119104858Y-87739151D01*
G37*
G36*
X119104858Y-88380142D02*
G01*
X119104858Y-88529906D01*
X118583679Y-88529906D01*
X118062500Y-88529906D01*
X118062500Y-88380142D01*
X118062500Y-88230377D01*
X118583679Y-88230377D01*
X119104858Y-88230377D01*
X119104858Y-88380142D01*
G37*
G36*
X119104858Y-89033113D02*
G01*
X119104858Y-89188868D01*
X118583679Y-89188868D01*
X118062500Y-89188868D01*
X118062500Y-89033113D01*
X118062500Y-88877359D01*
X118583679Y-88877359D01*
X119104858Y-88877359D01*
X119104858Y-89033113D01*
G37*
G36*
X119608066Y-90578679D02*
G01*
X119608066Y-91381415D01*
X119452311Y-91381415D01*
X119296556Y-91381415D01*
X119296556Y-90578679D01*
X119296556Y-89775943D01*
X119452311Y-89775943D01*
X119608066Y-89775943D01*
X119608066Y-90578679D01*
G37*
G36*
X120338915Y-89033113D02*
G01*
X120338915Y-89188868D01*
X119817736Y-89188868D01*
X119296556Y-89188868D01*
X119296556Y-89033113D01*
X119296556Y-88877359D01*
X119817736Y-88877359D01*
X120338915Y-88877359D01*
X120338915Y-89033113D01*
G37*
G36*
X121513066Y-87739151D02*
G01*
X121513066Y-87894906D01*
X120991887Y-87894906D01*
X120470707Y-87894906D01*
X120470707Y-87739151D01*
X120470707Y-87583396D01*
X120991887Y-87583396D01*
X121513066Y-87583396D01*
X121513066Y-87739151D01*
G37*
G36*
X122016273Y-89931698D02*
G01*
X122016273Y-90087453D01*
X121495094Y-90087453D01*
X120973915Y-90087453D01*
X120973915Y-89931698D01*
X120973915Y-89775943D01*
X121495094Y-89775943D01*
X122016273Y-89775943D01*
X122016273Y-89931698D01*
G37*
G36*
X122016273Y-91225660D02*
G01*
X122016273Y-91381415D01*
X121495094Y-91381415D01*
X120973915Y-91381415D01*
X120973915Y-91225660D01*
X120973915Y-91069906D01*
X121495094Y-91069906D01*
X122016273Y-91069906D01*
X122016273Y-91225660D01*
G37*
G36*
X125155330Y-87739151D02*
G01*
X125155330Y-87894906D01*
X124634151Y-87894906D01*
X124112971Y-87894906D01*
X124112971Y-87739151D01*
X124112971Y-87583396D01*
X124634151Y-87583396D01*
X125155330Y-87583396D01*
X125155330Y-87739151D01*
G37*
G36*
X125155330Y-88380142D02*
G01*
X125155330Y-88529906D01*
X124634151Y-88529906D01*
X124112971Y-88529906D01*
X124112971Y-88380142D01*
X124112971Y-88230377D01*
X124634151Y-88230377D01*
X125155330Y-88230377D01*
X125155330Y-88380142D01*
G37*
G36*
X125155330Y-89033113D02*
G01*
X125155330Y-89188868D01*
X124634151Y-89188868D01*
X124112971Y-89188868D01*
X124112971Y-89033113D01*
X124112971Y-88877359D01*
X124634151Y-88877359D01*
X125155330Y-88877359D01*
X125155330Y-89033113D01*
G37*
G36*
X127563538Y-87739151D02*
G01*
X127563538Y-87894906D01*
X127042358Y-87894906D01*
X126521179Y-87894906D01*
X126521179Y-87739151D01*
X126521179Y-87583396D01*
X127042358Y-87583396D01*
X127563538Y-87583396D01*
X127563538Y-87739151D01*
G37*
G36*
X128737688Y-89033113D02*
G01*
X128737688Y-89188868D01*
X128216509Y-89188868D01*
X127695330Y-89188868D01*
X127695330Y-89033113D01*
X127695330Y-88877359D01*
X128216509Y-88877359D01*
X128737688Y-88877359D01*
X128737688Y-89033113D01*
G37*
G36*
X128737688Y-90578679D02*
G01*
X128737688Y-90734434D01*
X128054764Y-90734434D01*
X127371839Y-90734434D01*
X127371839Y-90578679D01*
X127371839Y-90422925D01*
X128054764Y-90422925D01*
X128737688Y-90422925D01*
X128737688Y-90578679D01*
G37*
G36*
X130295236Y-88386132D02*
G01*
X130295236Y-88541887D01*
X129612311Y-88541887D01*
X128929387Y-88541887D01*
X128929387Y-88386132D01*
X128929387Y-88230377D01*
X129612311Y-88230377D01*
X130295236Y-88230377D01*
X130295236Y-88386132D01*
G37*
G36*
X131529292Y-89033113D02*
G01*
X131529292Y-89188868D01*
X131008113Y-89188868D01*
X130486934Y-89188868D01*
X130486934Y-89033113D01*
X130486934Y-88877359D01*
X131008113Y-88877359D01*
X131529292Y-88877359D01*
X131529292Y-89033113D01*
G37*
G36*
X132703443Y-87739151D02*
G01*
X132703443Y-87894906D01*
X132182264Y-87894906D01*
X131661085Y-87894906D01*
X131661085Y-87739151D01*
X131661085Y-87583396D01*
X132182264Y-87583396D01*
X132703443Y-87583396D01*
X132703443Y-87739151D01*
G37*
G36*
X133937500Y-87739151D02*
G01*
X133937500Y-87894906D01*
X133416321Y-87894906D01*
X132895141Y-87894906D01*
X132895141Y-87739151D01*
X132895141Y-87583396D01*
X133416321Y-87583396D01*
X133937500Y-87583396D01*
X133937500Y-87739151D01*
G37*
G36*
X133937500Y-88380142D02*
G01*
X133937500Y-88529906D01*
X133416321Y-88529906D01*
X132895141Y-88529906D01*
X132895141Y-88380142D01*
X132895141Y-88230377D01*
X133416321Y-88230377D01*
X133937500Y-88230377D01*
X133937500Y-88380142D01*
G37*
G36*
X133937500Y-89033113D02*
G01*
X133937500Y-89188868D01*
X133416321Y-89188868D01*
X132895141Y-89188868D01*
X132895141Y-89033113D01*
X132895141Y-88877359D01*
X133416321Y-88877359D01*
X133937500Y-88877359D01*
X133937500Y-89033113D01*
G37*
G36*
X129070165Y-89775953D02*
G01*
X129210943Y-89775962D01*
X129663231Y-90381624D01*
X130115519Y-90987286D01*
X130115519Y-91184350D01*
X130115519Y-91381415D01*
X130067643Y-91381415D01*
X130019767Y-91381415D01*
X129474577Y-90654588D01*
X128929387Y-89927760D01*
X128929387Y-89851852D01*
X128929387Y-89775943D01*
X129070165Y-89775953D01*
G37*
G36*
X131419450Y-89856816D02*
G01*
X131415471Y-89937689D01*
X130876321Y-90659193D01*
X130337170Y-91380696D01*
X130286250Y-91381056D01*
X130235330Y-91381415D01*
X130235330Y-91183981D01*
X130235330Y-90986548D01*
X130687618Y-90381730D01*
X131139905Y-89776913D01*
X131281667Y-89776428D01*
X131423428Y-89775943D01*
X131419450Y-89856816D01*
G37*
G36*
X132056462Y-90578679D02*
G01*
X132056462Y-91381415D01*
X131894717Y-91381415D01*
X131732971Y-91381415D01*
X131732971Y-90734434D01*
X131732971Y-90087453D01*
X131673066Y-90087453D01*
X131613160Y-90087453D01*
X131613160Y-89931698D01*
X131613160Y-89775943D01*
X131834811Y-89775943D01*
X132056462Y-89775943D01*
X132056462Y-90578679D01*
G37*
G36*
X120338915Y-87739151D02*
G01*
X120338915Y-87894906D01*
X119973490Y-87894906D01*
X119608066Y-87894906D01*
X119608066Y-88062642D01*
X119608066Y-88230377D01*
X119973490Y-88230377D01*
X120338915Y-88230377D01*
X120338915Y-88380142D01*
X120338915Y-88529906D01*
X119817736Y-88529906D01*
X119296556Y-88529906D01*
X119296556Y-88056651D01*
X119296556Y-87583396D01*
X119817736Y-87583396D01*
X120338915Y-87583396D01*
X120338915Y-87739151D01*
G37*
G36*
X120842122Y-89931698D02*
G01*
X120842122Y-90087453D01*
X120476698Y-90087453D01*
X120111273Y-90087453D01*
X120111273Y-90578679D01*
X120111273Y-91069906D01*
X120476698Y-91069906D01*
X120842122Y-91069906D01*
X120842122Y-91225660D01*
X120842122Y-91381415D01*
X120320943Y-91381415D01*
X119799764Y-91381415D01*
X119799764Y-90578679D01*
X119799764Y-89775943D01*
X120320943Y-89775943D01*
X120842122Y-89775943D01*
X120842122Y-89931698D01*
G37*
G36*
X121513066Y-88709623D02*
G01*
X121513066Y-89188868D01*
X120991887Y-89188868D01*
X120470707Y-89188868D01*
X120470707Y-89033113D01*
X120470707Y-88877359D01*
X120836461Y-88877359D01*
X121202214Y-88877359D01*
X121198890Y-88706627D01*
X121195566Y-88535896D01*
X120833137Y-88532725D01*
X120470707Y-88529554D01*
X120470707Y-88379966D01*
X120470707Y-88230377D01*
X120991887Y-88230377D01*
X121513066Y-88230377D01*
X121513066Y-88709623D01*
G37*
G36*
X123921273Y-88140519D02*
G01*
X123921273Y-88697642D01*
X123400094Y-88697642D01*
X122878915Y-88697642D01*
X122878915Y-88541887D01*
X122878915Y-88386132D01*
X123244339Y-88386132D01*
X123609764Y-88386132D01*
X123609764Y-88140519D01*
X123609764Y-87894906D01*
X123244339Y-87894906D01*
X122878915Y-87894906D01*
X122878915Y-87739151D01*
X122878915Y-87583396D01*
X123400094Y-87583396D01*
X123921273Y-87583396D01*
X123921273Y-88140519D01*
G37*
G36*
X127180141Y-90578679D02*
G01*
X127180141Y-91381415D01*
X127024387Y-91381415D01*
X126868632Y-91381415D01*
X126868632Y-90840229D01*
X126868632Y-90299042D01*
X126464269Y-90839717D01*
X126059905Y-91380392D01*
X126014976Y-91380904D01*
X125970047Y-91381415D01*
X125970047Y-91178206D01*
X125970047Y-90974997D01*
X126416344Y-90376190D01*
X126862641Y-89777382D01*
X127021391Y-89776663D01*
X127180141Y-89775943D01*
X127180141Y-90578679D01*
G37*
G36*
X127563538Y-88379966D02*
G01*
X127563538Y-88529554D01*
X127201108Y-88532725D01*
X126838679Y-88535896D01*
X126835355Y-88706627D01*
X126832031Y-88877359D01*
X127197784Y-88877359D01*
X127563538Y-88877359D01*
X127563538Y-89033113D01*
X127563538Y-89188868D01*
X127042358Y-89188868D01*
X126521179Y-89188868D01*
X126521179Y-88709623D01*
X126521179Y-88230377D01*
X127042358Y-88230377D01*
X127563538Y-88230377D01*
X127563538Y-88379966D01*
G37*
G36*
X131529292Y-87739151D02*
G01*
X131529292Y-87894906D01*
X131163868Y-87894906D01*
X130798443Y-87894906D01*
X130798443Y-88062642D01*
X130798443Y-88230377D01*
X131163868Y-88230377D01*
X131529292Y-88230377D01*
X131529292Y-88380142D01*
X131529292Y-88529906D01*
X131008113Y-88529906D01*
X130486934Y-88529906D01*
X130486934Y-88056651D01*
X130486934Y-87583396D01*
X131008113Y-87583396D01*
X131529292Y-87583396D01*
X131529292Y-87739151D01*
G37*
G36*
X132703443Y-88709623D02*
G01*
X132703443Y-89188868D01*
X132182264Y-89188868D01*
X131661085Y-89188868D01*
X131661085Y-89033113D01*
X131661085Y-88877359D01*
X132026838Y-88877359D01*
X132392592Y-88877359D01*
X132389267Y-88706627D01*
X132385943Y-88535896D01*
X132023514Y-88532725D01*
X131661085Y-88529554D01*
X131661085Y-88379966D01*
X131661085Y-88230377D01*
X132182264Y-88230377D01*
X132703443Y-88230377D01*
X132703443Y-88709623D01*
G37*
G36*
X128585102Y-87736322D02*
G01*
X128737688Y-87889248D01*
X128737688Y-88209577D01*
X128737688Y-88529906D01*
X128216509Y-88529906D01*
X127695330Y-88529906D01*
X127695330Y-88380142D01*
X127695330Y-88230377D01*
X128060754Y-88230377D01*
X128426179Y-88230377D01*
X128426179Y-88062642D01*
X128426179Y-87894906D01*
X128060754Y-87894906D01*
X127695330Y-87894906D01*
X127695330Y-87739151D01*
X127695330Y-87583396D01*
X128063923Y-87583396D01*
X128432515Y-87583396D01*
X128585102Y-87736322D01*
G37*
G36*
X117930707Y-89931698D02*
G01*
X117930707Y-90087453D01*
X117565283Y-90087453D01*
X117199858Y-90087453D01*
X117199858Y-90333066D01*
X117199858Y-90578679D01*
X117565283Y-90578679D01*
X117930707Y-90578679D01*
X117930707Y-90734434D01*
X117930707Y-90890189D01*
X117565283Y-90890189D01*
X117199858Y-90890189D01*
X117199858Y-91135802D01*
X117199858Y-91381415D01*
X117044104Y-91381415D01*
X116888349Y-91381415D01*
X116888349Y-90578679D01*
X116888349Y-89775943D01*
X117409528Y-89775943D01*
X117930707Y-89775943D01*
X117930707Y-89931698D01*
G37*
G36*
X119104858Y-90578679D02*
G01*
X119104858Y-91381415D01*
X118949104Y-91381415D01*
X118793349Y-91381415D01*
X118793349Y-91135802D01*
X118793349Y-90890189D01*
X118427924Y-90890189D01*
X118062500Y-90890189D01*
X118062500Y-90734434D01*
X118062500Y-90578679D01*
X118427924Y-90578679D01*
X118793349Y-90578679D01*
X118793349Y-90333066D01*
X118793349Y-90087453D01*
X118427924Y-90087453D01*
X118062500Y-90087453D01*
X118062500Y-89931698D01*
X118062500Y-89775943D01*
X118583679Y-89775943D01*
X119104858Y-89775943D01*
X119104858Y-90578679D01*
G37*
G36*
X122747122Y-87739151D02*
G01*
X122747122Y-87894906D01*
X122381698Y-87894906D01*
X122016273Y-87894906D01*
X122016273Y-88140519D01*
X122016273Y-88386132D01*
X122381698Y-88386132D01*
X122747122Y-88386132D01*
X122747122Y-88541887D01*
X122747122Y-88697642D01*
X122381698Y-88697642D01*
X122016273Y-88697642D01*
X122016273Y-88943255D01*
X122016273Y-89188868D01*
X121860519Y-89188868D01*
X121704764Y-89188868D01*
X121704764Y-88386132D01*
X121704764Y-87583396D01*
X122225943Y-87583396D01*
X122747122Y-87583396D01*
X122747122Y-87739151D01*
G37*
G36*
X123250330Y-89931698D02*
G01*
X123250330Y-90087453D01*
X122884905Y-90087453D01*
X122519481Y-90087453D01*
X122519481Y-90255189D01*
X122519481Y-90422925D01*
X122884905Y-90422925D01*
X123250330Y-90422925D01*
X123250330Y-90572513D01*
X123250330Y-90722102D01*
X122887901Y-90725272D01*
X122525471Y-90728443D01*
X122522284Y-91054929D01*
X122519096Y-91381415D01*
X122363534Y-91381415D01*
X122207971Y-91381415D01*
X122207971Y-90578679D01*
X122207971Y-89775943D01*
X122729151Y-89775943D01*
X123250330Y-89775943D01*
X123250330Y-89931698D01*
G37*
G36*
X124424481Y-90578679D02*
G01*
X124424481Y-91381415D01*
X124268919Y-91381415D01*
X124113357Y-91381415D01*
X124110169Y-91054929D01*
X124106981Y-90728443D01*
X123744552Y-90725272D01*
X123382122Y-90722102D01*
X123382122Y-90572513D01*
X123382122Y-90422925D01*
X123747547Y-90422925D01*
X124112971Y-90422925D01*
X124112971Y-90255189D01*
X124112971Y-90087453D01*
X123747547Y-90087453D01*
X123382122Y-90087453D01*
X123382122Y-89931698D01*
X123382122Y-89775943D01*
X123903302Y-89775943D01*
X124424481Y-89775943D01*
X124424481Y-90578679D01*
G37*
G36*
X117930707Y-87739151D02*
G01*
X117930707Y-87894906D01*
X117565283Y-87894906D01*
X117199858Y-87894906D01*
X117199858Y-88062642D01*
X117199858Y-88230377D01*
X117565283Y-88230377D01*
X117930707Y-88230377D01*
X117930707Y-88379966D01*
X117930707Y-88529554D01*
X117568278Y-88532725D01*
X117205849Y-88535896D01*
X117202525Y-88706627D01*
X117199200Y-88877359D01*
X117564954Y-88877359D01*
X117930707Y-88877359D01*
X117930707Y-89033113D01*
X117930707Y-89188868D01*
X117409528Y-89188868D01*
X116888349Y-89188868D01*
X116888349Y-88386132D01*
X116888349Y-87583396D01*
X117409528Y-87583396D01*
X117930707Y-87583396D01*
X117930707Y-87739151D01*
G37*
G36*
X126329481Y-88386132D02*
G01*
X126329481Y-89188868D01*
X125808302Y-89188868D01*
X125287122Y-89188868D01*
X125287122Y-89033113D01*
X125287122Y-88877359D01*
X125652876Y-88877359D01*
X126018629Y-88877359D01*
X126015305Y-88706627D01*
X126011981Y-88535896D01*
X125649552Y-88532725D01*
X125287122Y-88529554D01*
X125287122Y-88379966D01*
X125287122Y-88230377D01*
X125652547Y-88230377D01*
X126017971Y-88230377D01*
X126017971Y-88062642D01*
X126017971Y-87894906D01*
X125652547Y-87894906D01*
X125287122Y-87894906D01*
X125287122Y-87739151D01*
X125287122Y-87583396D01*
X125808302Y-87583396D01*
X126329481Y-87583396D01*
X126329481Y-88386132D01*
G37*
G36*
X135111651Y-88386132D02*
G01*
X135111651Y-89188868D01*
X134590471Y-89188868D01*
X134069292Y-89188868D01*
X134069292Y-89033113D01*
X134069292Y-88877359D01*
X134435046Y-88877359D01*
X134800799Y-88877359D01*
X134797475Y-88706627D01*
X134794151Y-88535896D01*
X134431721Y-88532725D01*
X134069292Y-88529554D01*
X134069292Y-88379966D01*
X134069292Y-88230377D01*
X134434717Y-88230377D01*
X134800141Y-88230377D01*
X134800141Y-88062642D01*
X134800141Y-87894906D01*
X134434717Y-87894906D01*
X134069292Y-87894906D01*
X134069292Y-87739151D01*
X134069292Y-87583396D01*
X134590471Y-87583396D01*
X135111651Y-87583396D01*
X135111651Y-88386132D01*
G37*
G36*
X125386059Y-90379093D02*
G01*
X125838254Y-90982243D01*
X125838254Y-91181829D01*
X125838254Y-91381415D01*
X125789905Y-91381415D01*
X125741556Y-91381415D01*
X125345971Y-90851250D01*
X125271854Y-90752115D01*
X125201854Y-90658869D01*
X125137306Y-90573265D01*
X125079545Y-90497053D01*
X125029905Y-90431987D01*
X124989722Y-90379817D01*
X124960331Y-90342297D01*
X124943065Y-90321179D01*
X124939037Y-90317091D01*
X124936249Y-90327828D01*
X124933806Y-90361302D01*
X124931735Y-90416288D01*
X124930063Y-90491562D01*
X124928814Y-90585902D01*
X124928016Y-90698082D01*
X124927694Y-90826879D01*
X124927688Y-90847256D01*
X124927688Y-91381415D01*
X124771934Y-91381415D01*
X124616179Y-91381415D01*
X124616179Y-90578679D01*
X124616179Y-89775943D01*
X124775021Y-89775943D01*
X124933864Y-89775943D01*
X125386059Y-90379093D01*
G37*
D12*
%TO.C,U4*%
X148440000Y-87440000D02*
X152560000Y-87440000D01*
X148440000Y-87535000D02*
X148440000Y-87440000D01*
X148440000Y-92560000D02*
X148440000Y-92465000D01*
X152560000Y-87440000D02*
X152560000Y-87535000D01*
X152560000Y-92465000D02*
X152560000Y-92560000D01*
X152560000Y-92560000D02*
X148440000Y-92560000D01*
X147900000Y-87530000D02*
X147660000Y-87200000D01*
X148140000Y-87200000D01*
X147900000Y-87530000D01*
G36*
X147900000Y-87530000D02*
G01*
X147660000Y-87200000D01*
X148140000Y-87200000D01*
X147900000Y-87530000D01*
G37*
%TD*%
M02*
