M48
; DRILL file {KiCad 9.0.6+dfsg-1} date 2026-05-31T21:43:26+0900
; FORMAT={-:-/ absolute / metric / decimal}
; #@! TF.CreationDate,2026-05-31T21:43:26+09:00
; #@! TF.GenerationSoftware,Kicad,Pcbnew,9.0.6+dfsg-1
; #@! TF.FileFunction,Plated,1,2,PTH
FMAT,2
METRIC
; #@! TA.AperFunction,Plated,PTH,ViaDrill
T1C0.300
; #@! TA.AperFunction,Plated,PTH,ComponentDrill
T2C0.600
; #@! TA.AperFunction,Plated,PTH,ComponentDrill
T3C1.000
%
G90
G05
T1
X124.5Y-85.0
X126.6Y-75.5
X133.0Y-73.5
X136.0Y-79.0
X136.5Y-74.5
X137.0Y-77.5
X137.0Y-81.5
X138.495Y-73.005
X138.5Y-96.5
X139.5Y-97.0
X139.796Y-84.0
X140.0Y-70.0
X140.5Y-96.5
X141.0Y-95.0
X141.5Y-91.5
X141.85Y-68.15
X142.0Y-95.0
X142.5Y-72.0
X142.5Y-73.5
X142.5Y-91.5
X142.5Y-96.5
X143.5Y-74.5
X143.5Y-91.5
X144.25Y-80.0
X144.5Y-91.5
X144.75Y-95.5
X145.0Y-67.0
X145.05Y-72.2
X145.5Y-95.0
X145.85Y-88.281
X146.5Y-95.0
X146.5Y-95.9
X146.75Y-77.75
X146.975Y-82.96
X146.975Y-85.5
X147.0Y-62.412
X147.05Y-97.1
X147.5Y-70.0
X147.5Y-71.5
X147.5Y-73.0
X147.5Y-79.4
X147.5Y-95.9
X147.5Y-98.0
X147.888Y-77.285
X148.0Y-66.5
X148.0Y-86.5
X148.4Y-77.9
X148.464Y-95.9
X149.065Y-95.065
X149.35Y-75.65
X150.0Y-81.5
X150.022Y-95.9
X150.691Y-95.461
X151.0Y-66.5
X151.0Y-67.5
X151.0Y-98.0
X151.25Y-91.75
X151.256Y-94.895
X151.5Y-74.5
X151.75Y-76.25
X152.0Y-70.0
X152.0Y-99.0
X152.11Y-84.11
X152.5Y-97.0
X152.975Y-89.365
X152.975Y-90.635
X153.5Y-79.0
X154.0Y-87.0
X154.15Y-81.69
X154.15Y-82.96
X154.15Y-84.23
X156.6Y-76.0
X157.0Y-88.5
X157.0Y-94.5
X158.0Y-78.0
X159.062Y-95.55
X159.5Y-58.5
X160.5Y-92.5
X165.0Y-83.0
X167.0Y-91.5
X167.112Y-71.388
X168.5Y-74.5
X169.0Y-66.3
X169.0Y-70.45
X169.45Y-82.005
X169.45Y-84.205
X169.45Y-85.305
X170.5Y-59.587
X171.5Y-79.175
X171.75Y-66.75
X173.405Y-67.27
X173.912Y-58.5
X175.0Y-64.0
X175.0Y-65.5
X177.0Y-75.0
T3
X130.0Y-57.38
X130.0Y-59.92
X130.0Y-62.46
X130.0Y-65.0
X130.0Y-67.54
X130.0Y-70.08
X130.0Y-72.62
X130.0Y-75.16
T2
G00X173.77Y-60.5
M15
G01X174.87Y-60.5
M16
G05
G00X173.77Y-69.14
M15
G01X174.87Y-69.14
M16
G05
G00X178.2Y-60.5
M15
G01X178.8Y-60.5
M16
G05
G00X178.2Y-69.14
M15
G01X178.8Y-69.14
M16
G05
M30
